/* XPM */
const char *About_xpm[] = {
/* columns rows colors chars-per-pixel */
"123 123 90 1 ",
"  c black",
". c #010101",
"X c #020202",
"o c #040404",
"O c gray2",
"+ c #060606",
"@ c gray5",
"# c #0E0E0E",
"$ c #101010",
"% c #111111",
"& c #131313",
"* c gray9",
"= c gray10",
"- c gray11",
"; c #1D1D1D",
": c gray12",
"> c #2D2D2D",
", c gray18",
"< c #313131",
"1 c gray20",
"2 c #3C3C3C",
"3 c #3E3E3E",
"4 c #3F3F3F",
"5 c gray29",
"6 c gray31",
"7 c #515151",
"8 c gray32",
"9 c #535353",
"0 c gray33",
"q c #555555",
"w c #585858",
"e c #5A5D5D",
"r c gray36",
"t c #606060",
"y c #676767",
"u c #686868",
"i c DimGray",
"p c gray42",
"a c #6F6F6F",
"s c gray45",
"d c #737576",
"f c gray48",
"g c gray49",
"h c gray53",
"j c #868888",
"k c #898B8C",
"l c #8F9192",
"z c #909292",
"x c #919393",
"c c #9A9A9A",
"v c #9D9D9D",
"b c #9D9D9E",
"n c #9C9E9E",
"m c #9D9E9E",
"M c #9F9F9F",
"N c #A2A2A2",
"B c #A5A5A6",
"V c #A5A6A6",
"C c gray65",
"Z c #AAAAAA",
"A c gray67",
"S c gray70",
"D c #B6B6B6",
"F c #B9B9B9",
"G c #BBBBBB",
"H c #C3C3C3",
"J c gray77",
"K c gray81",
"L c #D5D5D5",
"P c #D8D8D8",
"I c gray85",
"U c gray86",
"Y c gainsboro",
"T c gray88",
"R c gray89",
"E c #E4E4E4",
"W c #E7E7E7",
"Q c #E9E9E9",
"! c gray92",
"~ c #EFEFEF",
"^ c #EFF0F1",
"/ c gray94",
"( c #F1F1F1",
") c gray95",
"_ c #F6F6F6",
"` c gray97",
"' c #F8F8F8",
"] c #F9F9F9",
"[ c #FEFEFE",
"{ c white",
/* pixels */
"^^^^^^^^^^^^^/^^^^^^^^^^^/^^^^^^^^^^^/^^^^^^^^^^^/^^^^^^^^^^^/^^^^^^^^^^^/^^^^^^^^^^^/^^^^^^^^^^^/^^^^^^^^^^^/^^^^^^^^^^^^^",
"^jbbbbbbbbbbVVbbbbbbbbbbVVbbbbbbbbbbVVbbbbbbbbbbVVbbbbbbbbbbVVbbbbbbbbbbVVbbbbbbbbbbVVbbbbbbbbbbVVbbbbbbbbbbVVbbbbbbbbbbdz^",
"^b{{{{{{{{{{~~{{{{{{{{{{~~{{{{{{{{{{~~{{{{{{{{{{~~{{{{{{{{{{~~{{{{{{{{{{~~{{{{{{{{{{~~{{{{{{{{{{~~{{{{{{{{{{~~{{{{{{{{{{zk^",
"^b{{{{{{{{{{~~{{{{{{{{{{~~{{{{{{{{{{~~{{{{{{{{{{~~{{{{{{{{{{~~{{{{{{{{{{~~{{{{{{{{{{~~{{{{{{{{{{~~{{{{{{{{{{~~{{{{{{{{{{xk^",
"^b{{{{{{{{{{~~{{{{{{{{{{~~{{{{{{{{{{~~{{{{{{{{{{~~{{{{{{{{{{~~{{{{{{{{{{~~{{{{{{{{{{~~{{{{{{{{{{~~{{{{{{{{{{~~{{{{{{{{{{xk^",
"^b{{{{{{{{{{~~{{{{{{{{{{~~{{{{{{{{{{~~{{{{{{{{{{~~{{{{{{{{{{~~{{{{{{{{{{~~{{{{{{{{{{~~{{{{{{{{{{~~{{{{{{{{{{~~{{{{{{{{{{xk^",
"^b{{{{{{{{{{~~{{{{{{{{{{~~{{{{{{{{{{~~{{{{{{{{{{~~{{{{{{{{{{~~{{{{{{{{{{~~{{{{{{{{{{~~{{{{{{{{{{~~{{{{{{{{{{~~{{{{{{{{{{xk/",
"^b{{{{{{{{{{~~{{{{{{{{{{~~{{{{{{{{{{~~{{{{{{{{{{~~{{{{{{{{{{~~{{{{{{{{{{~~{{{{{{{{{{~~{{{{{{{{{{~~{{{{{{{{{{~~{{{{{{{{{{xk^",
"^b{{{{{{{{{{~~{{{{{{{{{{~~{{{{{{{{{{~~{{{{{{{{{{~~{{{{{{{{{{~~{{{{{{{{{{~~{{{{{{{{{{~~{{{{{{{{{{~~{{{{{{{{{{~~{{{{{{{{{{xk^",
"^b{{{{{{{{{{~~{{{{{{{{{{~~{{{{{{{{{{~~{{{{{{{{{{~~{{{{{{{{{{~~{{{{{{{{{{~~{{{{{{{{{{~~{{{{{{{{{{~~{{{{{{{{{{~~{{{{{{{{{{xk^",
"^b{{{{{{{{{{~~{{{{{{{{{{~~{{{{{{{{{{~~{{{{{{{{{{~~{{{{{{{{{{~~{{{{{{{{{{~~{{{{{{{{{{~~{{{{{{{{{{~~{{{{{{{{{{~~{{{{{{{{{{xk^",
"^b{{{{{{{{{{~~{{{{{{{{{{~~{{{{{{{{{{~~{{{{{{{{{{~~{{{{{{{{{{~~{{{{{{{{{{~~{{{{{{{{{{~~{{{{{{{{{{~~{{{{{{{{{{~~{{{{{{{{{{xk^",
"^V~~~~~~~~~~RR~~~~~~~~~~RR~~~~~~~~~~RR~~~~~~~~~~RR~~~~~~~~~~RR~~~~~~~~~~RR~~~~~~~~~~RR~~~~~~~~~~RR~~~~~~~~~~RR~~~~~~~~~~bl^",
"^V~~~~~~~~~~RR~~~~~~~~~~RR~~~~~~~~~~RR~~~~~~~~~~RR~~~~~~~~~~RR~~~~~~~~~~RR~~~~~~~~~~RR~~~~~~~~~~RR~~~~~~~~~~RR~~~~~~~~~~bl^",
"^b{{{{{{{{{{~~{{{{{{{{{{~~{{{{{{{{{{~~{{{{{{{{{{~~{{{{{{{{{{~~{{{{{{{{{{~~{{{{{{{{{{~~{{{{{{{{{{~~{{{{{{{{{{~~{{{{{{{{{{xk^",
"^b{{{{{{{{{{~~{{{{{{{{{{~~{{{{{{{{{{~~{{{{{{{{{{~~{{{{{{{{{{~~{{{{{{{{{{~~{{{{{{{{{{~~{{{{{{{{{{~~{{{{{{{{{{~~{{{{{{{{{{xk^",
"^b{{{{{{{{{{~~{{{P_{{{{{~~{{{{{{{{{{~~{{{{{{{{{{~~{{{{{{{{{{~~{{{{{{{{{{~~{{{{{{{{{{~~{{{{{{{{{{~~{{{U_{{{{{~~{{{{{{{{{{xk^",
"^b{{{{{{{{{{~~{{{4K{{{{{~~{{{{{{{{{{~~{{{{{{{{{{~~{{{{{{{{{{~~{{{{{{{{{{~~{{{{{{{{{{~~{{{{{{{{{{~~{{{4K{{{{{~~{{{{{{{{{{xk^",
"^b{{{{{{{{{{~~{{{4K{{{{{~~{{{{{{{{{{~~{{{{{{{{{{~~{{{{{{{{{{~~{{{{{{{{{{~~{{{{{{{{{{~~{{{{{{{{{{~~{{]5K{{{{{~~{{{{{{{{{{xk^",
"^b{{{{{{{{{{~~S**O&*5{{{~~{{{{{{{{{{~~{{{{{{{{{{~~{{{{{{{{{{~~{{{{{{{{{{~~{{{{{{{{{{~~{{{{{{{{{{~~S** &*5{{{~~{{{{{{{{{{xk^",
"^b{{{{{{{{{{~~{{{4K{{{{{~~h  6{{{{{{~~h  6{{{{{{~~h  6{{{{{{~~h  6{{{{{{~~h  6{{{{{{~~h  6{{{{{{~~{{{4K{{{{{~~{{{{{{{{{{xk^",
"^b{{{{{{{{{{~~{{{4K{{{{{~~{{{{{{{{{{~~{{{{{{{{{{~~{{{{{{{{{{~~{{{{{{{{{{~~{{{{{{{{{{~~{{{{{{{{{{~~{{{4K{{{{{~~{{{{{{{{{{xk^",
"^b{{{{{{{{{{~~{{{4K{{{{{~~{{{{{{{{{{~~{{{{{{{{{{~~{{{{{{{{{{~~{{{{{{{{{{~~{{{{{{{{{{~~{{{{{{{{{{~~{{{4K{{{{{~~{{{{{{{{{{xk^",
"^b{{{{{{{{{{~~{{{{{{{{{{~~{{{{{{{{{{~~{{{{{{{{{{~~{{{{{{{{{{~~{{{{{{{{{{~~{{{{{{{{{{~~{{{{{{{{{{~~{{{{{{{{{{~~{{{{{{{{{{xk^",
"^V~~~~~~~~~~RR~~~~~~~~~~RR~~~~~~~~~~RR~~~~~~~~~~RR~~~~~~~~~~RR~~~~~~~~~~RR~~~~~~~~~~RR~~~~~~~~~~RR~~~~~~~~~~RR~~~~~~~~~~nl~",
"^V~~~~~~~~~~RR~~~~~~~~~~RR~~~~~~~~~~RR~~~~~~~~~~RR~~~~~~~~~~RR~~~~~~~~~~RR~~~~~~~~~~RR~~~~~~~~~~RR~~~~~~~~~~RR~~~~~~~~~~nl^",
"^b{{{{{{{{{{~~{{{:!{{{{{~~{{{{{{{{{{~~{{{{{{{{{{~~{{{{{{{{{{~~{{{{{{{{{{~~{{{{{{{{{{~~{{{{{{{{{{~~{{{:!{{{{{~~{{{{{{{{{{zk^",
"^b{{{{{{{{{{~~{{{:!{{{{{~~{{{{{{{{{{~~{{{{{{{{{{~~{{{{{{{{{{~~{{{{{{{{{{~~{{{{{{{{{{~~{{{{{{{{{{~~{{{:!{{{{{~~{{{{{{{{{{zk^",
"^b{{{{{{{{{{~~{{{:!{{{{{~~{{{{{{{{{{~~{{{{{{{{{{~~{{{{{{{{{{~~{{{{{{{{{{~~{{{{{{{{{{~~{{{{{{{{{{~~{{{:!{{{{{~~{{{{{{{{{{xk^",
"^b{{{{{{{{{{~~{{{:!{{{{{~~{{{{{{{{{{~~{{{{{{{{{{~~{{{{{{{{{{~~{{{{{{{{{{~~{{{{{{{{{{~~{{{{{{{{{{~~{{{:!{{{{{~~{{{{{{{{{{xk^",
"^b{{{{{{{{{{~~{{{:!{{{{{~~{{{{{{{{{{~~{{{{{{{{{{~~{{{{{{{{{{~~{{{{{{{{{{~~{{{{{{{{{{~~{{{{{{{{{{~~{{{:!{{{{{~~{{{{{{{{{{xk/",
"^b{{{{{{{{{{~~{{{:!{{{{{~~{{{{{{{{{{~~{{{{{{{{{{~~{{{{{{{{{{~~{{{{{{{{{{~~{{{{{{{{{{~~{{{{{{{{{{~~{{{:!{{{{{~~{{{{{{{{{{xk^",
"^b{{{{{{{{{{~~{{{:!{{{{{~~{{{{{{{{{{~~{{{{{{{{{{~~{{{{{{{{{{~~{{{{{{{{{{~~{{{{{{{{{{~~{{{{{{{{{{~~{{{:!{{{{{~~{{{{{{{{{{xk^",
"^b{{{{{{{{{{~~{{{:!{{{{{~~{{{{{{{{{{~~{{{{{{{{{{~~{{{{{{{{{{~~{{{{{{{{{{~~{{{{{{{{{{~~{{{{{{{{{{~~{{{:!{{{{{~~{{{{{{{{{{xk^",
"^b{{{{{{{{{{~~{{{:!{{{{{~~{{{{{{{{{{~~{{{{{{{{{{~~{{{{{{{{{{~~{{{{{{{{{{~~{{{{{{{{{{~~{{{{{{{{{{~~{{{:!{{{{{~~{{{{{{{{{{xk^",
"^b{{{{{{{{{{~~{{{:!{{{{{~~{{{{{{{{{{~~{{{{{{{{{{~~{{{{{{{{{{~~{{{{{{{{{{~~{{{{{{{{{{~~{{{{{{{{{{~~{{{:!{{{{{~~{{{{{{{{{{xk^",
"^V~~~~~~~~~~RR~~~-U~~~~~RR~~~~~~~~~~RR~~~~~~~~~~RR~~~~~~~~~~RR~~~~~~~~~~RR~~~~~~~~~~RR~~~~~~~~~~RR~~~:U~~~~~RR~~~~~~~~~~nl^",
"^V~~~~~~~~~~RR~~~:U~~~~~RR~~~~~~~~~~RR~~~~~~~~~~RR~~~~~~~~~~RR~~~~~~~~~~RR~~~~~~~~~~RR~~~~~~~~~~RR~~~:U~~~~~RR~~~~~~~~~~nx^",
"^b{{{{{{{{{{~~{{{ U{{{{{~~{{{{{{{{{{~~{{{{{{{{{{~~{{{{{{{{{{~~{_8&>{{{{{~~{{{{{{{{{{~~{{{{{{{{{{~~{{{ U{{{{{~~{{{{{{{{{{xk^",
"^b{{{{{{{{{{~~{{{:!{{{{{~~{{{{{{{{{{~~Z=O8{{{{{{~~{{{{{{{{{{~~{c1]_{{{{{~~{{{{{{{{{{~~{{{{{{{{{{~~{{{:!{{{{{~~{{{{{{{{{{xk^",
"^b{{{{{{{{{{~~{{{:!{{{{{~~{{{{{{{{{{~~{M1{{{{{{{~~{{{{{{{{{{~~{sy{{{{{{{~~{{{{{{{{{{~~{{{{{{{{{{~~{{{:!{{{{{~~{{{{{{{{{{xk^",
"^b{{{{{{{{{{~~{{{:!{{{{{~~{{{{{{{{{{~~{b1{{{{{{{~~{:N>#>J{{{~~f&O>D{{{{{~~{Wq*&r~{{{~~{{{{{{{{{{~~{{{:!{{{{{~~{{{{{{{{{{xk^",
"^b{{{{{{{{{{~~{{{:!{{{{{~~{{{{{{{{{{~~{b1{{{{{{{~~{:1R{f>{{{~~{au{{{{{{{~~{4u]/7q{{{~~{{{{{{{{{{~~{{{:!{{{{{~~{{{{{{{{{{xk^",
"^b{{{{{{{{{{~~{{{:!{{{{{~~{{{{{{{{{{~~{N1{{{{{{{~~{:b{{LO{{{~~{au{{{{{{{~~R /{{U /{{~~{{{{{{{{{{~~{{{:!{{{{{~~{{{{{{{{{{xk^",
"^b{{{{{{{{{{~~{{{:!{{{{{~~{{{{{{{{{{~~{b1{{{{{{{~~{:G{{U {{{~~{aa{{{{{{{~~H#{{{' Y{{~~{{{{{{{{{{~~{{{:!{{{{{~~{{{{{{{{{{xk^",
"^b{{{{{{{{{{~~{{{:!{{{{{~~{{{{{{{{{{~~{b1{{{{{{{~~{:G{{U {{{~~{au{{{{{{{~~Y /{{P ]{{~~{{{{{{{{{{~~{{{:!{{{{{~~{{{{{{{{{{xk^",
"^b{{{{{{{{{{~~{{{:!{{{{{~~{{{{{{{{{{~~{b1{{{{{{{~~{:G{{U {{{~~{aa{{{{{{{~~{4u_/8r{{{~~{{{{{{{{{{~~{{{:!{{{{{~~{{{{{{{{{{xk^",
"^b{{{{{{{{{{~~{{{:!{{{{{~~{{{{{{{{{{~~Z:Oq{{{{{{~~{:G{{U {{{~~{au{{{{{{{~~{W0&=y/{{{~~{{{{{{{{{{~~{{{:!{{{{{~~{{{{{{{{{{xk^",
"^V~~~~~~~~~~RR~~~:U~~~~~RR~~~~~~~~~~RR~~~~~~~~~~RR~~~~~~~~~~RR~~~~~~~~~~RR~~~~~~~~~~RR~~~~~~~~~~RR~~~:U~~~~~RR~~~~~~~~~~bl^",
"^V~~~~~~~~~~RR~~~:U~~~~~RR~~~~~~~~~~RR~~~~~~~~~~RR~~~~~~~~~~RR~~~~~~~~~~RR~~~~~~~~~~RR~~~~~~~~~~RR~~~:U~~~~~RR~~~~~~~~~~bl^",
"^b{{{{{{{{{{~~{{{ U{{{{{~~{{{{{{{{{{~~{{{{{{{{{{~~{{{{{{{{{{~~{{{{{{{{{{~~{{{{{{{{{{~~{{{{{{{{{{~~{{{ U{{{{{~~{{{{{{{{{{xk^",
"^b{{{{{{{{{{~~{{{:!{{{{{~~{{{{{{{{{{~~{{{{{{{{{{~~{{{{{{{{{{~~{{{{{{{{{{~~{{{{{{{{{{~~{{{{{{{{{{~~{{{:!{{{{{~~{{{{{{{{{{xk^",
"^b{{{{{{{{{{~~{{{:!{{{{{~~{{{{{{{{{{~~{{{{{{{{{{~~{{{{{{{{{{~~{{{{{{{{{{~~{{{{{{{{{{~~{{{{{{{{{{~~{{{:!{{{{{~~{{{{{{{{{{xk^",
"^b{{{{{{{{{{~~{{{:!{{{{{~~{{{{{{{{{{~~{{{{{{{{{{~~{{{{{{{{{{~~{{{{{{{{{{~~{{{{{{{{{{~~{{{{{{{{{{~~{{{:!{{{{{~~{{{{{{{{{{xk^",
"^b{{{{{{{{{{~~{{{:!{{{{{~~{{{{{{{{{{~~{{{{{{{{{{~~{{{{{{{{{{~~{{{{{{{{{{~~{{{{{{{{{{~~{{{{{{{{{{~~{{{:!{{{{{~~{{{{{{{{{{xk^",
"^b{{{{{{{{{{~~{{{:!{{{{{~~{{{{{{{{{{~~{{{{{{{{{{~~{{{{{{{{{{~~{{{{{{{{{{~~{{{{{{{{{{~~{{{{{{{{{{~~{{{:!{{{{{~~{{{{{{{{{{xk^",
"^b{{{{{{{{{{~~{{{:!{{{{{~~{{{{{{{{{{~~{{{{{{{{{{~~{{{{{{{{{{~~{{{{{{{{{{~~{{{{{{{{{{~~{{{{{{{{{{~~{{{:!{{{{{~~{{{{{{{{{{xk^",
"^b{{{{{{{{{{~~{{{:!{{{{{~~{{{{{{{{{{~~{{{{{{{{{{~~{{{{{{{{{{~~{{{{{{{{{{~~{{{{{{{{{{~~{{{{{{{{{{~~{{{:!{{{{{~~{{{{{{{{{{xk^",
"^b{{{{{{{{{{~~{{{:!{{{{{~~{{{{{{{{{{~~{{{{{{{{{{~~{{{{{{{{{{~~{{{{{{{{{{~~{{{{{{{{{{~~{{{{{{{{{{~~{{{:!{{{{{~~{{{{{{{{{{xk^",
"^b{{{{{{{{{{~~{{{:!{{{{{~~{{{{{{{{{{~~{{{{{{{{{{~~{{{{{{{{{{~~{{{{{{{{{{~~{{{{{{{{{{~~{{{{{{{{{{~~{{{:!{{{{{~~{{{{{{{{{{xk^",
"^V~~~~~~~~~~RR~~~:U~~~~~RR~~~~~~~~~~RR~~~~~~~~~~RR~~~~~~~~~~RR~~~~~~~~~~RR~~~~~~~~~~RR~~~~~~~~~~RR~~~:U~~~~~RR~~~~~~~~~~nl^",
"^V~~~~~~~~~~RR~~~:U~~~~~RR~~~~~~~~~~RR~~~~~~~~~~RR~~~~~~~~~~RR~~~~~~~~~~RR~~~~~~~~~~RR~~~~~~~~~~RR~~~:U~~~~~RR~~~~~~~~~~nx^",
"^b{{{{{{{{{{~~{{{ U{{{{{~~{{{{{{{{{{~~{{{{{{{{{{~~{{{{{{{{{{~~{{{{{{{{{{~~{{{{{{{{{{~~{{{{{{{{{{~~{{{ U{{{{{~~{{{{{{{{{{xk^",
"^b{{{{{{{{{{~~{{{:!{{{{{~~{{{{{{{{{{~~{{{{{{{{{{~~{{{{{{{{{{~~{{{{{{{{{{~~{{{{{{{{{{~~{{{{{{{{{{~~{{{:!{{{{{~~{{{{{{{{{{xk^",
"^b{{{{{{{{{{~~{{{:!{{{{{~~{{{{{{{{{{~~{{{{{{{{{{~~{{{{{{{{{{~~{{{{{{{{{{~~{{{{{{{{{{~~{{{{{{{{{{~~{{{:!{{{{{~~{{{{{{{{{{xk^",
"^b{{{{{{{{{{~~{{{:!{{{{{~~{{{{{{{{{{~~{{{{{{{{{{~~{{{{{{{{{{~~{{{{{{{{{{~~{{{{{{{{{{~~{{{{{{{{{{~~{{{:!{{{{{~~{{{{{{{{{{xk^",
"^b{{{{{{{{{{~~{{{:!{{{{{~~{{{{{{{{{{~~{{{{{{{{{{~~{{{{{{{{{{~~{{{{{{{{{{~~{{{{{{{{{{~~{{{{{{{{{{~~{{{:!{{{{{~~{{{{{{{{{{xk^",
"^b{{{{{{{{{{~~{{{:!{{{{{~~{{{{{{{{{{~~{{{{{{{{{{~~{{{{{{{{{{~~{{{{{{{{{{~~{{{{{{{{{{~~{{{{{{{{{{~~{{{:!{{{{{~~{{{{{{{{{{xk^",
"^b{{{{{{{{{{~~{{{:!{{{{{~~{{{{{{{{{{~~{{{{{{{{{{~~{{{{{{{{{{~~{{{{{{{{{{~~{{{{{{{{{{~~{{{{{{{{{{~~{{{:!{{{{{~~{{{{{{{{{{xk^",
"^b{{{{{{{{{{~~{{{:!{{{{{~~{{{{{{{{{{~~{{{{{{{{{{~~{{{{{{{{{{~~{{{{{{{{{{~~{{{{{{{{{{~~{{{{{{{{{{~~{{{:!{{{{{~~{{{{{{{{{{xk^",
"^b{{{{{{{{{{~~{{{:!{{{{{~~{{{{{{{{{{~~{{{{{{{{{{~~{{{{{{{{{{~~{{{{{{{{{{~~{{{{{{{{{{~~{{{{{{{{{{~~{{{:!{{{{{~~{{{{{{{{{{xk^",
"^b{{{{{{{{{{~~{{{:!{{{{{~~{{{{{{{{{{~~{{{{{{{{{{~~{{{{{{{{{{~~{{{{{{{{{{~~{{{{{{{{{{~~{{{{{{{{{{~~{{{:!{{{{{~~{{{{{{{{{{xk^",
"^B~~~~~~~~~~RR~~~-Y~~~~~RR~~~~~~~~~~RR~~~~~~~~~~RR~~~~~~~~~~RR~~~~~~~~~~RR~~~~~~~~~~RR~~~~~~~~~~RR~~~=Y~~~~~RR~~~~~~~~~~bl^",
"^V~~~~~~~~~~RR~~~:Y~~~~~RR~~~~~~~~~~RR~~~~~~~~~~RR~~~~~~~~~~RR~~~~~~~~~~RR~~~~~~~~~~RR~~~~~~~~~~RR~~~-Y~~~~~RR~~~~~~~~~~bl^",
"^b{{{{{{{{{{~~{{{oP{{{{{~~{{{{{{{{{{~~{{{{{{{{{{~~{{{{{{{{{{~~{_8&>{{{{{~~{{{{{{{{{{~~{{{{{{{{{{~~{{{ U{{{{{~~{{{{{{{{{{xk^",
"^b{{{{{{{{{{~~{{{:!{{{{{~~{{{{{{{{{{~~Z=O8{{{{{{~~{{{{{{{{{{~~{c1]_{{{{{~~{{{{{{{{{{~~{{{{{{{{{{~~{{{:!{{{{{~~{{{{{{{{{{xk^",
"^b{{{{{{{{{{~~{{{:!{{{{{~~{{{{{{{{{{~~{b1{{{{{{{~~{{{{{{{{{{~~{su{{{{{{{~~{{{{{{{{{{~~{{{{{{{{{{~~{{{:!{{{{{~~{{{{{{{{{{xk^",
"^b{{{{{{{{{{~~{{{:!{{{{{~~{{{{{{{{{{~~{N1{{{{{{{~~{:N>#>J{{{~~f&#:D{{{{{~~{!q*&r/{{{~~{{{{{{{{{{~~{{{:!{{{{{~~{{{{{{{{{{xk^",
"^b{{{{{{{{{{~~{{{:!{{{{{~~{{{{{{{{{{~~{b1{{{{{{{~~{:1R{g>{{{~~{au{{{{{{{~~{4u]/80{{{~~{{{{{{{{{{~~{{{:!{{{{{~~{{{{{{{{{{xk^",
"^b{{{{{{{{{{~~{{{:!{{{{{~~{{{{{{{{{{~~{b1{{{{{{{~~{:b{{Lo{{{~~{aa{{{{{{{~~Y /{{U /{{~~{{{{{{{{{{~~{{{:!{{{{{~~{{{{{{{{{{xk^",
"^b{{{{{{{{{{~~{{{:!{{{{{~~{{{{{{{{{{~~{b1{{{{{{{~~{:G{{U {{{~~{au{{{{{{{~~H&{{{_ Y{{~~{{{{{{{{{{~~{{{:!{{{{{~~{{{{{{{{{{xk^",
"^b{{{{{{{{{{~~{{{:!{{{{{~~{{{{{{{{{{~~{b1{{{{{{{~~{:G{{U {{{~~{au{{{{{{{~~U /{{U ]{{~~{{{{{{{{{{~~{{{:!{{{{{~~{{{{{{{{{{xk^",
"^b{{{{{{{{{{~~{{{:!{{{{{~~{{{{{{{{{{~~{N1{{{{{{{~~{:G{{U {{{~~{aa{{{{{{{~~{2u_/8r{{{~~{{{{{{{{{{~~{{{:!{{{{{~~{{{{{{{{{{xk^",
"^b{{{{{{{{{{~~{{{:!{{{{{~~{{{{{{{{{{~~Z=Oq{{{{{{~~{:G{{U {{{~~{au{{{{{{{~~{!8&=y/{{{~~{{{{{{{{{{~~{{{:!{{{{{~~{{{{{{{{{{xk^",
"^V~~~~~~~~~~RR~~~-Y~~~~~RR~~~~~~~~~~RR~~~~~~~~~~RR~~~~~~~~~~RR~~/~~~~~~~RR~~~~~~//~~RR~~~~~~~~~~RR~~~-U~~~~~RR~~~~~~~~~~nl^",
"^V~~~~~~~~~~RR~~~:Y~~~~~RR~~~~~~~~~~RR~~~~~~~~~~RR~~~~~~~~~~RR~~~~~~~~~~RR~~~~~~~~~~RR~~~~~~~~~~RR~~~:U~~~~~RR~~~~~~~~~~nx^",
"^b{{{{{{{{{{~~{{{ U{{{{{~~{{{{{{{{{{~~{{{{{{{{{{~~{{{{{{{{{{~~{{{{{{{{{{~~{{{{{{{{{{~~{{{{{{{{{{~~{{{ U{{{{{~~{{{{{{{{{{xk^",
"^b{{{{{{{{{{~~{{{:!{{{{{~~{{{{{{{{{{~~{{{{{{{{{{~~{{{{{{{{{{~~{{{{{{{{{{~~{{{{{{{{{{~~{{{{{{{{{{~~{{]>!{{{{{~~{{{{{{{{{{xk^",
"^b{{{{{{{{{{~~{{{:!{{{{{~~{{{{{{{{{{~~{{{{{{{{{{~~{{{{{{{{{{~~{{{{{{{{{{~~{{{{{{{{{{~~{{{{{{{{{{~~{{{:!{{{{{~~{{{{{{{{{{xk^",
"^b{{{{{{{{{{~~{{{:!{{{{{~~{{{{{{{{{{~~{{{{{{{{{{~~{{{{{{{{{{~~{{{{{{{{{{~~{{{{{{{{{{~~{{{{{{{{{{~~{{{:!{{{{{~~{{{{{{{{{{xk^",
"^b{{{{{{{{{{~~{{{:!{{{{{~~{{{{{{{{{{~~{{{{{{{{{{~~{{{{{{{{{{~~{{{{{{{{{{~~{{{{{{{{{{~~{{{{{{{{{{~~{{{:!{{{{{~~{{{{{{{{{{xk^",
"^b{{{{{{{{{{~~{{{:!{{{{{~~{{{{{{{{{{~~{{{{{{{{{{~~{{{{{{{{{{~~{{{{{{{{{{~~{{{{{{{{{{~~{{{{{{{{{{~~{{{:!{{{{{~~{{{{{{{{{{xk^",
"^b{{{{{{{{{{~~{{{:!{{{{{~~{{{{{{{{{{~~{{{{{{{{{{~~{{{{{{{{{{~~{{{{{{{{{{~~{{{{{{{{{{~~{{{{{{{{{{~~{{{:!{{{{{~~{{{{{{{{{{xk^",
"^b{{{{{{{{{{~~{{{:!{{{{{~~{{{{{{{{{{~~{{{{{{{{{{~~{{{{{{{{{{~~{{{{{{{{{{~~{{{{{{{{{{~~{{{{{{{{{{~~{{{:!{{{{{~~{{{{{{{{{{xk^",
"^b{{{{{{{{{{~~{{{:!{{{{{~~{{{{{{{{{{~~{{{{{{{{{{~~{{{{{{{{{{~~{{{{{{{{{{~~{{{{{{{{{{~~{{{{{{{{{{~~{{{:!{{{{{~~{{{{{{{{{{xk^",
"^b{{{{{{{{{{~~{{{:!{{{{{~~{{{{{{{{{{~~{{{{{{{{{{~~{{{{{{{{{{~~{{{{{{{{{{~~{{{{{{{{{{~~{{{{{{{{{{~~{{{:!{{{{{~~{{{{{{{{{{xk^",
"^B~~~~~~~~~~RR~~~:U~~~~~RR~~~~~~~~~~RR~~~~~~~~~~RR~~~~~~~~~~RR~~~~~~~~~~RR~~~~~~~~~~RR~~~~~~~~~~RR~~~:U~~~~~RR~~~~~~~~~~bl^",
"^V~~~~~~~~~~RR~~~=U~~~~~RR~~~~~~~~~~RR~~~~~~~~~~RR~~~~~~~~~~RR~~~~~~~~~~RR~~~~~~~~~~RR~~~~~~~~~~RR~~~=U~~~~~RR~~~~~~~~~~bl^",
"^b{{{{{{{{{{~~{{{:!{{{{{~~{{{{{{{{{{~~{{{{{{{{{{~~{{{{{{{{{{~~{{{{{{{{{{~~{{{{{{{{{{~~{{{{{{{{{{~~{{{:!{{{{{~~{{{{{{{{{{xk^",
"^b{{{{{{{{{{~~{{{{{{{{{{~~{{{{{{{{{{~~{{{{{{{{{{~~{{{{{{{{{{~~{{{{{{{{{{~~{{{{{{{{{{~~{{{{{{{{{{~~{{{{{{{{{{~~{{{{{{{{{{xk^",
"^b{{{{{{{{{{~~{{{U_{{{{{~~{{{{{{{{{{~~{{{{{{{{{{~~{{{{{{{{{{~~{{{{{{{{{{~~{{{{{{{{{{~~{{{{{{{{{{~~{{{U_{{{{{~~{{{{{{{{{{xk^",
"^b{{{{{{{{{{~~{{{4K{{{{{~~{{{{{{{{{{~~{{{{{{{{{{~~{{{{{{{{{{~~{{{{{{{{{{~~{{{{{{{{{{~~{{{{{{{{{{~~{{{4K{{{{{~~{{{{{{{{{{xk^",
"^b{{{{{{{{{{~~{{{4K{{{{{~~{{{{{{{{{{~~{{{{{{{{{{~~{{{{{{{{{{~~{{{{{{{{{{~~{{{{{{{{{{~~{{{{{{{{{{~~{{{5K{{{{{~~{{{{{{{{{{xk^",
"^b{{{{{{{{{{~~S**O&*5{{{~~{{{{{{{{{{~~{{{{{{{{{{~~{{{{{{{{{{~~{{{{{{{{{{~~{{{{{{{{{{~~{{{{{{{{{{~~S** #*5{{{~~{{{{{{{{{{xk^",
"^b{{{{{{{{{{~~{{{4K{{{{{~~h  6{{{{{{~~h  6{{{{{{~~h  6{{{{{{~~h  6{{{{{{~~h  6{{{{{{~~h  6{{{{{{~~{{{4K{{{{{~~{{{{{{{{{{xk^",
"^b{{{{{{{{{{~~{{{4K{{{{{~~{{{{{{{{{{~~{{{{{{{{{{~~{{{{{{{{{{~~{{{{{{{{{{~~{{{{{{{{{{~~{{{{{{{{{{~~{{{4K{{{{{~~{{{{{{{{{{xk^",
"^b{{{{{{{{{{~~{{{4K{{{{{~~{{{{{{{{{{~~{{{{{{{{{{~~{{{{{{{{{{~~{{{{{{{{{{~~{{{{{{{{{{~~{{{{{{{{{{~~{{{4K{{{{{~~{{{{{{{{{{xk^",
"^b{{{{{{{{{{~~{{{{{{{{{{~~{{{{{{{{{{~~{{{{{{{{{{~~{{{{{{{{{{~~{{{{{{{{{{~~{{{{{{{{{{~~{{{{{{{{{{~~{{{{{{{{{{~~{{{{{{{{{{xk^",
"^B~~~~~~~~~~RR~~~~~~~~~~RR~~~~~~~~~~RR~~~~~~~~~~RR~~~~~~~~~~RR~~~~~~~~~~RR~~~~~~~~~~RR~~~~~~~~~~RR~~~~~~~~~~RR~~~~~~~~~~bl^",
"^V~~~~~~~~~~RR~~~~~~~~~~RR~~~~~~~~~~RR~~~~~~~~~~RR~~~~~~~~~~RR~~~~~~~~~~RR~~~~~~~~~~RR~~~~~~~~~~RR~~~~~~~~~~RR~~~~~~~~~~bl^",
"^b{{{{{{{{{{~~{{{{{{{{{{~~{{{{{{{{{{~~{{{{{{{{{{~~{{{{{{{{{{~~{{{{{{{{{{~~{{{{{{{{{{~~{{{{{{{{{{~~{{{{{{{{{{~~{{{{{{{{{{xk^",
"^b{{{{{{{{{{~~{{{{{{{{{{~~{{{{{{{{{{~~{{{{{{{{{{~~{{{{{{{{{{~~{{{{{{{{{{~~{{{{{{{{{{~~{{{{{{{{{{~~{{{{{{{{{{~~{{{{{{{{{{xk^",
"^b{{{{{{{{{{~~{{{{{{{{{{~~{{{{{{{{{{~~{{{{{{{{{{~~{{{{{{{{{{~~{{{{{{{{{{~~{{{{{{{{{{~~{{{{{{{{{{~~{{{{{{{{{{~~{{{{{{{{{{xk^",
"^b{{{{{{{{{{~~{{{{{{{{{{~~{{{{{{{{{{~~{{{{{{{{{{~~{{{{{{{{{{~~{{{{{{{{{{~~{{{{{{{{{{~~{{{{{{{{{{~~{{{{{{{{{{~~{{{{{{{{{{xk^",
"^b{{{{{{{{{{~~{{{{{{{{{{~~{{{{{{{{{{~~{{{{{{{{{{~~{{{{{{{{{{~~{{{{{{{{{{~~{{{{{{{{{{~~{{{{{{{{{{~~{{{{{{{{{{~~{{{{{{{{{{xk^",
"^b{{{{{{{{{{~~{{{{{{{{{{~~{{{{{{{{{{~~{{{{{{{{{{~~{{{{{{{{{{~~{{{{{{{{{{~~{{{{{{{{{{~~{{{{{{{{{{~~{{{{{{{{{{~~{{{{{{{{{{xk^",
"^b{{{{{{{{{{~~{{{{{{{{{{~~{{{{{{{{{{~~{{{{{{{{{{~~{{{{{{{{{{~~{{{{{{{{{{~~{{{{{{{{{{~~{{{{{{{{{{~~{{{{{{{{{{~~{{{{{{{{{{xk^",
"^b{{{{{{{{{{~~{{{{{{{{{{~~{{{{{{{{{{~~{{{{{{{{{{~~{{{{{{{{{{~~{{{{{{{{{{~~{{{{{{{{{{~~{{{{{{{{{{~~{{{{{{{{{{~~{{{{{{{{{{xk^",
"^b{{{{{{{{{{~~{{{{{{{{{{~~{{{{{{{{{{~~{{{{{{{{{{~~{{{{{{{{{{~~{{{{{{{{{{~~{{{{{{{{{{~~{{{{{{{{{{~~{{{{{{{{{{~~{{{{{{{{{{xk^",
"^b{{{{{{{{{{~~{{{{{{{{{{~~{{{{{{{{{{~~{{{{{{{{{{~~{{{{{{{{{{~~{{{{{{{{{{~~{{{{{{{{{{~~{{{{{{{{{{~~{{{{{{{{{{~~{{{{{{{{{{xk^",
"^dzxxxxxxxxxbbxxzxxxxxxxbbxxxxxxzxxxbbxxxxxxxxxxnbxxxxxxxxxxbnxxzxxxxxxxbnxxxxxxzxxxbbxxxxxxxxxxnbxxxxxxxxxxbbxxzxxxxxxxek^",
"^zkkkkkkkkkkzzkkkkkkkkkkllkkkkkkkkkklzkkkkkkkkkkllkkkkkkkkkklzkkkkkkkkkkllkkkkkkkkkklzkkkkkkkkkkllkkkkkkkkkklzkkkkkkkkkkk^^",
"^^^^^^^^^^^^^^^^^^^^^^^^^^^^^^^^^^/^^^^^^^^^^^^^^^^^^^^^^^^^^^^^^^/^^^^^^^/^^^^^^^/^^^^^^^^^^^^^^^^^^^^^^^^^^^^^^^^^^^^^^^^"
};
