/* XPM */
const char *Arrow_xpm[] = {
/* columns rows colors chars-per-pixel */
"123 122 80 1 ",
"  c black",
". c #040404",
"X c gray2",
"o c #060606",
"O c #070707",
"+ c #131313",
"@ c #151515",
"# c gray9",
"$ c #191919",
"% c gray10",
"& c #1D1D1D",
"* c gray12",
"= c #252525",
"- c #272727",
"; c gray16",
": c gray20",
"> c #343434",
", c #353535",
"< c #393939",
"1 c gray23",
"2 c #3F3F3F",
"3 c gray25",
"4 c gray27",
"5 c gray29",
"6 c #4C4C4C",
"7 c gray31",
"8 c gray32",
"9 c #535353",
"0 c #555555",
"q c #5A5D5D",
"w c gray38",
"e c #737576",
"r c #767676",
"t c #777777",
"y c gray50",
"u c #818181",
"i c gray53",
"p c #868888",
"a c #898B8C",
"s c #8F9192",
"d c gray57",
"f c #909292",
"g c #919393",
"h c #939393",
"j c gray58",
"k c gray59",
"l c #9D9D9E",
"z c #9C9E9E",
"x c #9D9E9E",
"c c #A5A5A6",
"v c #A5A6A6",
"b c gray65",
"n c gray66",
"m c gray69",
"M c gray70",
"N c #B4B4B4",
"B c gray71",
"V c #B6B6B6",
"C c gray",
"Z c #CBCBCB",
"A c #CDCDCD",
"S c gray81",
"D c #D0D0D0",
"F c #D2D2D2",
"G c #D7D7D7",
"H c #D8D8D8",
"J c gray85",
"K c #DADADA",
"L c gainsboro",
"P c #DDDDDD",
"I c gray89",
"U c #E9E9E9",
"Y c gray92",
"T c gray93",
"R c #EFEFEF",
"E c #EFF0F1",
"W c gray96",
"Q c #F6F6F6",
"! c gray99",
"~ c white",
/* pixels */
"EEEEEEEEEEEEEWTEEEEEEEEEERWEEEEEEEEEEWTEEEEEEEEEEEEEEEEEEEEEERWETEEEEEEEEEEEEEEEEEEEEWTETEEEEEEEEEEETEEEEEEEEEEEEEEEEEEEEEE",
"EpllllllllllvvllllllllllvvllllllllllvvllllllllllvvllllllllllvvllllllllllvvllllllllllvvllllllllllcvllllllllllvvllllllllllehE",
"El~~~~~~~~~~TE~~~~~~~~~~ET~~~~~~~~~~TE~~~~~~~~~~TW~~~~~~~~~~ET~~~~~~~~~~TW~~~~~~~~~~TE~~~~~~~~~~TE~~~~~~~~~~TW~~~~~~~~~~gaE",
"El~~~~~~~~~~WT~~~~~~~~~~TT~~~~~~~~~~WT~~~~~~~~~~TT~~~~~~~~~~TT~~~~~~~~~~TT~~~~~~~~~~WT~~~~~~~~~~WT~~~~~~~~~~TT~~~~~~~~~~gpE",
"El~~~~~~~~~~TW~~~~~~~~~~RR~~~~~~~~~~TW~~~~~~~~~~TW~~~~~~~~~~RR~~~~~~~~~~TW~~~~~~~~~~TW~~~~~~~~~~TT~~~~~~~~~~TT~~~~~~~~~~gaE",
"El~~~~~~~~~~TT~~~~~~~~~~RR~~~~~~~~~~TT~~~~~~~~~~TT~~~~~~~~~~RR~~~~~~~~~~TT~~~~~~~~~~TT~~~~~~~~~~WT~~~~~~~~~~WT~~~~~~~~~~gaE",
"El~~~~~~~~~~TT~~~~~~~~~~RR~~~~~~~~~~TT~~~~~~~~~~TT~~~~~~~~~~TW~~~~~~~~~~TT~~~~~~~~~~TT~~~~~~~~~~TW~~~~~~~~~~TW~~~~~~~~~~gaE",
"El~~~~~~~~~~WT~~~~~~~~~~RR~~~~~~~~~~WT~~~~~~~~~~WT~~~~~~~~~~TT~~~~~~~~~~WT~~~~~~~~~~WT~~~~~~~~~~TT~~~~~~~~~~TT~~~~~~~~~~gaE",
"Tl~~~~~~~~~~TW~~~~~~~~~~TW~~~~~~~~~~TW~~~~~~~~~~TW~~~~~~~~~~TT~~~~~~~~~~WT~~~~~~~~~~TW~~~~~~~~~~TW~~~~~~~~~~TT~~~~~~~~~~gaE",
"El~~~~~~~~~~TT~~~~~~~~~~TT~~~~~~~~~~TT~~~~~~~~~~TT~~~~~~~~~~WT~~~~~~~~~~TT~~~~~~~~~~TT~~~~~~~~~~TT~~~~~~~~~~WT~~~~~~~~~~gaE",
"El~~~~~~~~~~TT~~~~~~~~~~TW~~~~~~~~~~TW~~~~~~~~~~TW~~~~~~~~~~TW~~~~~~~~~~TT~~~~~~~~~~TW~~~~~~~~~~TW~~~~~~~~~~TW~~~~~~~~~~gaE",
"El~~~~~~~~~~WT~~~~~~~~~~TT~~~~~~~~~~TT~~~~~~~~~~TT~~~~~~~~~~TT~~~~~~~~~~TW~~~~~~~~~~TT~~~~~~~~~~TT~~~~~~~~~~TT~~~~~~~~~~gaE",
"EvTETWTWTTTTIITTTTTTTWTWIITWTTTTTTTWIITWTTTTTWTTIITWTTTTTWTWIITWWTTTWTWTIITTWTTTTTTWIITWTTTWTTTWIITWTTTTTWTWIITWTTTTTWTWlsE",
"EvRTTTTTWTWTIIWTWTWTTTTTIITTWTWTWTTTIITTWTWTTTWTIITTWTWTTTTTIITTTTTWTTTTIITWTTTWWTTTIITTWTTTWTTTIITTWTWTTTTTIITTWTWTTTTTzsE",
"El~~~~~~~~~~TT~~~~~~~~~~TW~~~~~~~~~~TW~~~~~~~~~~TW~~~~~~~~~~TW~~~~~~~~~~WT~~~~~~~~~~TW~~~~~~~~~~TW~~~~~~~~~~TW~~~~~~~~~~gaE",
"El~~~~~~~~~~WT~~~~~~~~~~TT~~~~~~~~~~TT~~W+D~~~~~TT~~~~~~~~~~TT~~~~~~~~~~TT~~~~~~~~~~TT~~~~~~~~~~TT~~~~~~~~~~TT~~~~~~~~~~gaE",
"El~~~~~~~~~~TW~~~~~~~~~~TT~~~~~~~~~~RR~~h49~~~~~TT~~~~~~~~~~TT~~~JQ~~~~~TT~~~~~~~~~~TW~~~JQ~~~~~TW~~~~~~~~~~TW~~~~~~~~~~gaE",
"El~~~~~~~~~~TT~~~~~~~~~~WT~~~~~~~~~~RT~~;Y1D~~~~WT~~~~~~~~~~WT~~~2A~~~~~WT~~~~~~~~~~TT~~~2A~~~~~TT~~~~~~~~~~TT~~~~~~~~~~gaE",
"El~~~~~~~~~~TT~~~~~~~~~~TT~~~~~~~~~~RR~vw~V6~~~~TW~~~~~~~~~~TW~~~2A~~~~~TW~~~~~~~~~~TW~~~2A~~~~~TT~~~~~~~~~~TT~~~~~~~~~~gaE",
"El~~~~~~~~~~WT~~~~~~~~~~WT~~~~~~~~~~RR~:A~~,A~~~TT~~~~~~~~~~TTM##.##5~~~TT~~~~~~~~~~TTM##.+#5~~~WT~~~~~~~~~~WT~~~~~~~~~~gaE",
"El~~~~~~~~~~TW~~~~~~~~~~TT~~~~~~~~~~WTC2~~~M6~~~TW~~~~~~~~~~TT~~~2A~~~~~TWi..6~~~~~~TT~~~2A~~~~~TW~~~~~~~~~~TW~~~~~~~~~~gaE",
"El~~~~~~~~~~TT~~~~~~~~~~WT~~~~~~~~~~TT~~~~~~~~~~TT~~~~~~~~~~WT~~~2D~~~~~TT~~~~~~~~~~WT~~~2A~~~~~TT~~~~~~~~~~TT~~~~~~~~~~gaE",
"El~~~~~~~~~~TW~~~~~~~~~~TT~~~~~~~~~~WT~~~~~~~~~~TT~~~~~~~~~~TW~~~2A~~~~~TT~~~~~~~~~~TT~~~2D~~~~~TW~~~~~~~~~~TW~~~~~~~~~~gaE",
"El~~~~~~~~~~TT~~~~~~~~~~WT~~~~~~~~~~TT~~~~~~~~~~WT~~~~~~~~~~TT~~~~~~~~~~WT~~~~~~~~~~WT~~~~~~~~~~TT~~~~~~~~~~TT~~~~~~~~~~gaE",
"EvRRTTTTTTTWIITTTTTWTTTTIITWTTTTTWTTIITWTTTTTWTTIITWTWTWTWTTIITWTTTTTWTTIITWTWTWTWTTIITWTWTWTTTWIITWTTTTTTTWIITTTTTWTTTTlsE",
"EvRRWTWTWTTTIIWTWTTTWTWTIITTWTWTTTWTIITTWTWTTTWTIITTTTTTTTWTIITTWTWTTTWTIITTTTTTTTWTIITTTTTTWTTTIITTWTWTWTTTIIWTWTTTWTWTlsE",
"El~~~~~~~~~~TT~~~~~~~~~~TW~~~~~~~~~~TW~~~*Y~~~~~TW~~~~~~~~~~TW~~~~~~~~~~TW~~~~~~~~~~TW~~~*Y~~~~~TW~~~~~~~~~~TT~~~~~~~~~~gaE",
"El~~~~~~~~~~WT~~~~~~~~~~TT~~~~~~~~~~TT~~~*Y~~~~~TT~~~~~~~~~~TT~~~~~~~~~~TT~~~~~~~~~~TT~~~*Y~~~~~TT~~~~~~~~~~WT~~~~~~~~~~gaE",
"El~~~~~~~~~~TW~~~~~~~~~~TW~~~~~~~~~~TT~~~*Y~~~~~TT~~~~~~~~~~TT~~~~~~~~~~TT~~~~~~~~~~TT~~~*Y~~~~~TW~~~~~~~~~~TW~~~~~~~~~~gaE",
"El~~~~~~~~~~TT~~~~~~~~~~TT~~~~~~~~~~WT~~~*Y~~~~~WT~~~~~~~~~~WT~~~~~~~~~~WT~~~~~~~~~~WT~~~*Y~~~~~TT~~~~~~~~~~TT~~~~~~~~~~gaE",
"El~~~~~~~~~~TT~~~~~~~~~~TT~~~~~~~~~~TW~~~*Y~~~~~TW~~~~~~~~~~TW~~~~~~~~~~TW~~~~~~~~~~TW~~~*Y~~~~~TT~~~~~~~~~~TT~~~~~~~~~~gaE",
"El~~~~~~~~~~WT~~~~~~~~~~WT~~~~~~~~~~TT~~~*Y~~~~~TT~~~~~~~~~~TT~~~~~~~~~~TT~~~~~~~~~~TT~~~*Y~~~~~WT~~~~~~~~~~WT~~~~~~~~~~gaE",
"El~~~~~~~~~~TW~~~~~~~~~~TW~~~~~~~~~~TT~~~*Y~~~~~TW~~~~~~~~~~TW~~~~~~~~~~TT~~~~~~~~~~TT~~~*Y~~~~~TW~~~~~~~~~~TW~~~~~~~~~~gaE",
"El~~~~~~~~~~TT~~~~~~~~~~TT~~~~~~~~~~WT~~~*Y~~~~~TT~~~~~~~~~~TT~~~~~~~~~~WT~~~~~~~~~~WT~~~*Y~~~~~TT~~~~~~~~~~TT~~~~~~~~~~gaE",
"El~~~~~~~~~~TW~~~~~~~~~~TW~~~~~~~~~~TW~~~*Y~~~~~TT~~~~~~~~~~TT~~~~~~~~~~TW~~~~~~~~~~TW~~~*Y~~~~~TW~~~~~~~~~~TW~~~~~~~~~~gaE",
"El~~~~~~~~~~TT~~~~~~~~~~TT~~~~~~~~~~TT~~~*Y~~~~~WT~~~~~~~~~~WT~~~~~~~~~~TT~~~~~~~~~~TT~~~*Y~~~~~TT~~~~~~~~~~TT~~~~~~~~~~gaE",
"EvRRTTTTTTTWIITTTTTWTTTTIITWTTTTTWTWIITWT*LWTWTWIITWTTTWTTTTIITTTTTTTWTWIITTTWTTTWTWIITWT*LWTWTWIITWTTTTTTTWIITTTTTWTTTTzsE",
"EvRRWTWTWTTTIIWTWTTTWTWTIITTWTWTTTTTIITTT*LTTTTTIITTWTTTWTWTIIWTWTWTTTTTIIWTTTWTTTTTIITTT*LTTTTTIITTWTWTWTTTIIWTWTTTWTWTzgE",
"El~~~~~~~~~~TT~~~~~~~~~~TW~~~~~~~~~~TW~~~.J~~~~~TW~~~~~~~~~~TT~~~~~~~~~~TT~~~~~~~~~~TW~~~.J~~~~~TW~~~~~~~~~~TT~~~~~~~~~~gaE",
"El~~~~~~~~~~WT~~~~~~~~~~TT~~~~~~~~~~TT~~~*Y~~~~~TT~~~~~~~~~~WT~~~~~~~~~~WT~~~~~~~~~~TT~~~*Y~~~~~TT~~~~~~~~~~WT~~~~~~~~~~gaE",
"El~~~~~~~~~~TW~~~~~~~~~~TT~~~~~~~~~~TT~~~*Y~~~~~TT~~~~~~~~~~TW~~~~~~~~~~TW~~~~~~~~~~TT~~~*Y~~~~~TW~~~~~~~~~~TW~~~~~~~~~~gaE",
"El~~~~~~~~~~TT~~~~~~~~~~WT~~~~~~~~~~WT~~~*Y~~~~~WT~~~~~~~~~~TT~~~~~~~~~~TT~~~~~~~~~~WT~~~*Y~~~~~TT~~~~~~~~~~TT~~~~~~~~~~gaE",
"El~~~~~~~~~~TT~~~~~~~~~~TT~~~~~~~~~~TT~~~*Y~~~~~TT~~~~~~~~~~TT~~~~~~~~~~TW~~~~~~~~~~TT~~~*Y~~~~~TT~~~~~~~~~~TT~~~~~~~~~~gaE",
"El~~~~~~~~~~WT~~~~~~~~~~WT~~~~~~~~~~WT~~~*Y~~~~~WT~~~~~~~~~~WT~~~~~~~~~~TT~~~~~~~~~~WT~~~*Y~~~~~WT~~~~~~~~~~WT~~~~~~~~~~gaE",
"El~~~~~~~~~~TW~~~~~~~~~~TT~~~~~~~~~~TW~~~*Y~~~~~TW~~~~~~~~~~TW~~~~~~~~~~TT~~~~~~~~~~TW~~~*Y~~~~~TW~~~~~~~~~~TW~~~~~~~~~~gaE",
"El~~~~~~~~~~TT~~~~~~~~~~WT~~~~~~~~~~TT~~~*Y~~~~~TT~~~~~~~~~~TT~~~~~~~~~~WT~~~~~~~~~~TT~~~*Y~~~~~TT~~~~~~~~~~TT~~~~~~~~~~gaE",
"El~~~~~~~~~~TW~~~~~~~~~~TT~~~~~~~~~~TT~~~*Y~~~~~TT~~~~~~~~~~TT~~~~~~~~~~TW~~~~~~~~~~TT~~~*Y~~~~~TW~~~~~~~~~~TW~~~~~~~~~~gaE",
"El~~~~~~~~~~TT~~~~~~~~~~WT~~~~~~~~~~WT~~~*Y~~~~~WT~~~~~~~~~~WT~~~~~~~~~~TT~~~~~~~~~~WT~~~*Y~~~~~TT~~~~~~~~~~TT~~~~~~~~~~gaE",
"EvRRRRRRRRTTIITWTTTTTWTTIITWTTTTTWTWIITWT*JWWTWTIITTTWTWTTTWIITTTTTTTWTTIITWTTTTTWTWIITWT*LTTTTTIITWTTTTTWTTIITWTTTTTWTTlsE",
"EvRRRTRRRRWTIITTWTWTTTWTIITTWTWTTTTTIITTT*JTTTTTIIWTTTTTWTTTIIWTWTWTTTWTIITTWTWTTTTTIITTT*LTWTWTIITTWTWTTTWTIITTWTWTTTWTlsE",
"El~~~~~~~~~~TW~~~~~~~~~~TW~~~~~~~~~~TW~~~.G~~~~~TT~~~~~~~~~~TT~~~~~~~~~~TW~~~~~~~~~~TW~~~.G~~~~~TW~~~~~~~~~~TW~~~~~~~~~~gaE",
"El~~~~~~~~~~TT~~~~~~~~~~TT~~~~~~~~~~TT~~~*Y~~~~~WT~~~~~~~~~~WT~~~~~~~~~~TT~~~~~~~~~~TT~~~*Y~~~~~TT~~~~~~~~~~TT~~~~~~~~~~gaE",
"El~~~~~~~~~~TT~~~~~~~~~~TW~~~~~~~~~~TT~~~*Y~~~~~TT~~~~~~~~~~TW~~~~~~~~~~TW~~~~~~~~~~TT~~~*Y~~~~~TW~~~~~~~~~~TT~~~~~~~~~~gaE",
"El~~~~~~~~~~WT~~~~~~~~~~TT~~~~~~~~~~WT~~~*Y~~~~~WT~~~~~~~~~~TT~~~~~~~~~~TT~~~~~~~~~~WT~~~*Y~~~~~TT~~~~~~~~~~WT~~~~~~~~~~gaE",
"El~~~~~~~~~~TW~~~~~~~~~~TT~~~~~~~~~~TT~~~*Y~~~~~TW~~~~~~~~~~TT~~~~~~~~~~TT~~~~~~~~~~TT~~~*Y~~~~~TT~~~~~~~~~~TW~~~~~~~~~~gaE",
"El~~~~~~~~~~TT~~~~~~~~~~WT~~~~~~~~~~WT~~~*Y~~~~~TT~~~~~~~~~~WT~~~~~~~~~~WT~~~~~~~~~~WT~~~*Y~~~~~WT~~~~~~~~~~TT~~~~~~~~~~gaE",
"El~~~~~~~~~~TT~~~~~~~~~~TW~~~~~~~~~~TT~~~*Y~~~~~TT~~~~~~~~~~TW~~~~~~~~~~TW~~~~~~~~~~TT~~~*Y~~~~~TW~~~~~~~~~~TT~~~~~~~~~~gaE",
"El~~~~~~~~~~WT~~~~~~~~~~TT~~~~~~~~~~WT~~~*Y~~~~~WT~~~~~~~~~~TT~~~~~~~~~~TT~~~~~~~~~~WT~~~*Y~~~~~TT~~~~~~~~~~WT~~~~~~~~~~gaE",
"El~~~~~~~~~~TW~~~~~~~~~~TW~~~~~~~~~~TW~~~*Y~~~~~TT~~~~~~~~~~TT~~~~~~~~~~TW~~~~~~~~~~TW~~~*Y~~~~~TW~~~~~~~~~~TW~~~~~~~~~~gaE",
"El~~~~~~~~~~TT~~~~~~~~~~TT~~~~~~~~~~TT~~~*Y~~~~~WT~~~~~~~~~~WT~~~~~~~~~~TT~~~~~~~~~~TT~~~*Y~~~~~TT~~~~~~~~~~TT~~~~~~~~~~gaE",
"EvRRTTTTTWTWIITWTTTTTWTWIITWTTTTTWTWIITWT*JTTTTTIITTTWTWTTTTIITTTTTTTWTWIITWTTTTTWTWIITWT*LWTWTWIITWTTTTTWTWIITWTTTTRRRRzsE",
"EvRRWTWTTTTTIITTWTWTTTTTIITTWTWTTTTTIITTT*LWWTWTIIWTTTTTWTWTIIWTWTWTTTTTIITTWTWTTTTTIITTT*LTTTTTIITTWTWTTTTTIITTWTWTRRRTzgE",
"El~~~~~~~~~~TW~~~~~~~~~~TW~~~~~~~~~~TW~~~.G~~~~~TT~~~~~~~~~~TT~~~~~~~~~~TW~~~~~~~~~~TW~~~.J~~~~~TW~~~~~~~~~~TW~~~~~~~~~~gaE",
"El~~~~~~~~~~TT~~~~~~~~~~TT~~~~~~~~~~TT~~~*Y~~~~~WT~~~~~~~~~~WT~~~~~~~~~~TT~~~~~~~~~~TT~~~*Y~~~~~TT~~~~~~~~~~TT~~~~~~~~~~gaE",
"El~~~~~~~~~~TW~~~~~~~~~~TW~~~~~~~~~~TW~~~*Y~~~~~TW~~~~~~~~~~TW~~~~~~~~~~TT~~~~~~~~~~TT~~~*Y~~~~~TT~~~~~~~~~~TT~~~~~~~~~~gaE",
"El~~~~~~~~~~TT~~~~~~~~~~TT~~~~~~~~~~TT~~~*Y~~~~~TT~~~~~~~~~~TT~~~~~~~~~~WT~~~~~~~~~~WT~~~*Y~~~~~WT~~~~~~~~~~WT~~~~~~~~~~gaE",
"El~~~~~~~~~~TT~~~~~~~~~~TT~~~~~~~~~~TT~~~*Y~~~~~TT~~~~~~~~~~TT~~~~~~~~~~TT~~~~~~~~~~TT~~~*Y~~~~~TT~~~~~~~~~~TT~~~~~~~~~~gaE",
"El~~~~~~~~~~WT~~~~~~~~~~WT~~~~~~~~~~WT~~~*Y~~~~~WT~~~~~~~~~~WT~~~~~~~~~~WT~~~~~~~~~~WT~~~*Y~~~~~WT~~~~~~~~~~WT~~~~~~~~~~gaE",
"El~~~~~~~~~~TW~~~~~~~~~~TW~~~~~~~~~~TW~~~*Y~~~~~TW~~~~~~~~~~TW~~~~~~~~~~TT~~~~~~~~~~TW~~~*Y~~~~~TT~~~~~~~~~~TW~~~~~~~~~~gaE",
"El~~~~~~~~~~TT~~~~~~~~~~TT~~~~~~~~~~TT~~~*Y~~~~~TT~~~~~~~~~~TT~~~~~~~~~~WT~~~~~~~~~~TT~~~*Y~~~~~WT~~~~~~~~~~TT~~~~~~~~~~gaE",
"El~~~~~~~~~~TW~~~~~~~~~~TW~~~~~~~~~~TW~~~*Y~~~~~TW~~~~~~~~~~TW~~~~~~~~~~TT~~~~~~~~~~TT~~~*Y~~~~~TT~~~~~~~~~~TT~~~~~~~~~~gaE",
"El~~~~~~~~~~TT~~~~~~~~~~TT~~~~~~~~~~TT~~~*Y~~~~~TT~~~~~~~~~~TT~~~~~~~~~~WT~~~~~~~~~~WT~~~*Y~~~~~WT~~~~~~~~~~WT~~~~~~~~~~gaE",
"EvRRRRRRRRRRIITTTWTWTWTWIITTTTTWTTTTIITTT*LTTTTTIITWTTTTTTTWIITTTTTWTTTTIITWTTTTTTTTIITTT*LWTWTTIITTTWTTTWTWIITWTTTWTTTTlsE",
"EvRRRTRRRRRRIIWTTTTTTTTTIIWTWTTTWTWTIIWTT*LTWTWTIITTWTWTWTTTIIWTWTTTWTWTIITTWTWTWTWTIIWTT*LTTTWTIIWTTTWTTTTTIITTWTTTWTWTlsE",
"El~~~~~~~~~~TT~~~~~~~~~~TT~~~~~~~~~~TT~~~.G~~~~~TW~~~~~~~~~~TT~~~~~~~~~~TW~~~~~~~~~~TT~~~.J~~~~~TT~~~~~~~~~~TW~~~~~~~~~~gaE",
"El~~~~~~~~~~WT~~~~~~~~~~WT~~~~~~~~~~WT~~~*Y~~~~~TT~~~~~~~~~~WT~~~~~~~~~~TT~~~~~~~~~~WT~~~*Y~~~~~WT~~~~~~~~~~TT~~~~~~~~~~gaE",
"El~~~~~~~~~~TW~~~~~~~~~~TW~~~~~~~~~~TW~~~*Y~~~~~TW~~~~~~~~~~TW~~~~~~~~~~TW~~~~~~~~~~TW~~~*Y~~~~~TT~~~~~~~~~~TT~~~~~~~~~~gaE",
"El~~~~~~~~~~TT~~~~~~~~~~TT~~~~~~~~~~TT~~~*Y~~~~~TT~~~~~~~~~~TT~~~~~~~~~~TT~~~~~~~~~~TT~~~*Y~~~~~WT~~~~~~~~~~WT~~~~~~~~~~gaE",
"El~~~~~~~~~~TT~~~~~~~~~~TW~~~~~~~~~~TW~~~*Y~~~~~TT~~~~~~~~~~TT~~~~~~~~~~TT~~~~~~~~~~TW~~~*Y~~~~~TT~~~~~~~~~~TT~~~~~~~~~~gaE",
"El~~~~~~~~~~WT~~~~~~~~~~TT~~~~~~~~~~TT~~~*Y~~~~~WT~~~~~~~~~~WT~~~~~~~~~~WT~~~~~~~~~~TT~~~*Y~~~~~WT~~~~~~~~~~WT~~~~~~~~~~gaE",
"El~~~~~~~~~~TW~~~~~~~~~~TW~~~~~~~~~~TW~~~*Y~~~~~TW~~~~~~~~~~TW~~~~~~~~~~TW~~~~~~~~~~TW~~~*Y~~~~~TT~~~~~~~~~~TT~~~~~~~~~~gaE",
"El~~~~~~~~~~TT~~~~~~~~~~TT~~~~~~~~~~TT~~~*Y~~~~~TT~~~~~~~~~~TT~~~~~~~~~~TT~~~~~~~~~~TT~~~*Y~~~~~WT~~~~~~~~~~WT~~~~~~~~~~gaE",
"El~~~~~~~~~~TW~~~~~~~~~~TT~~~~~~~~~~TT~~~*Y~~~~~TW~~~~~~~~~~TW~~~~~~~~~~TW~~~~~~~~~~TW~~~*Y~~~~~TT~~~~~~~~~~TT~~~~~~~~~~gaE",
"El~~~~~~~~~~TT~~~~~~~~~~WT~~~~~~~~~~WT~~~*Y~~~~~TT~~~~~~~~~~TT~~~~~~~~~~TT~~~~~~~~~~TT~~~*Y~~~~~WT~~~~~~~~~~WT~~~~~~~~~~gaE",
"EvRRTTTTTTTWIITTTWTTTWTTIITWTTTWTTTTIITWT*LWTTTWIITWTTTTTTTWIITTTTTWTTTTIITWTTTTTTTWIITWT*LTTWTTIITTTWTWTWTTIITTTTTWTTTTzsE",
"EvRRWTWTWTTTIIWTTTWTTTWTIITTWTTTWTWTIITTT*LTWTTTIITTWTWTWTTTIIWTWTTTWTWTIITTWTWTWTTTIITTT*LTTTWTIIWTTTTTTTWTIIWTWTTTWTWTzgE",
"El~~~~~~~~~~TT~~~~~~~~~~TW~~~~~~~~~~TW~~~.J~~~~~TW~~~~~~~~~~TT~~~~~~~~~~TW~~~~~~~~~~TW~~~.G~~~~~TT~~~~~~~~~~TT~~~~~~~~~~gaE",
"El~~~~~~~~~~WT~~~~~~~~~~TT~~~~~~~~~~TT~~~*Y~~~~~TT~~~~~~~~~~WT~~~~~~~~~~TT~~~~~~~~~~TT~~~*Y~~~~~WT~~~~~~~~~~WT~~~~~~~~~~gaE",
"El~~~~~~~~~~TW~~~~~~~~~~TW~~~~~~~~~~TW~~~*Y~~~~~TW~~~~~~~~~~TW~~~~~~~~~~TT~~~~~~~~~~TW~~~*Y~~~~~TT~~~~~~~~~~TW~~~~~~~~~~gaE",
"El~~~~~~~~~~TT~~~~~~~~~~TT~~~~~~~~~~TT~~~*Y~~~~~TT~~~~~~~~~~TT~~~~~~~~~~WT~~~~~~~~~~TT~~~*Y~~~~~WT~~~~~~~~~~TT~~~~~~~~~~gaE",
"El~~~~~~~~~~TT~~~~~~~~~~TT~~~~~~~~~~TT~~~*Y~~~~~TT~~~~~~~~~~TT~~~~~~~~~~TT~~~~~~~~~~TW~~~*Y~~~~~TT~~~~~~~~~~TW~~~~~~~~~~gaE",
"El~~~~~~~~~~WT~~~~~~~~~~WT~~~~~~~~~~WT~~~*Y~~~~~WT~~~~~~~~~~WT~~~~~~~~~~WT~~~~~~~~~~TT~~~*Y~~~~~WT~~~~~~~~~~TT~~~~~~~~~~gaE",
"El~~~~~~~~~~TW~~~~~~~~~~TW~~~~~~~~~~TW~~~*Y~~~~~TW~~~~~~~~~~TW~~~~~~~~~~TT~~~~~~~~~~TT~~~*Y~~~~~TT~~~~~~~~~~TT~~~~~~~~~~gaE",
"El~~~~~~~~~~TT~~~~~~~~~~TT~~~~~~~~~~TT~~~*Y~~~~~TT~~~~~~~~~~TT~~~~~~~~~~WT~~~~~~~~~~WT~~~*Y~~~~~WT~~~~~~~~~~WT~~~~~~~~~~gaE",
"El~~~~~~~~~~TW~~~~~~~~~~TW~~~~~~~~~~TW~~~*Y~~~~~TW~~~~~~~~~~TW~~~~~~~~~~TT~~~~~~~~~~TT~~~*Y~~~~~TT~~~~~~~~~~TT~~~~~~~~~~gaE",
"El~~~~~~~~~~TT~~~~~~~~~~TT~~~~~~~~~~TT~~~*Y~~~~~TT~~~~~~~~~~TT~~~~~~~~~~WT~~~~~~~~~~WT~~~*Y~~~~~WT~~~~~~~~~~WT~~~~~~~~~~gaE",
"EvRRRRRRRRTTIITWTTTTTWTTIITWTTTTTTTWIITTT*LWTWTTIITTTWTTTTTWIITTTTTWTTTTIITTTTTWTTTTIITTT*JWWTTTIITTWTTTTTWTIITTTTTTTWTTlsE",
"EvRRRTRRRRWTIITTWTWTTTWTIITTWTWTWTTTIIWTT*LTTTWTIIWTTTWTWTTTIIWTWTTTWTWTIIWTWTTTWTWTIIWTW$JTTTTWIITWTTTWTWTTIITWWTWTTTWTlsE",
"El~~~~~~~~~~TW~~~~~~~~~~TW~~~~~~~~~~TT~~~*Y~~~~~TT~~~~~~~~~~TT~~~~~~~~~~TT~~~~~~~~~~TT~~~*Y~~~~~WT~~~~~~~~~~WT~~~~~~~~~~gaE",
"El~~~~~~~~~~TT~~~~~~~~~~TT~~~~~~~~~~WT~~~~~~~~~~WT~~~~~~~~~~WT~~~~~~~~~~WT~~~~~~~~~~WT~~~~~~~~~~TT~~~~~~~~~~TT~~~~~~~~~~gaE",
"El~~~~~~~~~~TT~~~GQ~~~~~TW~~~~~~~~~~TW~~~JQ~~~~~TT~~~~~~~~~~TW~~~~~~~~~~TW~~~~~~~~~~TW~~~~~~~~~~TT~~~~~~~~~~TT~~~~~~~~~~gaE",
"El~~~~~~~~~~WT~~~2A~~~~~TT~~~~~~~~~~TT~~~2A~~~~~WT~~~~~~~~~~TT~~~~~~~~~~TT~~~~~~~~~~TT:j~~~,h~~~TW~~~~~~~~~~TW~~~~~~~~~~gaE",
"El~~~~~~~~~~TW~~~2A~~~~~TT~~~~~~~~~~TT~~~2A~~~~~TT~~~~~~~~~~TT~~~~~~~~~~TW~~~~~~~~~~TWj1~~J.Y~~~TT~~~~~~~~~~WT~~~~~~~~~~gaE",
"El~~~~~~~~~~TTM##.##5~~~WT~~~~~~~~~~WTM##.+#5~~~WT~~~~~~~~~~WT~~~~~~~~~~TT~~~~~~~~~~TTT.L~u9~~~~TW~~~~~~~~~~TT~~~~~~~~~~gaE",
"El~~~~~~~~~~TT~~~2A~~~~~TTi..6~~~~~~TW~~~2D~~~~~TT~~~~~~~~~~TW~~~~~~~~~~TW~~~~~~~~~~TT~0u~=M~~~~WT~~~~~~~~~~TT~~~~~~~~~~gaE",
"El~~~~~~~~~~WT~~~2A~~~~~WT~~~~~~~~~~TT~~~2A~~~~~WT~~~~~~~~~~TT~~~~~~~~~~TT~~~~~~~~~~WT~M=Z$~~~~~TT~~~~~~~~~~TW~~~~~~~~~~gaE",
"El~~~~~~~~~~TW~~~2A~~~~~TT~~~~~~~~~~TW~~~2A~~~~~TT~~~~~~~~~~TW~~~~~~~~~~TT~~~~~~~~~~TW~!$9r~~~~~TT~~~~~~~~~~WT~~~~~~~~~~gaE",
"El~~~~~~~~~~TT~~~~~~~~~~WT~~~~~~~~~~TT~~~~~~~~~~WT~~~~~~~~~~TT~~~~~~~~~~WT~~~~~~~~~~TT~~r.G~~~~~TW~~~~~~~~~~TT~~~~~~~~~~gaE",
"EvRRTTTTTWTWIITWTWTWTTTTIITTTTTTTTTWIITTTWTWTTTWIITTTWTWTTTWIITTTTTWTTTTIITWTTTWTWTWIITTTWTTTTTTIITTWTTTWTWTIITTTTTTTWTWlsE",
"EvRRWTWTTTTTIITTTTTTWTWTIIWTWTWTWTTTIIWTTTTTWTTTIIWTTTTTWTTTIIWTWTTTWTWTIITTWTTTTTTTIIWTTTWTWTWTIITWTTTWTTTTIITWWTWTTTTTzsE",
"El~~~~~~~~~~TW~~~~~~~~~~TT~~~~~~~~~~TT~~~~~~~~~~TT~~~~~~~~~~TT~~~~~~~~~~TW~~~~~~~~~~TT~~~~~~~~~~WT~~~~~~~~~~WT~~~~~~~~~~gaE",
"El~~~~~~~~~~TT~~~~~~~~~~WT~~~~~~~~~~WT~~~~~~~~~~WT~~~~~~~~~~WT~~~~~~~~~~TT~~~~~~~~~~WT~~~~~~~~~~TT~~~~~~~~~~TT~~~~~~~~~~gaE",
"El~~~~~~~~~~TW~~~~~~~~~~TT~~~~~~~~~~TT~~~~~~~~~~TW~~~~~~~~~~TW~~~~~~~~~~TT~~~~~~~~~~TT~~~~~~~~~~TT~~~~~~~~~~TW~~~~~~~~~~gaE",
"El~~~~~~~~~~TT~~~~~~~~~~WT~~~~~~~~~~WT~~~~~~~~~~TT~~~~~~~~~~TT~~~~~~~~~~WT~~~~~~~~~~WT~~~~~~~~~~TW~~~~~~~~~~TT~~~~~~~~~~gaE",
"El~~~~~~~~~~TT~~~~~~~~~~TT~~~~~~~~~~TW~~~~~~~~~~TT~~~~~~~~~~TT~~~~~~~~~~TT~~~~~~~~~~TW~~~~~~~~~~TT~~~~~~~~~~TT~~~~~~~~~~gaE",
"El~~~~~~~~~~WT~~~~~~~~~~WT~~~~~~~~~~TT~~~~~~~~~~WT~~~~~~~~~~WT~~~~~~~~~~WT~~~~~~~~~~TT~~~~~~~~~~TW~~~~~~~~~~WT~~~~~~~~~~gaE",
"El~~~~~~~~~~TW~~~~~~~~~~TT~~~~~~~~~~TT~~~~~~~~~~TW~~~~~~~~~~TW~~~~~~~~~~TT~~~~~~~~~~TT~~~~~~~~~~WT~~~~~~~~~~RR~~~~~~~~~~gaE",
"El~~~~~~~~~~TT~~~~~~~~~~WT~~~~~~~~~~WT~~~~~~~~~~TT~~~~~~~~~~TT~~~~~~~~~~WT~~~~~~~~~~WT~~~~~~~~~~TT~~~~~~~~~~RT~~~~~~~~~~gaE",
"El~~~~~~~~~~TW~~~~~~~~~~TT~~~~~~~~~~TW~~~~~~~~~~TW~~~~~~~~~~TW~~~~~~~~~~TT~~~~~~~~~~TW~~~~~~~~~~TT~~~~~~~~~~RR~~~~~~~~~~gaE",
"El~~~~~~~~~~TT~~~~~~~~~~WT~~~~~~~~~~TT~~~~~~~~~~TT~~~~~~~~~~TT~~~~~~~~~~WT~~~~~~~~~~TT~~~~~~~~~~TW~~~~~~~~~~RR~~~~~~~~~~gaE",
"EeshsgggggggzzgghhsggggglzgggggghhsgzzggggggggggllgggggggggglzgghhsggggglzgggggghsggzzggggggggggllgggggggggglzgghhsgggggqaE",
"EhaaaaaaaaaassaaaaaaaaaassaaaaaaaaaassaaaaaaaaaassaaaaaaaaaasgaaaaaaaaaassaaaaaaaaaassaaaaaaaaaassaaaaaaaaaassaaaaaaaaaaaEE"
};
