/* XPM */
const char *Class_xpm[] = {
/* columns rows colors chars-per-pixel */
"121 122 35 1 ",
"  c black",
". c #040404",
"X c gray2",
"o c #131313",
"O c gray9",
"+ c #1D1D1D",
"@ c gray12",
"# c #3F3F3F",
"$ c gray29",
"% c gray31",
"& c #5A5D5D",
"* c #737576",
"= c gray53",
"- c #868888",
"; c #898B8C",
": c #8F9192",
"> c #909292",
", c #919393",
"< c #9D9D9E",
"1 c #9C9E9E",
"2 c #9D9E9E",
"3 c #A5A5A6",
"4 c #A5A6A6",
"5 c gray65",
"6 c gray70",
"7 c gray81",
"8 c #D8D8D8",
"9 c gray85",
"0 c gainsboro",
"q c gray89",
"w c gray92",
"e c #EFEFEF",
"r c #EFF0F1",
"t c #F6F6F6",
"y c white",
/* pixels */
"-<<<<<<<<<<44<<<<<<<<<<44<<<<<<<<<<44<<<<<<<<<<44<<<<<<<<<<44<<<<<<<<<<44<<<<<<<<<<44<<<<<<<<<<44<<<<<<<<<<44<<<<<<<<<<*>",
"<yyyyyyyyyyeeyyyyyyyyyyeeyyyyyyyyyyeeyyyyyyyyyyeeyyyyyyyyyyeeyyyyyyyyyyeeyyyyyyyyyyeeyyyyyyyyyyeeyyyyyyyyyyeeyyyyyyyyyy,;",
"<yyyyyyyyyyeeyyyyyyyyyyeeyyyyyyyyyyeeyyyyyyyyyyeeyyyyyyyyyyeeyyyyyyyyyyeeyyyyyyyyyyeeyyyyyyyyyyeeyyyyyyyyyyeeyyyyyyyyyy,;",
"<yyyyyyyyyyeeyyyyyyyyyyeeyyyyyyyyyyeeyyyyyyyyyyeeyyyyyyyyyyeeyyyyyyyyyyeeyyyyyyyyyyeeyyyyyyyyyyeeyyyyyyyyyyeeyyyyyyyyyy>;",
"<yyyyyyyyyyeeyyyyyyyyyyeeyyyyyyyyyyeeyyyyyyyyyyeeyyyyyyyyyyeeyyyyyyyyyyeeyyyyyyyyyyeeyyyyyyyyyyeeyyyyyyyyyyeeyyyyyyyyyy,;",
"<yyyyyyyyyyeeyyyyyyyyyyeeyyyyyyyyyyeeyyyyyyyyyyeeyyyyyyyyyyeeyyyyyyyyyyeeyyyyyyyyyyeeyyyyyyyyyyeeyyyyyyyyyyeeyyyyyyyyyy,;",
"<yyyyyyyyyyeeyyyyyyyyyyeeyyyyyyyyyyeeyyyyyyyyyyeeyyyyyyyyyyeeyyyyyyyyyyeeyyyyyyyyyyeeyyyyyyyyyyeeyyyyyyyyyyeeyyyyyyyyyy>;",
"<yyyyyyyyyyeeyyyyyyyyyyeeyyyyyyyyyyeeyyyyyyyyyyeeyyyyyyyyyyeeyyyyyyyyyyeeyyyyyyyyyyeeyyyyyyyyyyeeyyyyyyyyyyeeyyyyyyyyyy>;",
"<yyyyyyyyyyeeyyyyyyyyyyeeyyyyyyyyyyeeyyyyyyyyyyeeyyyyyyyyyyeeyyyyyyyyyyeeyyyyyyyyyyeeyyyyyyyyyyeeyyyyyyyyyyeeyyyyyyyyyy>;",
"<yyyyyyyyyyeeyyyyyyyyyyeeyyyyyyyyyyeeyyyyyyyyyyeeyyyyyyyyyyeeyyyyyyyyyyeeyyyyyyyyyyeeyyyyyyyyyyeeyyyyyyyyyyeeyyyyyyyyyy:;",
"<yyyyyyyyyyeeyyyyyyyyyyeeyyyyyyyyyyeeyyyyyyyyyyeeyyyyyyyyyyeeyyyyyyyyyyeeyyyyyyyyyyeeyyyyyyyyyyeeyyyyyyyyyyeeyyyyyyyyyy:;",
"4eeeeeeeeeeqqeeeeeeeeeeqqeeeeeeeeeeqqeeeeeeeeeeqqeeeeeeeeeeqqeeeeeeeeeeqqeeeeeeeeeeqqeeeeeeeeeeqqeeeeeeeeeeqqeeeeeeeeee1:",
"4eeeeeeeeeeqqeeeeeeeeeeqqeeeeeeeeeeqqeeeeeeeeeeqqeeeeeeeeeeqqeeeeeeeeeeqqeeeeeeeeeeqqeeeeeeeeeeqqeeeeeeeeeeqqeeeeeeeeet<>",
"<yyyyyyyyyyeeyyyyyyyyyyeeyyyyyyyyyyeeyyyyyyyyyyeeyyyyyyyyyyeeyyyyyyyyyyeeyyyyyyyyyyeeyyyyyyyyyyeeyyyyyyyyyyeeyyyyyyyyyy,;",
"<yyyyyyyyyyeeyyyyyyyyyyeeyyyyyyyyyyeeyyyyyyyyyyeeyyyyyyyyyyeeyyyyyyyyyyeeyyyyyyyyyyeeyyyyyyyyyyeeyyyyyyyyyyeeyyyyyyyyyy>;",
"<yyyyyyyyyyeeyyy8tyyyyyeeyyyyyyyyyyeeyyyyyyyyyyeeyyyyyyyyyyeeyyyyyyyyyyeeyyyyyyyyyyeeyyyyyyyyyyeeyyy8tyyyyyeeyyyyyyyyyy,;",
"<yyyyyyyyyyeeyyy#7yyyyyeeyyyyyyyyyyeeyyyyyyyyyyeeyyyyyyyyyyeeyyyyyyyyyyeeyyyyyyyyyyeeyyyyyyyyyyeeyyy#7yyyyyeeyyyyyyyyyy>;",
"<yyyyyyyyyyeeyyy#7yyyyyeeyyyyyyyyyyeeyyyyyyyyyyeeyyyyyyyyyyeeyyyyyyyyyyeeyyyyyyyyyyeeyyyyyyyyyyeeyyy#7yyyyyeeyyyyyyyyyy,;",
"<yyyyyyyyyyee6OOXoO$yyyeeyyyyyyyyyyeeyyyyyyyyyyeeyyyyyyyyyyeeyyyyyyyyyyeeyyyyyyyyyyeeyyyyyyyyyyee6OOXoO$yyyeeyyyyyyyyyy>;",
"<yyyyyyyyyyeeyyy#7yyyyyee=  %yyyyyyee=  %yyyyyyee=  %yyyyyyee=  %yyyyyyee=  %yyyyyyee=  %yyyyyyeeyyy#7yyyyyeeyyyyyyyyyy,;",
"<yyyyyyyyyyeeyyy#7yyyyyeeyyyyyyyyyyeeyyyyyyyyyyeeyyyyyyyyyyeeyyyyyyyyyyeeyyyyyyyyyyeeyyyyyyyyyyeeyyy#7yyyyyeeyyyyyyyyyy>;",
"<yyyyyyyyyyeeyyy#7yyyyyeeyyyyyyyyyyeeyyyyyyyyyyeeyyyyyyyyyyeeyyyyyyyyyyeeyyyyyyyyyyeeyyyyyyyyyyeeyyy#7yyyyyeeyyyyyyyyyy,;",
"<yyyyyyyyyyeeyyyyyyyyyyeeyyyyyyyyyyeeyyyyyyyyyyeeyyyyyyyyyyeeyyyyyyyyyyeeyyyyyyyyyyeeyyyyyyyyyyeeyyyyyyyyyyeeyyyyyyyyyy>;",
"4eeeeeeeeeeqqeeeeeeeeeeqqeeeeeeeeeeqqeeeeeeeeeeqqeeeeeeeeeeqqeeeeeeeeeeqqeeeeeeeeeeqqeeeeeeeeeeqqeeeeeeeeeeqqeeeeeeeeer<>",
"4eeeeeeeeeeqqeeeeeeeeeeqqeeeeeeeeeeqqeeeeeeeeeeqqeeeeeeeeeeqqeeeeeeeeeeqqeeeeeeeeeeqqeeeeeeeeeeqqeeeeeeeeeeqqeeeeeeeeee<>",
"<yyyyyyyyyyeeyyy@wyyyyyeeyyyyyyyyyyeeyyyyyyyyyyeeyyyyyyyyyyeeyyyyyyyyyyeeyyyyyyyyyyeeyyyyyyyyyyeeyyy@wyyyyyeeyyyyyyyyyy>;",
"<yyyyyyyyyyeeyyy@wyyyyyeeyyyyyyyyyyeeyyyyyyyyyyeeyyyyyyyyyyeeyyyyyyyyyyeeyyyyyyyyyyeeyyyyyyyyyyeeyyy@wyyyyyeeyyyyyyyyyy,;",
"<yyyyyyyyyyeeyyy@wyyyyyeeyyyyyyyyyyeeyyyyyyyyyyeeyyyyyyyyyyeeyyyyyyyyyyeeyyyyyyyyyyeeyyyyyyyyyyeeyyy@wyyyyyeeyyyyyyyyyy,;",
"<yyyyyyyyyyeeyyy@wyyyyyeeyyyyyyyyyyeeyyyyyyyyyyeeyyyyyyyyyyeeyyyyyyyyyyeeyyyyyyyyyyeeyyyyyyyyyyeeyyy@wyyyyyeeyyyyyyyyyy>;",
"<yyyyyyyyyyeeyyy@wyyyyyeeyyyyyyyyyyeeyyyyyyyyyyeeyyyyyyyyyyeeyyyyyyyyyyeeyyyyyyyyyyeeyyyyyyyyyyeeyyy@wyyyyyeeyyyyyyyyyy,;",
"<yyyyyyyyyyeeyyy@wyyyyyeeyyyyyyyyyyeeyyyyyyyyyyeeyyyyyyyyyyeeyyyyyyyyyyeeyyyyyyyyyyeeyyyyyyyyyyeeyyy@wyyyyyeeyyyyyyyyyy,;",
"<yyyyyyyyyyeeyyy@wyyyyyeeyyyyyyyyyyeeyyyyyyyyyyeeyyyyyyyyyyeeyyyyyyyyyyeeyyyyyyyyyyeeyyyyyyyyyyeeyyy@wyyyyyeeyyyyyyyyyy>;",
"<yyyyyyyyyyeeyyy@wyyyyyeeyyyyyyyyyyeeyyyyyyyyyyeeyyyyyyyyyyeeyyyyyyyyyyeeyyyyyyyyyyeeyyyyyyyyyyeeyyy@wyyyyyeeyyyyyyyyyy,;",
"<yyyyyyyyyyeeyyy@wyyyyyeeyyyyyyyyyyeeyyyyyyyyyyeeyyyyyyyyyyeeyyyyyyyyyyeeyyyyyyyyyyeeyyyyyyyyyyeeyyy@wyyyyyeeyyyyyyyyyy,;",
"<yyyyyyyyyyeeyyy@wyyyyyeeyyyyyyyyyyeeyyyyyyyyyyeeyyyyyyyyyyeeyyyyyyyyyyeeyyyyyyyyyyeeyyyyyyyyyyeeyyy@wyyyyyeeyyyyyyyyyy>;",
"4eeeeeeeeeeqqeee@0eeeeeqqeeeeeeeeeeqqeeeeeeeeeeqqeeeeeeeeeeqqeeeeeeeeeeqqeeeeeeeeeeqqeeeeeeeeeeqqeee@8eeeeeqqeeeeeeeeer<:",
"4eeeeeeeeeeqqeee@8eeeeeqqeeeeeeeeeeqqeeeeeeeeeeqqeeeeeeeeeeqqeeeeeeeeeeqqeeeeeeeeeeqqeeeeeeeeeeqqeee@8teeeeqqeeeeeeeeee<>",
"<yyyyyyyyyyeeyyy@wyyyyyeeyyyyyyyyyyeeyyyyyyyyyyeeyyyyyyyyyyeeyyyyyyyyyyeeyyyyyyyyyyeeyyyyyyyyyyeeyyy@wyyyyyeeyyyyyyyyyy>;",
"<yyyyyyyyyyeeyyyyyyyyyyeeyyyyyyyyyyeeyyyyyyyyyyeeyyyyyyyyyyeeyyyyyyyyyyeeyyyyyyyyyyeeyyyyyyyyyyeeyyyyyyyyyyeeyyyyyyyyyy,;",
"<yyyyyyyyyyeeyyy8tyyyyyeeyyyyyyyyyyeeyyyyyyyyyyeeyyyyyyyyyyeeyyyyyyyyyyeeyyyyyyyyyyeeyyyyyyyyyyeeyyy8tyyyyyeeyyyyyyyyyy,;",
"<yyyyyyyyyyeeyyy#7yyyyyeeyyyyyyyyyyeeyyyyyyyyyyeeyyyyyyyyyyeeyyyyyyyyyyeeyyyyyyyyyyeeyyyyyyyyyyeeyyy#7yyyyyeeyyyyyyyyyy>;",
"<yyyyyyyyyyeeyyy#7yyyyyeeyyyyyyyyyyeeyyyyyyyyyyeeyyyyyyyyyyeeyyyyyyyyyyeeyyyyyyyyyyeeyyyyyyyyyyeeyyy#7yyyyyeeyyyyyyyyyy,;",
"<yyyyyyyyyyee6OOXoO$yyyeeyyyyyyyyyyeeyyyyyyyyyyeeyyyyyyyyyyeeyyyyyyyyyyeeyyyyyyyyyyeeyyyyyyyyyyee6OO oO$yyyeeyyyyyyyyyy>;",
"<yyyyyyyyyyeeyyy#7yyyyyee=  %yyyyyyee=  %yyyyyyee=  %yyyyyyee=  %yyyyyyee=  %yyyyyyee=  %yyyyyyeeyyy$7yyyyyeeyyyyyyyyyy,;",
"<yyyyyyyyyyeeyyy#7yyyyyeeyyyyyyyyyyeeyyyyyyyyyyeeyyyyyyyyyyeeyyyyyyyyyyeeyyyyyyyyyyeeyyyyyyyyyyeeyyy#7tyyyyeeyyyyyyyyyy>;",
"<yyyyyyyyyyeeyyy#7yyyyyeeyyyyyyyyyyeeyyyyyyyyyyeeyyyyyyyyyyeeyyyyyyyyyyeeyyyyyyyyyyeeyyyyyyyyyyeeyyy#7yyyyyeeyyyyyyyyyy,;",
"<yyyyyyyyyyeeyyyyyyyyyyeeyyyyyyyyyyeeyyyyyyyyyyeeyyyyyyyyyyeeyyyyyyyyyyeeyyyyyyyyyyeeyyyyyyyyyyeeyyyyyyyyyyeeyyyyyyyyyy>;",
"4eeeeeeeeeeqqeeeeeeeeeeqqeeeeeeeeeeqqeeeeeeeeeeqqeeeeeeeeeeqqeeeeeeeeeeqqeeeeeeeeeeqqeeeeeeeeeeqqeeeeeeeeeeqqeeeeeeeeer<:",
"4eeeeeeeeeeqqeeeeeeeeeeqqeeeeeeeeeeqqeeeeeeeeeeqqeeeeeeeeeeqqeeeeeeeeeeqqeeeeeeeeeeqqeeeeeeeeeeqqeeeeeeeeeeqqeeeeeeeeee<>",
"<yyyyyyyyyyeeyyy@wyyyyyeeyyyyyyyyyyeeyyyyyyyyyyeeyyyyyyyyyyeeyyyyyyyyyyeeyyyyyyyyyyeeyyyyyyyyyyeeyyy@wyyyyyeeyyyyyyyyyy,;",
"<yyyyyyyyyyeeyyy@wyyyyyeeyyyyyyyyyyeeyyyyyyyyyyeeyyyyyyyyyyeeyyyyyyyyyyeeyyyyyyyyyyeeyyyyyyyyyyeeyyy@wyyyyyeeyyyyyyyyyy,;",
"<yyyyyyyyyyeeyyy@wyyyyyeeyyyyyyyyyyeeyyyyyyyyyyeeyyyyyyyyyyeeyyyyyyyyyyeeyyyyyyyyyyeeyyyyyyyyyyeeyyy@wyyyyyeeyyyyyyyyyy>;",
"<yyyyyyyyyyeeyyy@wyyyyyeeyyyyyyyyyyeeyyyyyyyyyyeeyyyyyyyyyyeeyyyyyyyyyyeeyyyyyyyyyyeeyyyyyyyyyyeeyyy@wyyyyyeeyyyyyyyyyy,;",
"<yyyyyyyyyyeeyyy@wyyyyyeeyyyyyyyyyyeeyyyyyyyyyyeeyyyyyyyyyyeeyyyyyyyyyyeeyyyyyyyyyyeeyyyyyyyyyyeeyyy@wyyyyyeeyyyyyyyyyy,;",
"<yyyyyyyyyyeeyyy@wyyyyyeeyyyyyyyyyyeeyyyyyyyyyyeeyyyyyyyyyyeeyyyyyyyyyyeeyyyyyyyyyyeeyyyyyyyyyyeeyyy@wyyyyyeeyyyyyyyyyy>;",
"<yyyyyyyyyyeeyyy@wyyyyyeeyyyyyyyyyyeeyyyyyyyyyyeeyyyyyyyyyyeeyyyyyyyyyyeeyyyyyyyyyyeeyyyyyyyyyyeeyyy@wyyyyyeeyyyyyyyyyy>;",
"<yyyyyyyyyyeeyyy@wyyyyyeeyyyyyyyyyyeeyyyyyyyyyyeeyyyyyyyyyyeeyyyyyyyyyyeeyyyyyyyyyyeeyyyyyyyyyyeeyyy@wyyyyyeeyyyyyyyyyy>;",
"<yyyyyyyyyyeeyyy@wyyyyyeeyyyyyyyyyyeeyyyyyyyyyyeeyyyyyyyyyyeeyyyyyyyyyyeeyyyyyyyyyyeeyyyyyyyyyyeeyyy@wyyyyyeeyyyyyyyyyy:;",
"<yyyyyyyyyyeeyyy@wyyyyyeeyyyyyyyyyyeeyyyyyyyyyyeeyyyyyyyyyyeeyyyyyyyyyyeeyyyyyyyyyyeeyyyyyyyyyyeeyyy@wyyyyyeeyyyyyyyyyy:;",
"4eeeeeeeeeeqqeee@8eeeeeqqeeeeeeeeeeqqeeeeeeeeeeqqeeeeeeeeeeqqeeeeeeeeeeqqeeeeeeeeeeqqeeeeeeeeeeqqeee@8eeeeeqqeeeeeeeeee1:",
"4eeeeeeeeeeqqeee@8teeeeqqeeeeeeeeeeqqeeeeeeeeeeqqeeeeeeeeeeqqeeeeeeeeeeqqeeeeeeeeeeqqeeeeeeeeeeqqeee@8teeeeqqeeeeeeeeet<>",
"<yyyyyyyyyyeeyyyX8yyyyyeeyyyyyyyyyyeeyyyyyyyyyyeeyyyyyyyyyyeeyyyyyyyyyyeeyyyyyyyyyyeeyyyyyyyyyyeeyyyX8yyyyyeeyyyyyyyyyy,;",
"<yyyyyyyyyyeeyyy@wyyyyyeeyyyyyyyyyyeeyyyyyyyyyyeeyyyyyyyyyyeeyyyyyyyyyyeeyyyyyyyyyyeeyyyyyyyyyyeeyyy@wyyyyyeeyyyyyyyyyy>;",
"<yyyyyyyyyyeeyyy@wyyyyyeeyyyyyyyyyyeeyyyyyyyyyyeeyyyyyyyyyyeeyyyyyyyyyyeeyyyyyyyyyyeeyyyyyyyyyyeeyyy@wyyyyyeeyyyyyyyyyy,;",
"<yyyyyyyyyyeeyyy@wyyyyyeeyyyyyyyyyyeeyyyyyyyyyyeeyyyyyyyyyyeeyyyyyyyyyyeeyyyyyyyyyyeeyyyyyyyyyyeeyyy@wyyyyyeeyyyyyyyyyy>;",
"<yyyyyyyyyyeeyyy@wyyyyyeeyyyyyyyyyyeeyyyyyyyyyyeeyyyyyyyyyyeeyyyyyyyyyyeeyyyyyyyyyyeeyyyyyyyyyyeeyyy@wyyyyyeeyyyyyyyyyy>;",
"<yyyyyyyyyyeeyyy@wyyyyyeeyyyyyyyyyyeeyyyyyyyyyyeeyyyyyyyyyyeeyyyyyyyyyyeeyyyyyyyyyyeeyyyyyyyyyyeeyyy@wyyyyyeeyyyyyyyyyy>;",
"<yyyyyyyyyyeeyyy@wyyyyyeeyyyyyyyyyyeeyyyyyyyyyyeeyyyyyyyyyyeeyyyyyyyyyyeeyyyyyyyyyyeeyyyyyyyyyyeeyyy@wyyyyyeeyyyyyyyyyy,;",
"<yyyyyyyyyyeeyyy@wyyyyyeeyyyyyyyyyyeeyyyyyyyyyyeeyyyyyyyyyyeeyyyyyyyyyyeeyyyyyyyyyyeeyyyyyyyyyyeeyyy@wyyyyyeeyyyyyyyyyy>;",
"<yyyyyyyyyyeeyyy@wyyyyyeeyyyyyyyyyyeeyyyyyyyyyyeeyyyyyyyyyyeeyyyyyyyyyyeeyyyyyyyyyyeeyyyyyyyyyyeeyyy@wyyyyyeeyyyyyyyyyy,;",
"<yyyyyyyyyyeeyyy@wyyyyyeeyyyyyyyyyyeeyyyyyyyyyyeeyyyyyyyyyyeeyyyyyyyyyyeeyyyyyyyyyyeeyyyyyyyyyyeeyyy@wyyyyyeeyyyyyyyyyy>;",
"3eeeeeeeeeeqqeee+0eeeeeqqeeeeeeeeeeqqeeeeeeeeeeqqeeeeeeeeeeqqeeeeeeeeeeqqeeeeeeeeeeqqeeeeeeeeeeqqeee@0eeeeeqqeeeeeeeeer<>",
"4eeeeeeeeeeqqeee@0eeeeeqqeeeeeeeeeeqqeeeeeeeeeeqqeeeeeeeeeeqqeeeeeeeeeeqqeeeeeeeeeeqqeeeeeeeeeeqqeee@8eeeeeqqeeeeeeeeee<>",
"<yyyyyyyyyyeeyyy 8yyyyyeeyyyyyyyyyyeeyyyyyyyyyyeeyyyyyyyyyyeeyyyyyyyyyyeeyyyyyyyyyyeeyyyyyyyyyyeeyyyX8yyyyyeeyyyyyyyyyy>;",
"<yyyyyyyyyyeeyyy@wyyyyyeeyyyyyyyyyyeeyyyyyyyyyyeeyyyyyyyyyyeeyyyyyyyyyyeeyyyyyyyyyyeeyyyyyyyyyyeeyyy@wyyyyyeeyyyyyyyyyy,;",
"<yyyyyyyyyyeeyyy@wyyyyyeeyyyyyyyyyyeeyyyyyyyyyyeeyyyyyyyyyyeeyyyyyyyyyyeeyyyyyyyyyyeeyyyyyyyyyyeeyyy@wyyyyyeeyyyyyyyyyy,;",
"<yyyyyyyyyyeeyyy@wyyyyyeeyyyyyyyyyyeeyyyyyyyyyyeeyyyyyyyyyyeeyyyyyyyyyyeeyyyyyyyyyyeeyyyyyyyyyyeeyyy@wyyyyyeeyyyyyyyyyy>;",
"<yyyyyyyyyyeeyyy@wyyyyyeeyyyyyyyyyyeeyyyyyyyyyyeeyyyyyyyyyyeeyyyyyyyyyyeeyyyyyyyyyyeeyyyyyyyyyyeeyyy@wyyyyyeeyyyyyyyyyy,;",
"<yyyyyyyyyyeeyyy@wyyyyyeeyyyyyyyyyyeeyyyyyyyyyyeeyyyyyyyyyyeeyyyyyyyyyyeeyyyyyyyyyyeeyyyyyyyyyyeeyyy@wyyyyyeeyyyyyyyyyy,;",
"<yyyyyyyyyyeeyyy@wyyyyyeeyyyyyyyyyyeeyyyyyyyyyyeeyyyyyyyyyyeeyyyyyyyyyyeeyyyyyyyyyyeeyyyyyyyyyyeeyyy@wyyyyyeeyyyyyyyyyy>;",
"<yyyyyyyyyyeeyyy@wyyyyyeeyyyyyyyyyyeeyyyyyyyyyyeeyyyyyyyyyyeeyyyyyyyyyyeeyyyyyyyyyyeeyyyyyyyyyyeeyyy@wyyyyyeeyyyyyyyyyy,;",
"<yyyyyyyyyyeeyyy@wyyyyyeeyyyyyyyyyyeeyyyyyyyyyyeeyyyyyyyyyyeeyyyyyyyyyyeeyyyyyyyyyyeeyyyyyyyyyyeeyyy@wyyyyyeeyyyyyyyyyy,;",
"<yyyyyyyyyyeeyyy@wyyyyyeeyyyyyyyyyyeeyyyyyyyyyyeeyyyyyyyyyyeeyyyyyyyyyyeeyyyyyyyyyyeeyyyyyyyyyyeeyyy@eyyyyyeeyyyyyyyyyy>;",
"4eeeeeeeeeeqqeee@0eeeeeqqeeeeeeeeeeqqeeeeeeeeeeqqeeeeeeeeeeqqeeeeeeeeeeqqeeeeeeeeeeqqeeeeeeeeeeqqeee@8eeeeeqqeeeeeeeeer<:",
"4eeeeeeeeeeqqeee@8eeeeeqqeeeeeeeeeeqqeeeeeeeeeeqqeeeeeeeeeeqqeeeeeeeeeeqqeeeeeeeeeeqqeeeeeeeeeeqqeee@8eeeeeqqeeeeeeeeee<>",
"<yyyyyyyyyyeeyyyX8yyyyyeeyyyyyyyyyyeeyyyyyyyyyyeeyyyyyyyyyyeeyyyyyyyyyyeeyyyyyyyyyyeeyyyyyyyyyyeeyyyX8yyyyyeeyyyyyyyyyy>;",
"<yyyyyyyyyyeeyyy@wyyyyyeeyyyyyyyyyyeeyyyyyyyyyyeeyyyyyyyyyyeeyyyyyyyyyyeeyyyyyyyyyyeeyyyyyyyyyyeeyyy@wyyyyyeeyyyyyyyyyy,;",
"<yyyyyyyyyyeeyyy@wyyyyyeeyyyyyyyyyyeeyyyyyyyyyyeeyyyyyyyyyyeeyyyyyyyyyyeeyyyyyyyyyyeeyyyyyyyyyyeeyyy@wyyyyyeeyyyyyyyyyy,;",
"<yyyyyyyyyyeeyyy@wyyyyyeeyyyyyyyyyyeeyyyyyyyyyyeeyyyyyyyyyyeeyyyyyyyyyyeeyyyyyyyyyyeeyyyyyyyyyyeeyyy@wyyyyyeeyyyyyyyyyy>;",
"<yyyyyyyyyyeeyyy@wyyyyyeeyyyyyyyyyyeeyyyyyyyyyyeeyyyyyyyyyyeeyyyyyyyyyyeeyyyyyyyyyyeeyyyyyyyyyyeeyyy@wyyyyyeeyyyyyyyyyy,;",
"<yyyyyyyyyyeeyyy@wyyyyyeeyyyyyyyyyyeeyyyyyyyyyyeeyyyyyyyyyyeeyyyyyyyyyyeeyyyyyyyyyyeeyyyyyyyyyyeeyyy@wyyyyyeeyyyyyyyyyy>;",
"<yyyyyyyyyyeeyyy@wyyyyyeeyyyyyyyyyyeeyyyyyyyyyyeeyyyyyyyyyyeeyyyyyyyyyyeeyyyyyyyyyyeeyyyyyyyyyyeeyyy@wyyyyyeeyyyyyyyyyy,;",
"<yyyyyyyyyyeeyyy@wyyyyyeeyyyyyyyyyyeeyyyyyyyyyyeeyyyyyyyyyyeeyyyyyyyyyyeeyyyyyyyyyyeeyyyyyyyyyyeeyyy@wyyyyyeeyyyyyyyyyy>;",
"<yyyyyyyyyyeeyyy@wyyyyyeeyyyyyyyyyyeeyyyyyyyyyyeeyyyyyyyyyyeeyyyyyyyyyyeeyyyyyyyyyyeeyyyyyyyyyyeeyyy@wyyyyyeeyyyyyyyyyy,;",
"<yyyyyyyyyyeeyyy@wyyyyyeeyyyyyyyyyyeeyyyyyyyyyyeeyyyyyyyyyyeeyyyyyyyyyyeeyyyyyyyyyyeeyyyyyyyyyyeeyyy@wyyyyyeeyyyyyyyyyy>;",
"3eeeeeeeeeeqqeee@0eeeeeqqeeeeeeeeeeqqeeeeeeeeeeqqeeeeeeeeeeqqeeeeeeeeeeqqeeeeeeeeeeqqeeeeeeeeeeqqeee@0eeeeeqqeeeeeeeeer<:",
"4eeeeeeeeeeqqeee@8teeeeqqeeeeeeeeeeqqeeeeeeeeeeqqeeeeeeeeeeqqeeeeeeeeeeqqeeeeeeeeeeqqeeeeeeeeeeqqeee@8teeeeqqeeeeeeeeee<>",
"<yyyyyyyyyyeeyyy@wyyyyyeeyyyyyyyyyyeeyyyyyyyyyyeeyyyyyyyyyyeeyyyyyyyyyyeeyyyyyyyyyyeeyyyyyyyyyyeeyyy@wyyyyyeeyyyyyyyyyy,;",
"<yyyyyyyyyyeeyyyyyyyyyyeeyyyyyyyyyyeeyyyyyyyyyyeeyyyyyyyyyyeeyyyyyyyyyyeeyyyyyyyyyyeeyyyyyyyyyyeeyyyyyyyyyyeeyyyyyyyyyy,;",
"<yyyyyyyyyyeeyyy8tyyyyyeeyyyyyyyyyyeeyyyyyyyyyyeeyyyyyyyyyyeeyyyyyyyyyyeeyyyyyyyyyyeeyyyyyyyyyyeeyyy8tyyyyyeeyyyyyyyyyy>;",
"<yyyyyyyyyyeeyyy#7yyyyyeeyyyyyyyyyyeeyyyyyyyyyyeeyyyyyyyyyyeeyyyyyyyyyyeeyyyyyyyyyyeeyyyyyyyyyyeeyyy#7yyyyyeeyyyyyyyyyy,;",
"<yyyyyyyyyyeeyyy#7yyyyyeeyyyyyyyyyyeeyyyyyyyyyyeeyyyyyyyyyyeeyyyyyyyyyyeeyyyyyyyyyyeeyyyyyyyyyyeeyyy#7yyyyyeeyyyyyyyyyy,;",
"<yyyyyyyyyyee6OOXoO$yyyeeyyyyyyyyyyeeyyyyyyyyyyeeyyyyyyyyyyeeyyyyyyyyyyeeyyyyyyyyyyeeyyyyyyyyyyee6OOXoO$yyyeeyyyyyyyyyy>;",
"<yyyyyyyyyyeeyyy#7yyyyyee=  %yyyyyyee=  %yyyyyyee=  %yyyyyyee=  %yyyyyyee=  %yyyyyyee=  %yyyyyyeeyyy#7yyyyyeeyyyyyyyyyy,;",
"<yyyyyyyyyyeeyyy#7yyyyyeeyyyyyyyyyyeeyyyyyyyyyyeeyyyyyyyyyyeeyyyyyyyyyyeeyyyyyyyyyyeeyyyyyyyyyyeeyyy#7yyyyyeeyyyyyyyyyy>;",
"<yyyyyyyyyyeeyyy#7yyyyyeeyyyyyyyyyyeeyyyyyyyyyyeeyyyyyyyyyyeeyyyyyyyyyyeeyyyyyyyyyyeeyyyyyyyyyyeeyyy#7yyyyyeeyyyyyyyyyy,;",
"<yyyyyyyyyyeeyyyyyyyyyyeeyyyyyyyyyyeeyyyyyyyyyyeeyyyyyyyyyyeeyyyyyyyyyyeeyyyyyyyyyyeeyyyyyyyyyyeeyyyyyyyyyyeeyyyyyyyyyy>;",
"3eeeeeeeeeeqqeeeeeeeeeeqqeeeeeeeeeeqqeeeeeeeeeeqqeeeeeeeeeeqqeeeeeeeeeeqqeeeeeeeeeeqqeeeeeeeeeeqqeeeeeeeeeeqqeeeeeeeeee1:",
"4eeeeeeeeeeqqeeeeeeeeeeqqeeeeeeeeeeqqeeeeeeeeeeqqeeeeeeeeeeqqeeeeeeeeeeqqeeeeeeeeeeqqeeeeeeeeeeqqeeeeeeeeeeqqeeeeeeeeer<:",
"<yyyyyyyyyyeeyyyyyyyyyyeeyyyyyyyyyyeeyyyyyyyyyyeeyyyyyyyyyyeeyyyyyyyyyyeeyyyyyyyyyyeeyyyyyyyyyyeeyyyyyyyyyyeeyyyyyyyyyy,;",
"<yyyyyyyyyyeeyyyyyyyyyyeeyyyyyyyyyyeeyyyyyyyyyyeeyyyyyyyyyyeeyyyyyyyyyyeeyyyyyyyyyyeeyyyyyyyyyyeeyyyyyyyyyyeeyyyyyyyyyy>;",
"<yyyyyyyyyyeeyyyyyyyyyyeeyyyyyyyyyyeeyyyyyyyyyyeeyyyyyyyyyyeeyyyyyyyyyyeeyyyyyyyyyyeeyyyyyyyyyyeeyyyyyyyyyyeeyyyyyyyyyy,;",
"<yyyyyyyyyyeeyyyyyyyyyyeeyyyyyyyyyyeeyyyyyyyyyyeeyyyyyyyyyyeeyyyyyyyyyyeeyyyyyyyyyyeeyyyyyyyyyyeeyyyyyyyyyyeeyyyyyyyyyy>;",
"<yyyyyyyyyyeeyyyyyyyyyyeeyyyyyyyyyyeeyyyyyyyyyyeeyyyyyyyyyyeeyyyyyyyyyyeeyyyyyyyyyyeeyyyyyyyyyyeeyyyyyyyyyyeeyyyyyyyyyy,;",
"<yyyyyyyyyyeeyyyyyyyyyyeeyyyyyyyyyyeeyyyyyyyyyyeeyyyyyyyyyyeeyyyyyyyyyyeeyyyyyyyyyyeeyyyyyyyyyyeeyyyyyyyyyyeeyyyyyyyyyy>;",
"<yyyyyyyyyyeeyyyyyyyyyyeeyyyyyyyyyyeeyyyyyyyyyyeeyyyyyyyyyyeeyyyyyyyyyyeeyyyyyyyyyyeeyyyyyyyyyyeeyyyyyyyyyyeeyyyyyyyyyy,;",
"<yyyyyyyyyyeeyyyyyyyyyyeeyyyyyyyyyyeeyyyyyyyyyyeeyyyyyyyyyyeeyyyyyyyyyyeeyyyyyyyyyyeeyyyyyyyyyyeeyyyyyyyyyyeeyyyyyyyyyy>;",
"<yyyyyyyyyyeeyyyyyyyyyyeeyyyyyyyyyyeeyyyyyyyyyyeeyyyyyyyyyyeeyyyyyyyyyyeeyyyyyyyyyyeeyyyyyyyyyyeeyyyyyyyyyyeeyyyyyyyyyy,;",
"<yyyyyyyyyyreyyyyyyyyyyeryyyyyyyyyyeeyyyyyyyyyyeeyyyyyyyyyyreyyyyyyyyyyeryyyyyyyyyyeeyyyyyyyyyyeeyyyyyyyyyyreyyyyyyyyyy>;",
"*>,,>>>>,,>1<>,,,>,,>,,<<,>,,>,,,>,<<,>>,,>,,>,<<>,,>,,>,,>1<>,,,>,,>,,<<,>,,>,,,>,<<,,>,,>,,>,<<>,,>>::,,>1<>,,,>,,>,,&;",
">-;;;;;;;;;::;;;;-;;;;;::;;;;;;;;;;:>;;;;;;;;;;:>-;;;;;;;;;::;;;;-;;;;;::;;;;;;;;;;:>;;;;;;;;;;:>-;;;;;;;;;::;;;;-;;;;;;r",
"terrrrrrrrrrrrrrterrrrrrrrrrrrrrrrrrrrrrrrrrrrrrterrrrrrrrrrrrrrterrrrrrrrrrrrrrrrrrrrrrrrrrrrrrterrrrrrrrrrrrrrterrrrrrr"
};
