/* XPM */
const char *Erase_xpm[] = {
/* columns rows colors chars-per-pixel */
"121 121 19 1 ",
"  c #5A5D5D",
". c #737576",
"X c #868888",
"o c #898B8C",
"O c #8F9192",
"+ c #909292",
"@ c #919393",
"# c #9D9D9E",
"$ c #9C9E9E",
"% c #9D9E9E",
"& c #A5A5A6",
"* c #A5A6A6",
"= c gray65",
"- c #C0C0C0",
"; c #DADADA",
": c gray89",
"> c #EFEFEF",
", c #EFF0F1",
"< c white",
/* pixels */
"X##########**##########**##########**##########**##########**##########**##########**##########**##########**##########.+",
"#<<<<<<<<<<>><<<<<<<<<<>><<<<<<<<<<>><<<<<<<<<<>><<<<<<<<<<>><<<<<<<<<<>><<<<<<<<<<>><<<<<<<<<<>><<<<<<<<<<>><<<<<<<<<<@o",
"#<<<<<<<<<<>><<<<<<<<<<>><<<<<<<<<<>><<<<<<<<<<>><<<<<<<<<<>><<<<<<<<<<>><<<<<<<<<<>><<<<<<<<<<>><<<<<<<<<<>><<<<<<<<<<@o",
"#<<<<<<<<<<>><<<<<<<<<<>><<<<<<<<<<>><<<<<<<<<<>><<<<<<<<<<>><<<<<<<<<<>><<<<<<<<<<>><<<<<<<<<<>><<<<<<<<<<>><<<<<<<<<<+o",
"#<<<<<<<<<<>><<<<<<<<<<>><<<<<<<<<<>><<<<<<<<<<>><<<<<<<<<<>><<<<<<<<<<>><<<<<<<<<<>><<<<<<<<<<>><<<<<<<<<<>><<<<<<<<<<@o",
"#<<<<<<<<<<>><<<<<<<<<<>><<<<<<<<<<>><<<<<<<<<<>><<<<<<<<<<>><<<<<<<<<<>><<<<<<<<<<>><<<<<<<<<<>><<<<<<<<<<>><<<<<<<<<<@o",
"#<<<<<<<<<<>><<<<<<<<<<>><<<<<<<<<<>><<<<<<<<<<>><<<<<<<<<<>><<<<<<<<<<>><<<<<<<<<<>><<<<<<<<<<>><<<<<<<<<<>><<<<<<<<<<+o",
"#<<<<<<<<<<>><<<<<<<<<<>><<<<<<<<<<>><<<<<<<<<<>><<<<<<<<<<>><<<<<<<<<<>><<<<<<<<<<>><<<<<<<<<<>><<<<<<<<<<>><<<<<<<<<<@o",
"#<<<<<<<<<<>><<<<<<<<<<>><<<<<<<<<<>><<<<<<<<<<>><<<<<<<<<<>><<<<<<<<<<>><<<<<<<<<<>><<<<<<<<<<>><<<<<<<<<<>><<<<<<<<<<+o",
"#<<<<<<<<<<>><<<<<<<<<<>><<<<<<<<<<>><<<<<<<<<<>><<<<<<<<<<>><<<<<<<<<<>><<<<<<<<<<>><<<<<<<<<<>><<<<<<<<<<>><<<<<<<<<<@o",
"#<<<<<<<<<<>><<<<<<<<<<>><<<<<<<<<<>><<<<<<<<<<>><<<<<<<<<<>><<<<<<<<<<>><<<<<<<<<<>><<<<<<<<<<>><<<<<<<<<<>><<<<<<<<<<@o",
"*>>>>>>>>>>:;::::::::::;;::::::::::;;::::::::::;;::::::::::;;::::::::::;;::::::::::;;::::::::::;;::::::::::;:>>>>>>>>>>#O",
"*>>>>>>>>>>;-::::::--::;;::--::::::--::::::--::;;::--::::::--::::::--::;;::--::::::--::::::--::;;::--::::::-;>>>>>>>>>>#+",
"#<<<<<<<<<<::-<<<<-<<-<>><-<<-<<<<->>-<<<<-<<-<>><-<<-<<<<->>-<<<<-<<-<>><-<<-<<<<->>-<<<<-<<-<>><-<<-<<<<-::<<<<<<<<<<@o",
"#<<<<<<<<<<::<-<<-<<<<->>-<<<<-<<-<>><-<<-<<<<->>-<<<<-<<-<>><-<<-<<<<->>-<<<<-<<-<>><-<<-<<<<->>-<<<<-<<-<::<<<<<<<<<<+o",
"#<<<<<<<<<<::<<--<<<<<<--<<<<<<--<<>><<--<<<<<<--<<<<<<--<<>><<--<<<<<<--<<<<<<--<<>><<--<<<<<<--<<<<<<--<<::<<<<<<<<<<@o",
"#<<<<<<<<<<::<<--<<<<<<--<<<<<<--<<>><<--<<<<<<--<<<<<<--<<>><<--<<<<<<--<<<<<<--<<>><<--<<<<<<--<<<<<<--<<::<<<<<<<<<<+o",
"#<<<<<<<<<<::<-<<-<<<<->>-<<<<-<<-<>><-<<-<<<<->>-<<<<-<<-<>><-<<-<<<<->>-<<<<-<<-<>><-<<-<<<<->>-<<<<-<<-<::<<<<<<<<<<@o",
"#<<<<<<<<<<::-<<<<-<<-<>><-<<-<<<<->>-<<<<-<<-<>><-<<-<<<<->>-<<<<-<<-<>><-<<-<<<<->>-<<<<-<<-<>><-<<-<<<<-::<<<<<<<<<<+o",
"#<<<<<<<<<<:-<<<<<<--<<>><<--<<<<<<--<<<<<<--<<>><<--<<<<<<--<<<<<<--<<>><<--<<<<<<--<<<<<<--<<>><<--<<<<<<-:<<<<<<<<<<@o",
"#<<<<<<<<<<:-<<<<<<--<<>><<--<<<<<<--<<<<<<--<<>><<--<<<<<<--<<<<<<--<<>><<--<<<<<<--<<<<<<--<<>><<--<<<<<<-:<<<<<<<<<<+o",
"#<<<<<<<<<<::-<<<<-<<-<>><-<<-<<<<->>-<<<<-<<-<>><-<<-<<<<->>-<<<<-<<-<>><-<<-<<<<->>-<<<<-<<-<>><-<<-<<<<-::<<<<<<<<<<@o",
"#<<<<<<<<<<::<-<<-<<<<->>-<<<<-<<-<>><-<<-<<<<->>-<<<<-<<-<>><-<<-<<<<->>-<<<<-<<-<>><-<<-<<<<->>-<<<<-<<-<::<<<<<<<<<<+o",
"*>>>>>>>>>>;;>>-->>>>>>-->>>>>>-->>::>>-->>>>>>-->>>>>>-->>::>>-->>>>>>-->>>>>>-->>::>>-->>>>>>-->>>>>>-->>;;>>>>>>>>>,#+",
"*>>>>>>>>>>;;>>-->>>>>>-->>>>>>-->>::>>-->>>>>>-->>>>>>-->>::>>-->>>>>>-->>>>>>-->>::>>-->>>>>>-->>>>>>-->>;;>>>>>>>>>>#+",
"#<<<<<<<<<<::<-<<-<<<<->>-<<<<-<<-<>><-<<-<<<<->>-<<<<-<<-<>><-<<-<<<<->>-<<<<-<<-<>><-<<-<<<<->>-<<<<-<<-<::<<<<<<<<<<+o",
"#<<<<<<<<<<::-<<<<-<<-<>><-<<-<<<<->>-<<<<-<<-<>><-<<-<<<<->>-<<<<-<<-<>><-<<-<<<<->>-<<<<-<<-<>><-<<-<<<<-::<<<<<<<<<<@o",
"#<<<<<<<<<<:-<<<<<<--<<>><<--<<<<<<--<<<<<<--<<>><<--<<<<<<--<<<<<<--<<>><<--<<<<<<--<<<<<<--<<>><<--<<<<<<-:<<<<<<<<<<@o",
"#<<<<<<<<<<:-<<<<<<--<<>><<--<<<<<<--<<<<<<--<<>><<--<<<<<<--<<<<<<--<<>><<--<<<<<<--<<<<<<--<<>><<--<<<<<<-:<<<<<<<<<<+o",
"#<<<<<<<<<<::-<<<<-<<-<>><-<<-<<<<->>-<<<<-<<-<>><-<<-<<<<->>-<<<<-<<-<>><-<<-<<<<->>-<<<<-<<-<>><-<<-<<<<-::<<<<<<<<<<@o",
"#<<<<<<<<<<::<-<<-<<<<->>-<<<<-<<-<>><-<<-<<<<->>-<<<<-<<-<>><-<<-<<<<->>-<<<<-<<-<>><-<<-<<<<->>-<<<<-<<-<::<<<<<<<<<<@o",
"#<<<<<<<<<<::<<--<<<<<<--<<<<<<--<<>><<--<<<<<<--<<<<<<--<<>><<--<<<<<<--<<<<<<--<<>><<--<<<<<<--<<<<<<--<<::<<<<<<<<<<+o",
"#<<<<<<<<<<::<<--<<<<<<--<<<<<<--<<>><<--<<<<<<--<<<<<<--<<>><<--<<<<<<--<<<<<<--<<>><<--<<<<<<--<<<<<<--<<::<<<<<<<<<<@o",
"#<<<<<<<<<<::<-<<-<<<<->>-<<<<-<<-<>><-<<-<<<<->>-<<<<-<<-<>><-<<-<<<<->>-<<<<-<<-<>><-<<-<<<<->>-<<<<-<<-<::<<<<<<<<<<@o",
"#<<<<<<<<<<::-<<<<-<<-<>><-<<-<<<<->>-<<<<-<<-<>><-<<-<<<<->>-<<<<-<<-<>><-<<-<<<<->>-<<<<-<<-<>><-<<-<<<<-::<<<<<<<<<<+o",
"*>>>>>>>>>>;->>>>>>-->>::>>-->>>>>>-->>>>>>-->>::>>-->>>>>>-->>>>>>-->>::>>-->>>>>>-->>>>>>-->>::>>-->>>>>>-;>>>>>>>>>,#O",
"*>>>>>>>>>>;->>>>>>-->>::>>-->>>>>>-->>>>>>-->>::>>-->>>>>>-->>>>>>-->>::>>-->>>>>>-->>>>>>-->>::>>-->>>>>>-;>>>>>>>>>>#+",
"#<<<<<<<<<<::-<<<<-<<-<>><-<<-<<<<->>-<<<<-<<-<>><-<<-<<<<->>-<<<<-<<-<>><-<<-<<<<->>-<<<<-<<-<>><-<<-<<<<-::<<<<<<<<<<+o",
"#<<<<<<<<<<::<-<<-<<<<->>-<<<<-<<-<>><-<<-<<<<->>-<<<<-<<-<>><-<<-<<<<->>-<<<<-<<-<>><-<<-<<<<->>-<<<<-<<-<::<<<<<<<<<<@o",
"#<<<<<<<<<<::<<--<<<<<<--<<<<<<--<<>><<--<<<<<<--<<<<<<--<<>><<--<<<<<<--<<<<<<--<<>><<--<<<<<<--<<<<<<--<<::<<<<<<<<<<@o",
"#<<<<<<<<<<::<<--<<<<<<--<<<<<<--<<>><<--<<<<<<--<<<<<<--<<>><<--<<<<<<--<<<<<<--<<>><<--<<<<<<--<<<<<<--<<::<<<<<<<<<<+o",
"#<<<<<<<<<<::<-<<-<<<<->>-<<<<-<<-<>><-<<-<<<<->>-<<<<-<<-<>><-<<-<<<<->>-<<<<-<<-<>><-<<-<<<<->>-<<<<-<<-<::<<<<<<<<<<@o",
"#<<<<<<<<<<::-<<<<-<<-<>><-<<-<<<<->>-<<<<-<<-<>><-<<-<<<<->>-<<<<-<<-<>><-<<-<<<<->>-<<<<-<<-<>><-<<-<<<<-::<<<<<<<<<<+o",
"#<<<<<<<<<<:-<<<<<<--<<>><<--<<<<<<--<<<<<<--<<>><<--<<<<<<--<<<<<<--<<>><<--<<<<<<--<<<<<<--<<>><<--<<<<<<-:<<<<<<<<<<@o",
"#<<<<<<<<<<:-<<<<<<--<<>><<--<<<<<<--<<<<<<--<<>><<--<<<<<<--<<<<<<--<<>><<--<<<<<<--<<<<<<--<<>><<--<<<<<<-:<<<<<<<<<<+o",
"#<<<<<<<<<<::-<<<<-<<-<>><-<<-<<<<->>-<<<<-<<-<>><-<<-<<<<->>-<<<<-<<-<>><-<<-<<<<->>-<<<<-<<-<>><-<<-<<<<-::<<<<<<<<<<@o",
"#<<<<<<<<<<::<-<<-<<<<->>-<<<<-<<-<>><-<<-<<<<->>-<<<<-<<-<>><-<<-<<<<->>-<<<<-<<-<>><-<<-<<<<->>-<<<<-<<-<::<<<<<<<<<<+o",
"&>>>>>>>>>>;;>>-->>>>>>-->>>>>>-->>::>>-->>>>>>-->>>>>>-->>::>>-->>>>>>-->>>>>>-->>::>>-->>>>>>-->>>>>>-->>;;>>>>>>>>>,#O",
"*>>>>>>>>>>;;>>-->>>>>>-->>>>>>-->>::>>-->>>>>>-->>>>>>-->>::>>-->>>>>>-->>>>>>-->>::>>-->>>>>>-->>>>>>-->>;;>>>>>>>>>>#+",
"#<<<<<<<<<<::<-<<-<<<<->>-<<<<-<<-<>><-<<-<<<<->>-<<<<-<<-<>><-<<-<<<<->>-<<<<-<<-<>><-<<-<<<<->>-<<<<-<<-<::<<<<<<<<<<@o",
"#<<<<<<<<<<::-<<<<-<<-<>><-<<-<<<<->>-<<<<-<<-<>><-<<-<<<<->>-<<<<-<<-<>><-<<-<<<<->>-<<<<-<<-<>><-<<-<<<<-::<<<<<<<<<<@o",
"#<<<<<<<<<<:-<<<<<<--<<>><<--<<<<<<--<<<<<<--<<>><<--<<<<<<--<<<<<<--<<>><<--<<<<<<--<<<<<<--<<>><<--<<<<<<-:<<<<<<<<<<+o",
"#<<<<<<<<<<:-<<<<<<--<<>><<--<<<<<<--<<<<<<--<<>><<--<<<<<<--<<<<<<--<<>><<--<<<<<<--<<<<<<--<<>><<--<<<<<<-:<<<<<<<<<<@o",
"#<<<<<<<<<<::-<<<<-<<-<>><-<<-<<<<->>-<<<<-<<-<>><-<<-<<<<->>-<<<<-<<-<>><-<<-<<<<->>-<<<<-<<-<>><-<<-<<<<-::<<<<<<<<<<@o",
"#<<<<<<<<<<::<-<<-<<<<->>-<<<<-<<-<>><-<<-<<<<->>-<<<<-<<-<>><-<<-<<<<->>-<<<<-<<-<>><-<<-<<<<->>-<<<<-<<-<::<<<<<<<<<<+o",
"#<<<<<<<<<<::<<--<<<<<<--<<<<<<--<<>><<--<<<<<<--<<<<<<--<<>><<--<<<<<<--<<<<<<--<<>><<--<<<<<<--<<<<<<--<<::<<<<<<<<<<@o",
"#<<<<<<<<<<::<<--<<<<<<--<<<<<<--<<>><<--<<<<<<--<<<<<<--<<>><<--<<<<<<--<<<<<<--<<>><<--<<<<<<--<<<<<<--<<::<<<<<<<<<<+o",
"#<<<<<<<<<<::<-<<-<<<<->>-<<<<-<<-<>><-<<-<<<<->>-<<<<-<<-<>><-<<-<<<<->>-<<<<-<<-<>><-<<-<<<<->>-<<<<-<<-<::<<<<<<<<<<@o",
"#<<<<<<<<<<::-<<<<-<<-<>><-<<-<<<<->>-<<<<-<<-<>><-<<-<<<<->>-<<<<-<<-<>><-<<-<<<<->>-<<<<-<<-<>><-<<-<<<<-::<<<<<<<<<<@o",
"&>>>>>>>>>>;->>>>>>-->>::>>-->>>>>>-->>>>>>-->>::>>-->>>>>>-->>>>>>-->>::>>-->>>>>>-->>>>>>-->>::>>-->>>>>>-;>>>>>>>>>>#O",
"*>>>>>>>>>>;->>>>>>-->>::>>-->>>>>>-->>>>>>-->>::>>-->>>>>>-->>>>>>-->>::>>-->>>>>>-->>>>>>-->>::>>-->>>>>>-;>>>>>>>>>>#+",
"#<<<<<<<<<<::-<<<<-<<-<>><-<<-<<<<->>-<<<<-<<-<>><-<<-<<<<->>-<<<<-<<-<>><-<<-<<<<->>-<<<<-<<-<>><-<<-<<<<-::<<<<<<<<<<@o",
"#<<<<<<<<<<::<-<<-<<<<->>-<<<<-<<-<>><-<<-<<<<->>-<<<<-<<-<>><-<<-<<<<->>-<<<<-<<-<>><-<<-<<<<->>-<<<<-<<-<::<<<<<<<<<<+o",
"#<<<<<<<<<<::<<--<<<<<<--<<<<<<--<<>><<--<<<<<<--<<<<<<--<<>><<--<<<<<<--<<<<<<--<<>><<--<<<<<<--<<<<<<--<<::<<<<<<<<<<@o",
"#<<<<<<<<<<::<<--<<<<<<--<<<<<<--<<>><<--<<<<<<--<<<<<<--<<>><<--<<<<<<--<<<<<<--<<>><<--<<<<<<--<<<<<<--<<::<<<<<<<<<<+o",
"#<<<<<<<<<<::<-<<-<<<<->>-<<<<-<<-<>><-<<-<<<<->>-<<<<-<<-<>><-<<-<<<<->>-<<<<-<<-<>><-<<-<<<<->>-<<<<-<<-<::<<<<<<<<<<@o",
"#<<<<<<<<<<::-<<<<-<<-<>><-<<-<<<<->>-<<<<-<<-<>><-<<-<<<<->>-<<<<-<<-<>><-<<-<<<<->>-<<<<-<<-<>><-<<-<<<<-::<<<<<<<<<<+o",
"#<<<<<<<<<<:-<<<<<<--<<>><<--<<<<<<--<<<<<<--<<>><<--<<<<<<--<<<<<<--<<>><<--<<<<<<--<<<<<<--<<>><<--<<<<<<-:<<<<<<<<<<@o",
"#<<<<<<<<<<:-<<<<<<--<<>><<--<<<<<<--<<<<<<--<<>><<--<<<<<<--<<<<<<--<<>><<--<<<<<<--<<<<<<--<<>><<--<<<<<<-:<<<<<<<<<<+o",
"#<<<<<<<<<<::-<<<<-<<-<>><-<<-<<<<->>-<<<<-<<-<>><-<<-<<<<->>-<<<<-<<-<>><-<<-<<<<->>-<<<<-<<-<>><-<<-<<<<-::<<<<<<<<<<@o",
"#<<<<<<<<<<::<-<<-<<<<->>-<<<<-<<-<>><-<<-<<<<->>-<<<<-<<-<>><-<<-<<<<->>-<<<<-<<-<>><-<<-<<<<->>-<<<<-<<-<::<<<<<<<<<<+o",
"&>>>>>>>>>>;;>>-->>>>>>-->>>>>>-->>::>>-->>>>>>-->>>>>>-->>::>>-->>>>>>-->>>>>>-->>::>>-->>>>>>-->>>>>>-->>;;>>>>>>>>>,#+",
"*>>>>>>>>>>;;>>-->>>>>>-->>>>>>-->>::>>-->>>>>>-->>>>>>-->>::>>-->>>>>>-->>>>>>-->>::>>-->>>>>>-->>>>>>-->>;;>>>>>>>>>>#+",
"#<<<<<<<<<<::<-<<-<<<<->>-<<<<-<<-<>><-<<-<<<<->>-<<<<-<<-<>><-<<-<<<<->>-<<<<-<<-<>><-<<-<<<<->>-<<<<-<<-<::<<<<<<<<<<+o",
"#<<<<<<<<<<::-<<<<-<<-<>><-<<-<<<<->>-<<<<-<<-<>><-<<-<<<<->>-<<<<-<<-<>><-<<-<<<<->>-<<<<-<<-<>><-<<-<<<<-::<<<<<<<<<<@o",
"#<<<<<<<<<<:-<<<<<<--<<>><<--<<<<<<--<<<<<<--<<>><<--<<<<<<--<<<<<<--<<>><<--<<<<<<--<<<<<<--<<>><<--<<<<<<-:<<<<<<<<<<@o",
"#<<<<<<<<<<:-<<<<<<--<<>><<--<<<<<<--<<<<<<--<<>><<--<<<<<<--<<<<<<--<<>><<--<<<<<<--<<<<<<--<<>><<--<<<<<<-:<<<<<<<<<<+o",
"#<<<<<<<<<<::-<<<<-<<-<>><-<<-<<<<->>-<<<<-<<-<>><-<<-<<<<->>-<<<<-<<-<>><-<<-<<<<->>-<<<<-<<-<>><-<<-<<<<-::<<<<<<<<<<@o",
"#<<<<<<<<<<::<-<<-<<<<->>-<<<<-<<-<>><-<<-<<<<->>-<<<<-<<-<>><-<<-<<<<->>-<<<<-<<-<>><-<<-<<<<->>-<<<<-<<-<::<<<<<<<<<<@o",
"#<<<<<<<<<<::<<--<<<<<<--<<<<<<--<<>><<--<<<<<<--<<<<<<--<<>><<--<<<<<<--<<<<<<--<<>><<--<<<<<<--<<<<<<--<<::<<<<<<<<<<+o",
"#<<<<<<<<<<::<<--<<<<<<--<<<<<<--<<>><<--<<<<<<--<<<<<<--<<>><<--<<<<<<--<<<<<<--<<>><<--<<<<<<--<<<<<<--<<::<<<<<<<<<<@o",
"#<<<<<<<<<<::<-<<-<<<<->>-<<<<-<<-<>><-<<-<<<<->>-<<<<-<<-<>><-<<-<<<<->>-<<<<-<<-<>><-<<-<<<<->>-<<<<-<<-<::<<<<<<<<<<@o",
"#<<<<<<<<<<::-<<<<-<<-<>><-<<-<<<<->>-<<<<-<<-<>><-<<-<<<<->>-<<<<-<<-<>><-<<-<<<<->>-<<<<-<<-<>><-<<-<<<<-::<<<<<<<<<<+o",
"&>>>>>>>>>>;->>>>>>-->>::>>-->>>>>>-->>>>>>-->>::>>-->>>>>>-->>>>>>-->>::>>-->>>>>>-->>>>>>-->>::>>-->>>>>>-;>>>>>>>>>,#O",
"*>>>>>>>>>>;->>>>>>-->>::>>-->>>>>>-->>>>>>-->>::>>-->>>>>>-->>>>>>-->>::>>-->>>>>>-->>>>>>-->>::>>-->>>>>>-;>>>>>>>>>>#+",
"#<<<<<<<<<<::-<<<<-<<-<>><-<<-<<<<->>-<<<<-<<-<>><-<<-<<<<->>-<<<<-<<-<>><-<<-<<<<->>-<<<<-<<-<>><-<<-<<<<-::<<<<<<<<<<+o",
"#<<<<<<<<<<::<-<<-<<<<->>-<<<<-<<-<>><-<<-<<<<->>-<<<<-<<-<>><-<<-<<<<->>-<<<<-<<-<>><-<<-<<<<->>-<<<<-<<-<::<<<<<<<<<<@o",
"#<<<<<<<<<<::<<--<<<<<<--<<<<<<--<<>><<--<<<<<<--<<<<<<--<<>><<--<<<<<<--<<<<<<--<<>><<--<<<<<<--<<<<<<--<<::<<<<<<<<<<@o",
"#<<<<<<<<<<::<<--<<<<<<--<<<<<<--<<>><<--<<<<<<--<<<<<<--<<>><<--<<<<<<--<<<<<<--<<>><<--<<<<<<--<<<<<<--<<::<<<<<<<<<<+o",
"#<<<<<<<<<<::<-<<-<<<<->>-<<<<-<<-<>><-<<-<<<<->>-<<<<-<<-<>><-<<-<<<<->>-<<<<-<<-<>><-<<-<<<<->>-<<<<-<<-<::<<<<<<<<<<@o",
"#<<<<<<<<<<::-<<<<-<<-<>><-<<-<<<<->>-<<<<-<<-<>><-<<-<<<<->>-<<<<-<<-<>><-<<-<<<<->>-<<<<-<<-<>><-<<-<<<<-::<<<<<<<<<<+o",
"#<<<<<<<<<<:-<<<<<<--<<>><<--<<<<<<--<<<<<<--<<>><<--<<<<<<--<<<<<<--<<>><<--<<<<<<--<<<<<<--<<>><<--<<<<<<-:<<<<<<<<<<@o",
"#<<<<<<<<<<:-<<<<<<--<<>><<--<<<<<<--<<<<<<--<<>><<--<<<<<<--<<<<<<--<<>><<--<<<<<<--<<<<<<--<<>><<--<<<<<<-:<<<<<<<<<<+o",
"#<<<<<<<<<<::-<<<<-<<-<>><-<<-<<<<->>-<<<<-<<-<>><-<<-<<<<->>-<<<<-<<-<>><-<<-<<<<->>-<<<<-<<-<>><-<<-<<<<-::<<<<<<<<<<@o",
"#<<<<<<<<<<::<-<<-<<<<->>-<<<<-<<-<>><-<<-<<<<->>-<<<<-<<-<>><-<<-<<<<->>-<<<<-<<-<>><-<<-<<<<->>-<<<<-<<-<::<<<<<<<<<<+o",
"&>>>>>>>>>>;;>>-->>>>>>-->>>>>>-->>::>>-->>>>>>-->>>>>>-->>::>>-->>>>>>-->>>>>>-->>::>>-->>>>>>-->>>>>>-->>;;>>>>>>>>>,#O",
"*>>>>>>>>>>;;>>-->>>>>>-->>>>>>-->>::>>-->>>>>>-->>>>>>-->>::>>-->>>>>>-->>>>>>-->>::>>-->>>>>>-->>>>>>-->>;;>>>>>>>>>>#+",
"#<<<<<<<<<<::<-<<-<<<<->>-<<<<-<<-<>><-<<-<<<<->>-<<<<-<<-<>><-<<-<<<<->>-<<<<-<<-<>><-<<-<<<<->>-<<<<-<<-<::<<<<<<<<<<@o",
"#<<<<<<<<<<::-<<<<-<<-<>><-<<-<<<<->>-<<<<-<<-<>><-<<-<<<<->>-<<<<-<<-<>><-<<-<<<<->>-<<<<-<<-<>><-<<-<<<<-::<<<<<<<<<<@o",
"#<<<<<<<<<<:-<<<<<<--<<>><<--<<<<<<--<<<<<<--<<>><<--<<<<<<--<<<<<<--<<>><<--<<<<<<--<<<<<<--<<>><<--<<<<<<-:<<<<<<<<<<+o",
"#<<<<<<<<<<:-<<<<<<--<<>><<--<<<<<<--<<<<<<--<<>><<--<<<<<<--<<<<<<--<<>><<--<<<<<<--<<<<<<--<<>><<--<<<<<<-:<<<<<<<<<<@o",
"#<<<<<<<<<<::-<<<<-<<-<>><-<<-<<<<->>-<<<<-<<-<>><-<<-<<<<->>-<<<<-<<-<>><-<<-<<<<->>-<<<<-<<-<>><-<<-<<<<-::<<<<<<<<<<@o",
"#<<<<<<<<<<::<-<<-<<<<->>-<<<<-<<-<>><-<<-<<<<->>-<<<<-<<-<>><-<<-<<<<->>-<<<<-<<-<>><-<<-<<<<->>-<<<<-<<-<::<<<<<<<<<<+o",
"#<<<<<<<<<<::<<--<<<<<<--<<<<<<--<<>><<--<<<<<<--<<<<<<--<<>><<--<<<<<<--<<<<<<--<<>><<--<<<<<<--<<<<<<--<<::<<<<<<<<<<@o",
"#<<<<<<<<<<::<<--<<<<<<--<<<<<<--<<>><<--<<<<<<--<<<<<<--<<>><<--<<<<<<--<<<<<<--<<>><<--<<<<<<--<<<<<<--<<::<<<<<<<<<<+o",
"#<<<<<<<<<<::<-<<-<<<<->>-<<<<-<<-<>><-<<-<<<<->>-<<<<-<<-<>><-<<-<<<<->>-<<<<-<<-<>><-<<-<<<<->>-<<<<-<<-<::<<<<<<<<<<@o",
"#<<<<<<<<<<::-<<<<-<<-<>><-<<-<<<<->>-<<<<-<<-<>><-<<-<<<<->>-<<<<-<<-<>><-<<-<<<<->>-<<<<-<<-<>><-<<-<<<<-::<<<<<<<<<<@o",
"&>>>>>>>>>>;-::::::--::;;::--::::::--::::::--::;;::--::::::--::::::--::;;::--::::::--::::::--::;;::--::::::-;>>>>>>>>>>#@",
"*>>>>>>>>>>:;::::::::::;;::::::::::;;::::::::::;;::::::::::;;::::::::::;;::::::::::;;::::::::::;;::::::::::;:>>>>>>>>>>#O",
"#<<<<<<<<<<>><<<<<<<<<<>><<<<<<<<<<>><<<<<<<<<<>><<<<<<<<<<>><<<<<<<<<<>><<<<<<<<<<>><<<<<<<<<<>><<<<<<<<<<>><<<<<<<<<<@o",
"#<<<<<<<<<<>><<<<<<<<<<>><<<<<<<<<<>><<<<<<<<<<>><<<<<<<<<<>><<<<<<<<<<>><<<<<<<<<<>><<<<<<<<<<>><<<<<<<<<<>><<<<<<<<<<+o",
"#<<<<<<<<<<>><<<<<<<<<<>><<<<<<<<<<>><<<<<<<<<<>><<<<<<<<<<>><<<<<<<<<<>><<<<<<<<<<>><<<<<<<<<<>><<<<<<<<<<>><<<<<<<<<<@o",
"#<<<<<<<<<<>><<<<<<<<<<>><<<<<<<<<<>><<<<<<<<<<>><<<<<<<<<<>><<<<<<<<<<>><<<<<<<<<<>><<<<<<<<<<>><<<<<<<<<<>><<<<<<<<<<+o",
"#<<<<<<<<<<>><<<<<<<<<<>><<<<<<<<<<>><<<<<<<<<<>><<<<<<<<<<>><<<<<<<<<<>><<<<<<<<<<>><<<<<<<<<<>><<<<<<<<<<>><<<<<<<<<<@o",
"#<<<<<<<<<<>><<<<<<<<<<>><<<<<<<<<<>><<<<<<<<<<>><<<<<<<<<<>><<<<<<<<<<>><<<<<<<<<<>><<<<<<<<<<>><<<<<<<<<<>><<<<<<<<<<+o",
"#<<<<<<<<<<>><<<<<<<<<<>><<<<<<<<<<>><<<<<<<<<<>><<<<<<<<<<>><<<<<<<<<<>><<<<<<<<<<>><<<<<<<<<<>><<<<<<<<<<>><<<<<<<<<<@o",
"#<<<<<<<<<<>><<<<<<<<<<>><<<<<<<<<<>><<<<<<<<<<>><<<<<<<<<<>><<<<<<<<<<>><<<<<<<<<<>><<<<<<<<<<>><<<<<<<<<<>><<<<<<<<<<+o",
"#<<<<<<<<<<>><<<<<<<<<<>><<<<<<<<<<>><<<<<<<<<<>><<<<<<<<<<>><<<<<<<<<<>><<<<<<<<<<>><<<<<<<<<<>><<<<<<<<<<>><<<<<<<<<<@o",
"#<<<<<<<<<<,><<<<<<<<<<>><<<<<<<<<<>><<<<<<<<<<>><<<<<<<<<<,><<<<<<<<<<>><<<<<<<<<<>><<<<<<<<<<>><<<<<<<<<<,><<<<<<<<<<+o",
".+@@+@@+@@+##+@@@+@@+@@##@+@@+@@@+@##@@+@@+@@+@##+@@+@@+@@+##+@@@+@@+@@##@+@@+@@@+@##@@+@@+@@+@##+@@+@@+@@+##+@@@+@@+@@ o",
"+oooooooooo++oooooooooo++ooooooooooO+ooooooooooO+oooooooooo++oooooooooo++ooooooooooO+ooooooooooO+oooooooooo++ooooooooooo>"
};
