/* XPM */
const char *Export_xpm[] = {
/* columns rows colors chars-per-pixel */
"121 121 56 1 ",
"  c black",
". c #040404",
"X c gray2",
"o c #131313",
"O c #151515",
"+ c gray9",
"@ c #1D1D1D",
"# c gray12",
"$ c gray16",
"% c #343434",
"& c #353535",
"* c gray23",
"= c #3F3F3F",
"- c gray25",
"; c gray27",
": c gray29",
"> c #4C4C4C",
", c gray31",
"< c gray32",
"1 c #5A5D5D",
"2 c gray38",
"3 c #737576",
"4 c gray53",
"5 c #868888",
"6 c #898B8C",
"7 c #8F9192",
"8 c #909292",
"9 c #919393",
"0 c #939393",
"q c #9D9D9E",
"w c #9C9E9E",
"e c #9D9E9E",
"r c #A5A5A6",
"t c #A5A6A6",
"y c gray65",
"u c gray66",
"i c gray69",
"p c gray70",
"a c #B6B6B6",
"s c gray",
"d c #CDCDCD",
"f c gray81",
"g c #D0D0D0",
"h c #D2D2D2",
"j c #D8D8D8",
"k c gray85",
"l c gainsboro",
"z c gray89",
"x c #E9E9E9",
"c c gray92",
"v c #EFEFEF",
"b c #EFF0F1",
"n c gray96",
"m c #F6F6F6",
"M c gray99",
"N c white",
/* pixels */
"5qqqqqqqqqqttqqqqqqqqqqttqqqqqqqqqqttqqqqqqqqqqttqqqqqqqqqqttqqqqqqqqqqttqqqqqqqqqqttqqqqqqqqqqttqqqqqqqqqqttqqqqqqqqqq37",
"qNNNNNNNNNNvvNNNNNNNNNNvvNNNNNNNNNNvvNNNNNNNNNNvvNNNNNNNNNNvvNNNNNNNNNNvvNNNNNNNNNNvvNNNNNNNNNNvvNNNNNNNNNNvvNNNNNNNNNN96",
"qNNNNNNNNNNvvNNNNNNNNNNvvNNNNNNNNNNvvNNNNNNNNNNvvNNNNNNNNNNvvNNNNNNNNNNvvNNNNNNNNNNvvNNNNNNNNNNvvNNNNNNNNNNvvNNNNNNNNNN76",
"qNNNNNNNNNNvvNNNNNNNNNNvvNNNNNNNNNNvvNNNNNNNNNNvvNNNNNNNNNNvvNNNNNNNNNNvvNNNNNNNNNNvvNNNNNNNNNNvvNNNNNNNNNNvvNNNNNNNNNN06",
"qNNNNNNNNNNvvNNNNNNNNNNvvNNNNNNNNNNvvNNNNNNNNNNvvNNNNNNNNNNvvNNNNNNNNNNvvNNNNNNNNNNvvNNNNNNNNNNvvNNNNNNNNNNvvNNNNNNNNNN96",
"qNNNNNNNNNNvvNNNNNNNNNNvvNNNNNNNNNNvvNNNNNNNNNNvvNNNNNNNNNNvvNNNNNNNNNNvvNNNNNNNNNNvvNNNNNNNNNNvvNNNNNNNNNNvvNNNNNNNNNN76",
"qNNNNNNNNNNvvNNNNNNNNNNvvNNNNNNNNNNvvNNNNNNNNNNvvNNNNNNNNNNvvNNNNNNNNNNvvNNNNNNNNNNvvNNNNNNNNNNvvNNNNNNNNNNvvNNNNNNNNNN06",
"qNNNNNNNNNNvvNNNNNNNNNNvvNNNNNNNNNNvvNNNNNNNNNNvvNNNNNNNNNNvvNNNNNNNNNNvvNNNNNNNNNNvvNNNNNNNNNNvvNNNNNNNNNNvvNNNNNNNNNN76",
"qNNNNNNNNNNvvNNNNNNNNNNvvNNNNNNNNNNvvNNNNNNNNNNvvNNNNNNNNNNvvNNNNNNNNNNvvNNNNNNNNNNvvNNNNNNNNNNvvNNNNNNNNNNvvNNNNNNNNNN06",
"qNNNNNNNNNNvvNNNNNNNNNNvvNNNNNNNNNNvvNNNNNNNNNNvvNNNNNNNNNNvvNNNNNNNNNNvvNNNNNNNNNNvvNNNNNNNNNNvvNNNNNNNNNNvvNNNNNNNNNN76",
"qNNNNNNNNNNvvNNNNNNNNNNvvNNNNNNNNNNvvNNNNNNNNNNvvNNNNNNNNNNvvNNNNNNNNNNvvNNNNNNNNNNvvNNNNNNNNNNvvNNNNNNNNNNvvNNNNNNNNNN06",
"tvvvvvvvvvvzzvvvvvvvvvvzzvvvvvvvvvvzzvvvvvvvvvvzzvvvvvvvvvvzzvvvvvvvvvvzzvvvvvvvvvvzzvvvvvvvvvvzzvvvvvvvvvvzzvvvvvvvvvvw7",
"tvvvvvvvvvvzzvvvvvvvvvvzzvvvvvvvvvvzzvvvvvvvvvvzzvvvvvvvvvvzzvvvvvvvvvvzzvvvvvvvvvvzzvvvvvvvvvvzzvvvvvvvvvvzzvvvvvvvvvbq7",
"qNNNNNNNNNNvvNNNNNNNNNNvvNNNNNNNNNNvvNNNNNNNNNNvvNNNNNNNNNNvvNNNNNNNNNNvvNNNNNNNNNNvvNNNNNNNNNNvvNNNNNNNNNNvvNNNNNNNNNN76",
"qNNNNNNNNNNvvNNNNNNNNNNvvNNNNNNNNNNvvNNNNNNNNNNvvNNnOhNNNNNvvNNnOhNNNNNvvNNNNNNNNNNvvNNNNNNNNNNvvNNNNNNNNNNvvNNNNNNNNNN06",
"qNNNNNNNNNNvvNNNNNNNNNNvvNNNNNNNNNNvvNNNNNNNNNNvvNN0;<NNNNNvvNN0;<NNNNNvvNNNNNNNNNNvvNNNNNNNNNNvvNNNNNNNNNNvvNNNNNNNNNN96",
"qNNNNNNNNNNvvNNNNNNNNNNvvNNNNNNNNNNvvNNNNNNNNNNvvNM$x*gNNNNvvNM$x*hNNNNvvNNNNNNNNNNvvNNNNNNNNNNvvNNNNNNNNNNvvNNNNNNNNNN06",
"qNNNNNNNNNNvvNNNNNNNNNNvvNNNNNNNNNNvvNNNNNNNNNNvvNu2Na,NNNNvvNu2Na,NNNNvvNNNNNNNNNNvvNNNNNNNNNNvvNNNNNNNNNNvvNNNNNNNNNN06",
"qNNNNNNNNNNvvNNNNNNNNNNvvNNNNNNNNNNvvNNNNNNNNNNvvN%gNN&dNNNvvN%gNN%dNNNvvNNNNNNNNNNvvNNNNNNNNNNvvNNNNNNNNNNvvNNNNNNNNNN76",
"qNNNNNNNNNNvvNNNNNNNNNNvvNNNNNNNNNNvvNNNNNNNNNNvvs-NNNi>NNNvvs-NNNu,NNNvvNNNNNNNNNNvvNNNNNNNNNNvvNNNNNNNNNNvvNNNNNNNNNN06",
"qNNNNNNNNNNvvNNNNNNNNNNvvNNNNNNNNNNvvNNNNNNNNNNvvNNNNNNNNNNvvNNNNNNNNNNvvNNNNNNNNNNvvNNNNNNNNNNvvNNNNNNNNNNvvNNNNNNNNNN76",
"qNNNNNNNNNNvvNNNNNNNNNNvvNNNNNNNNNNvvNNNNNNNNNNvvNNNNNNNNNNvvNNNNNNNNNNvvNNNNNNNNNNvvNNNNNNNNNNvvNNNNNNNNNNvvNNNNNNNNNN96",
"qNNNNNNNNNNvvNNNNNNNNNNvvNNNNNNNNNNvvNNNNNNNNNNvvNNNNNNNNNNvvNNNNNNNNNNvvNNNNNNNNNNvvNNNNNNNNNNvvNNNNNNNNNNvvNNNNNNNNNN06",
"tvvvvvvvvvvzzvvvvvvvvvvzzvvvvvvvvvvzzvvvvvvvvvvzzvvvvvvvvvvzzvvvvvvvvvvzzvvvvvvvvvvzzvvvvvvvvvvzzvvvvvvvvvvzzvvvvvvvvvvw7",
"tvvvvvvvvvvzzvvvvvvvvvvzzvvvvvvvvvvzzvvvvvvvvvvzzvvvvnvvvvvzzvvvvvvvvvvzzvvvvvvvvvvzzvvvvvvvvvvzzvvvvvvvvvvzzvvvvvvvvvvw7",
"qNNNNNNNNNNvvNNNNNNNNNNvvNNNNNNNNNNvvNNNNNNNNNNvvNNN@xNNNNNvvNNN@xNNNNNvvNNNNNNNNNNvvNNNNNNNNNNvvNNNNNNNNNNvvNNNNNNNNNN06",
"qNNNNNNNNNNvvNNNNNNNNNNvvNNNNNNNNNNvvNNnOhNNNNNvvNNN@xNNNNNvvNNN@xNNNNNvvNNnOhNNNNNvvNNNNNNNNNNvvNNNNNNNNNNvvNNNNNNNNNN96",
"qNNNNNNNNNNvvNNNNNNNNNNvvNNNNNNNNNNvvNN0;<NNNNNvvNNN@vNNNNNvvNNN$xNNNNNvvNN0;<NNNNNvvNNNNNNNNNNvvNNNNNNNNNNvvNNNNNNNNNN76",
"qNNNNNNNNNNvvNNNNNNNNNNvvNNNNNNNNNNvvNM$x*hNNNNvvNNN#cNNNNNvvNNN#cNNNNNvvNM$x*hNNNNvvNNNNNNNNNNvvNNNNNNNNNNvvNNNNNNNNNN06",
"qNNNNNNNNNNvvNNNNNNNNNNvvNNNNNNNNNNvvNt2Na,NNNNvvNNN#cNNNNNvvNNN#cNNNNNvvNt2Na,NNNNvvNNNNNNNNNNvvNNNNNNNNNNvvNNNNNNNNNN96",
"qNNNNNNNNNNvvNNNNNNNNNNvvNNNNNNNNNNvvN&hNN%dNNNvvNNN#cNNNNNvvNNN#cNNNNNvvN&hNN%dNNNvvNNNNNNNNNNvvNNNNNNNNNNvvNNNNNNNNNN96",
"qNNNNNNNNNNvvNNNNNNNNNNvvNNNNNNNNNNvvs=NNNu,NNNvvNNN#xNNNNNvvNNN#xNNNNNvvs=NNNu,NNNvvNNNNNNNNNNvvNNNNNNNNNNvvNNNNNNNNNN76",
"qNNNNNNNNNNvvNNNNNNNNNNvvNNNNNNNNNNvvNNNNNNNNNNvvNNN$xNNNNNvvNNN@xNNNNNvvNNNNNNNNNNvvNNNNNNNNNNvvNNNNNNNNNNvvNNNNNNNNNN96",
"qNNNNNNNNNNvvNNNNNNNNNNvvNNNNNNNNNNvvNNNNNNNNNNvvNNN@xNNNNNvvNNN@xNNNNNvvNNNNNNNNNNvvNNNNNNNNNNvvNNNNNNNNNNvvNNNNNNNNNN76",
"qNNNNNNNNNNvvNNNNNNNNNNvvNNNNNNNNNNvvNNNNNNNNNNvvNNN@vNNNNNvvNNN$xNNNNNvvNNNNNNNNNNvvNNNNNNNNNNvvNNNNNNNNNNvvNNNNNNNNNN06",
"rvvvvvvvvvvzzvvvvvvvvvvzzvvvvvvvvvvzzvvvvvvvvvvzzvvv@lvvvvvzzvvv@kvvvvvzzvvvvvvvvvvzzvvvvvvvvvvzzvvvvvvvvvvzzvvvvvvvvvvw7",
"rvvvvvvvvvvzzvvvvvvvvvvzzvvvvvvvvvvzzvvvnvvvvvvzzvvv@kvvvvvzzvvv@kvvvvvzzvvvvvvvvvvzzvvvvvvvvvvzzvvvvvvvvvvzzvvvvvvvvvvw9",
"qNNNNNNNNNNvvNNNNNNNNNNvvNNNNNNNNNNvvNNN@xNNNNNvvNNN.kNNNNNvvNNN.jNNNNNvvNNN$xNNNNNvvNNNNNNNNNNvvNNNNNNNNNNvvNNNNNNNNNN06",
"qNNNNNNNNNNvvNNNNNNNNNNvvNNNNNNNNNNvvNNN@vNNNNNvvNNN@xNNNNNvvNNN$xNNNNNvvNNN@xNNNNNvvNNNNNNNNNNvvNNNNNNNNNNvvNNNNNNNNNN96",
"qNNNNNNNNNNvvNNNNNNNNNNvvNNNNNNNNNNvvNNN@xNNNNNvvNNN@vNNNNNvvNNN@xNNNNNvvNNN@xNNNNNvvNNNNNNNNNNvvNNNNNNNNNNvvNNNNNNNNNN96",
"qNNNNNNNNNNvvNNNNNNNNNNvvNNNNNNNNNNvvNNN@cNNNNNvvNNN$xNNNNNvvNNN@vNNNNNvvNNN$xNNNNNvvNNNNNNNNNNvvNNNNNNNNNNvvNNNNNNNNNN06",
"qNNNNNNNNNNvvNNNNNNNNNNvvNNNNNNNNNNvvNNN#cNNNNNvvNNN@xNNNNNvvNNN@vNNNNNvvNNN@xNNNNNvvNNNNNNNNNNvvNNNNNNNNNNvvNNNNNNNNNN76",
"qNNNNNNNNNNvvNNNNNNNNNNvvNNNNNNNNNNvvNNN@vNNNNNvvNNN@xNNNNNvvNNN@xNNNNNvvNNN@xNNNNNvvNNNNNNNNNNvvNNNNNNNNNNvvNNNNNNNNNN06",
"qNNNNNNNNNNvvNNNNNNNNNNvvNNNNNNNNNNvvNNN@xNNNNNvvNNN@xNNNNNvvNNN@xNNNNNvvNNN@xNNNNNvvNNNNNNNNNNvvNNNNNNNNNNvvNNNNNNNNNN76",
"qNNNNNNNNNNvvNNNNNNNNNNvvNNNNNNNNNNvvNNN$xNNNNNvvNNN@vNNNNNvvNNN$xNNNNNvvNNN@vNNNNNvvNNNNNNNNNNvvNNNNNNNNNNvvNNNNNNNNNN06",
"qNNNNNNNNNNvvNNNNNNNNNNvvNNNNNNNNNNvvNNN@xNNNNNvvNNN@vNNNNNvvNNN@xNNNNNvvNNN@vNNNNNvvNNNNNNNNNNvvNNNNNNNNNNvvNNNNNNNNNN76",
"qNNNNNNNNNNvvNNNNNNNNNNvvNNNNNNNNNNvvNNN@xNNNNNvvNNN@xNNNNNvvNNN@vNNNNNvvNNN@xNNNNNvvNNNNNNNNNNvvNNNNNNNNNNvvNNNNNNNNNN06",
"rvvvvvvvvvvzzvvvvvvvvvvzzvvvvvvvvvvzzvvv@lnvvvvzzvvv@kvvvvvzzvvv@lvvvvvzzvvv@kvvvvvzzvvvvvvvvvvzzvvvvvvvvvvzzvvvvvvvvvvw7",
"rvvvvvvvvvvzzvvvvvvvvvvzzvvvvvvvvvvzzvvv@kvvvvvzzvvv@kvvvvvzzvvv@kvvvvvzzvvv@knvvvvzzvvvvvvvvvvzzvvvvvvvvvvzzvvvvvvvvvvq7",
"qNNNNNNNNNNvvNNNNNNNNNNvvNNNNNNNNNNvvNNNXkNNNNNvvNNN.jNNNNNvvNNN.jNNNNNvvNNN.kNNNNNvvNNNNNNNNNNvvNNNNNNNNNNvvNNNNNNNNNN96",
"qNNNNNNNNNNvvNNNNNNNNNNvvNNNNNNNNNNvvNNN@vNNNNNvvNNN$xNNNNNvvNNN$xNNNNNvvNNN@vNNNNNvvNNNNNNNNNNvvNNNNNNNNNNvvNNNNNNNNNN76",
"qNNNNNNNNNNvvNNNNNNNNNNvvNNNNNNNNNNvvNNN@xNNNNNvvNNN@xNNNNNvvNNN@xNNNNNvvNNN@xNNNNNvvNNNNNNNNNNvvNNNNNNNNNNvvNNNNNNNNNN06",
"qNNNNNNNNNNvvNNNNNNNNNNvvNNNNNNNNNNvvNNN$xNNNNNvvNNN@vNNNNNvvNNN@vNNNNNvvNNN@xNNNNNvvNNNNNNNNNNvvNNNNNNNNNNvvNNNNNNNNNN96",
"qNNNNNNNNNNvvNNNNNNNNNNvvNNNNNNNNNNvvNNN@xNNNNNvvNNN@xNNNNNvvNNN@vNNNNNvvNNN@vNNNNNvvNNNNNNNNNNvvNNNNNNNNNNvvNNNNNNNNNN76",
"qNNNNNNNNNNvvNNNNNNNNNNvvNNNNNNNNNNvvNNN$xNNNNNvvNNN$xNNNNNvvNNN@xNNNNNvvNNN@xNNNNNvvNNNNNNNNNNvvNNNNNNNNNNvvNNNNNNNNNN06",
"qNNNNNNNNNNvvNNNNNNNNNNvvNNNNNNNNNNvvNNN@xNNNNNvvNNN@xNNNNNvvNNN@xNNNNNvvNNN$xNNNNNvvNNNNNNNNNNvvNNNNNNNNNNvvNNNNNNNNNN76",
"qNNNNNNNNNNvvNNNNNNNNNNvvNNNNNNNNNNvvNNN@vNNNNNvvNNN$xNNNNNvvNNN$xNNNNNvvNNN#cNNNNNvvNNNNNNNNNNvvNNNNNNNNNNvvNNNNNNNNNN06",
"qNNNNNNNNNNvvNNNNNNNNNNvvNNNNNNNNNNvvNNN@vNNNNNvvNNN@xNNNNNvvNNN@xNNNNNvvNNN#xNNNNNvvNNNNNNNNNNvvNNNNNNNNNNvvNNNNNNNNNN76",
"qNNNNNNNNNNvvNNNNNNNNNNvvNNNNNNNNNNvvNNN@xNNNNNvvNNN@xNNNNNvvNNN@vNNNNNvvNNN#cNNNNNvvNNNNNNNNNNvvNNNNNNNNNNvvNNNNNNNNNN06",
"rvvvvvvvvvvzzvvvvvvvvvvzzvvvvvvvvvvzzvvv@kvvvvvzzvvn@kvvvvvzzvvv@lvvvvvzzvvb@lvvvvvzzvvvvvvvvvvzzvvvvvvvvvvzzvvvvvvvvvvw7",
"rvvvvvvvvvvzzvvvvvvvvvvzzvvvvvvvvvvzzvvv@knvvvvzzvvv@kvvvvvzzvvv@kvvvvvzzvvv@lbvvvvzzvvvvvvvvvvzzvvvvvvvvvvzzvvvvvvvvvbq7",
"qNNNNNNNNNNvvNNNNNNNNNNvvNNNNNNNNNNvvNNN.jNNNNNvvNNN.jNNNNNvvNNN.jNNNNNvvNNN.kNNNNNvvNNNNNNNNNNvvNNNNNNNNNNvvNNNNNNNNNN76",
"qNNNNNNNNNNvvNNNNNNNNNNvvNNNNNNNNNNvvNNN@vNNNNNvvNNN$xNNNNNvvNNN@xNNNNNvvNNN#cNNNNNvvNNNNNNNNNNvvNNNNNNNNNNvvNNNNNNNNNN06",
"qNNNNNNNNNNvvNNNNNNNNNNvvNNNNNNNNNNvvNNN@xNNNNNvvNNN@xNNNNNvvNNN$xNNNNNvvNNN#xNNNNNvvNNNNNNNNNNvvNNNNNNNNNNvvNNNNNNNNNN96",
"qNNNNNNNNNNvvNNNNNNNNNNvvNNNNNNNNNNvvNNN@xNNNNNvvNNN@vNNNNNvvNNN@xNNNNNvvNNN@xNNNNNvvNNNNNNNNNNvvNNNNNNNNNNvvNNNNNNNNNN76",
"qNNNNNNNNNNvvNNNNNNNNNNvvNNNNNNNNNNvvNNN@xNNNNNvvNNN@xNNNNNvvNNN$xNNNNNvvNNN$xNNNNNvvNNNNNNNNNNvvNNNNNNNNNNvvNNNNNNNNNN96",
"qNNNNNNNNNNvvNNNNNNNNNNvvNNNNNNNNNNvvNNN@vNNNNNvvNNN$xNNNNNvvNNN@xNNNNNvvNNN@xNNNNNvvNNNNNNNNNNvvNNNNNNNNNNvvNNNNNNNNNN06",
"qNNNNNNNNNNvvNNNNNNNNNNvvNNNNNNNNNNvvNNN@xNNNNNvvNNN@xNNNNNvvNNN@xNNNNNvvNNN@xNNNNNvvNNNNNNNNNNvvNNNNNNNNNNvvNNNNNNNNNN76",
"qNNNNNNNNNNvvNNNNNNNNNNvvNNNNNNNNNNvvNNN$xNNNNNvvNNN@xNNNNNvvNNN@vNNNNNvvNNN$xNNNNNvvNNNNNNNNNNvvNNNNNNNNNNvvNNNNNNNNNN06",
"qNNNNNNNNNNvvNNNNNNNNNNvvNNNNNNNNNNvvNNN@xNNNNNvvNNN@xNNNNNvvNNN@xNNNNNvvNNN@xNNNNNvvNNNNNNNNNNvvNNNNNNNNNNvvNNNNNNNNNN76",
"qNNNNNNNNNNvvNNNNNNNNNNvvNNNNNNNNNNvvNNN@xNNNNNvvNNN$xNNNNNvvNNN$xNNNNNvvNNN@xNNNNNvvNNNNNNNNNNvvNNNNNNNNNNvvNNNNNNNNNN06",
"rvvvvvvvvvvzzvvvvvvvvvvzzvvvvvvvvvvzzvvv@lnvvvvzzvvx@lvvvvvzzvvv@kvvvvvzzvvn@kvvvvvzzvvvvvvvvvvzzvvvvvvvvvvzzvvvvvvvvvvw7",
"rvvvvvvvvvvzzvvvvvvvvvvzzvvvvvvvvvvzzvvv@kvvvvvzzvvv@knvvvvzzvvv@kvvvvvzzvvv@kvvvvvzzvvvvvvvvvvzzvvvvvvvvvvzzvvvvvvvvvvw7",
"qNNNNNNNNNNvvNNNNNNNNNNvvNNNNNNNNNNvvNNNXjNNNNNvvNNN.kNNNNNvvNNN.jNNNNNvvNNN.jNNNNNvvNNNNNNNNNNvvNNNNNNNNNNvvNNNNNNNNNN06",
"qNNNNNNNNNNvvNNNNNNNNNNvvNNNNNNNNNNvvNNN@vNNNNNvvNNN@vNNNNNvvNNN@vNNNNNvvNNN$xNNNNNvvNNNNNNNNNNvvNNNNNNNNNNvvNNNNNNNNNN96",
"qNNNNNNNNNNvvNNNNNNNNNNvvNNNNNNNNNNvvNNN@xNNNNNvvNNN@xNNNNNvvNNN@xNNNNNvvNNN@xNNNNNvvNNNNNNNNNNvvNNNNNNNNNNvvNNNNNNNNNN76",
"qNNNNNNNNNNvvNNNNNNNNNNvvNNNNNNNNNNvvNNN$xNNNNNvvNNN@xNNNNNvvNNN$xNNNNNvvNNN@vNNNNNvvNNNNNNNNNNvvNNNNNNNNNNvvNNNNNNNNNN06",
"qNNNNNNNNNNvvNNNNNNNNNNvvNNNNNNNNNNvvNNN@xNNNNNvvNNN@vNNNNNvvNNN@xNNNNNvvNNN@xNNNNNvvNNNNNNNNNNvvNNNNNNNNNNvvNNNNNNNNNN96",
"qNNNNNNNNNNvvNNNNNNNNNNvvNNNNNNNNNNvvNNN$xNNNNNvvNNN@xNNNNNvvNNN@xNNNNNvvNNN$xNNNNNvvNNNNNNNNNNvvNNNNNNNNNNvvNNNNNNNNNN96",
"qNNNNNNNNNNvvNNNNNNNNNNvvNNNNNNNNNNvvNNN@xNNNNNvvNNN$xNNNNNvvNNN@vNNNNNvvNNN@xNNNNNvvNNNNNNNNNNvvNNNNNNNNNNvvNNNNNNNNNN76",
"qNNNNNNNNNNvvNNNNNNNNNNvvNNNNNNNNNNvvNNN@xNNNNNvvNNN@vNNNNNvvNNN$xNNNNNvvNNN@vNNNNNvvNNNNNNNNNNvvNNNNNNNNNNvvNNNNNNNNNN96",
"qNNNNNNNNNNvvNNNNNNNNNNvvNNNNNNNNNNvvNNN$xNNNNNvvNNN@xNNNNNvvNNN@xNNNNNvvNNN@xNNNNNvvNNNNNNNNNNvvNNNNNNNNNNvvNNNNNNNNNN76",
"qNNNNNNNNNNvvNNNNNNNNNNvvNNNNNNNNNNvvNNN@xNNNNNvvNNN$xNNNNNvvNNN@xNNNNNvvNNN$xNNNNNvvNNNNNNNNNNvvNNNNNNNNNNvvNNNNNNNNNN06",
"rvvvvvvvvvvzzvvvvvvvvvvzzvvvvvvvvvvzzvvv@kvvvvvzzvvv@kvvvvvzzvvv@kvvvvvzzvvv@kvvvvvzzvvvvvvvvvvzzvvvvvvvvvvzzvvvvvvvvvvw7",
"rvvvvvvvvvvzzvvvvvvvvvvzzvvvvvvvvvvzzvvv@lvvvvvzzvvv@kvvvvvzzvvv@knvvvvzzvvv@kvvvvvzzvvvvvvvvvvzzvvvvvvvvvvzzvvvvvvvvvvw9",
"qNNNNNNNNNNvvNNNNNNNNNNvvNNNNNNNNNNvvNNNXkNNNNNvvNNN.jNNNNNvvNNNXkNNNNNvvNNN.jNNNNNvvNNNNNNNNNNvvNNNNNNNNNNvvNNNNNNNNNN06",
"qNNNNNNNNNNvvNNNNNNNNNNvvNNNNNNNNNNvvNNN$xNNNNNvvNNN@xNNNNNvvNNN@xNNNNNvvNNN@xNNNNNvvNNNNNNNNNNvvNNNNNNNNNNvvNNNNNNNNNN96",
"qNNNNNNNNNNvvNNNNNNNNNNvvNNNNNNNNNNvvNNN@xNNNNNvvNNN$xNNNNNvvNNN$xNNNNNvvNNN$xNNNNNvvNNNNNNNNNNvvNNNNNNNNNNvvNNNNNNNNNN96",
"qNNNNNNNNNNvvNNNNNNNNNNvvNNNNNNNNNNvvNNN$xNNNNNvvNNN@vNNNNNvvNNN@xNNNNNvvNNN@xNNNNNvvNNNNNNNNNNvvNNNNNNNNNNvvNNNNNNNNNN06",
"qNNNNNNNNNNvvNNNNNNNNNNvvNNNNNNNNNNvvNNN@xNNNNNvvNNN@xNNNNNvvNNN@xNNNNNvvNNN$xNNNNNvvNNNNNNNNNNvvNNNNNNNNNNvvNNNNNNNNNN76",
"qNNNNNNNNNNvvNNNNNNNNNNvvNNNNNNNNNNvvNNN@xNNNNNvvNNN$xNNNNNvvNNN@xNNNNNvvNNN@xNNNNNvvNNNNNNNNNNvvNNNNNNNNNNvvNNNNNNNNNN06",
"qNNNNNNNNNNvvNNNNNNNNNNvvNNNNNNNNNNvvNNN@xNNNNNvvNNN@xNNNNNvvNNN$xNNNNNvvNNN@xNNNNNvvNNNNNNNNNNvvNNNNNNNNNNvvNNNNNNNNNN76",
"qNNNNNNNNNNvvNNNNNNNNNNvvNNNNNNNNNNvvNNN$xNNNNNvvNNN@xNNNNNvvNNN@xNNNNNvvNNN@vNNNNNvvNNNNNNNNNNvvNNNNNNNNNNvvNNNNNNNNNN06",
"qNNNNNNNNNNvvNNNNNNNNNNvvNNNNNNNNNNvvNNN@xNNNNNvvNNN@xNNNNNvvNNN$xNNNNNvvNNN@xNNNNNvvNNNNNNNNNNvvNNNNNNNNNNvvNNNNNNNNNN76",
"qNNNNNNNNNNvvNNNNNNNNNNvvNNNNNNNNNNvvNNN@vNNNNNvvNNN$xNNNNNvvNNN@xNNNNNvvNNN$xNNNNNvvNNNNNNNNNNvvNNNNNNNNNNvvNNNNNNNNNN06",
"rvvvvvvvvvvzzvvvvvvvvvvzzvvvvvvvvvvzzvvv@kvvvvvzzvvx@lvvvvvzzvvv@kvvvvvzzvvv@kvvvvvzzvvvvvvvvvvzzvvvvvvvvvvzzvvvvvvvvvvw7",
"rvvvvvvvvvvzzvvvvvvvvvvzzvvvvvvvvvvzzvvv@kvvvvvzzvvv@kvvvvvzzvvv@kvvvvvzzvvv@knvvvvzzvvvvvvvvvvzzvvvvvvvvvvzzvvvvvvvvvvq7",
"qNNNNNNNNNNvvNNNNNNNNNNvvNNNNNNNNNNvvNNN@vNNNNNvvNNN$xNNNNNvvNNN@vNNNNNvvNNN@vNNNNNvvNNNNNNNNNNvvNNNNNNNNNNvvNNNNNNNNNN96",
"qNNNNNNNNNNvvNNNNNNNNNNvvNNNNNNNNNNvvNNNNNNNNNNvvNNNMNNNNNNvvNNNNNNNNNNvvNNNNNNNNNNvvNNNNNNNNNNvvNNNNNNNNNNvvNNNNNNNNNN76",
"qNNNNNNNNNNvvNNNknNNNNNvvNNNNNNNNNNvvNNNknNNNNNvvNNNjnNNNNNvvNNNknNNNNNvvNNNjnNNNNNvvNNNNNNNNNNvvNNNknNNNNNvvNNNNNNNNNN06",
"qNNNNNNNNNNvvNNN-dNNNNNvvNNNNNNNNNNvvNNN=hNNNNNvvNNN=hNNNNNvvNNN=dNNNNNvvNNN=dNNNNNvvNNNNNNNNNNvvNNN=dNNNNNvvNNNNNNNNNN96",
"qNNNNNNNNNNvvNNN-dNNNNNvvNNNNNNNNNNvvNNN=dNNNNNvvNNN=dNNNNNvvNNN=hNNNNNvvNNN=dNNNNNvvNNNNNNNNNNvvNNN-dNNNNNvvNNNNNNNNNN76",
"qNNNNNNNNNNvvpO+XOO:NNNvvNNNNNNNNNNvvpOOXoO:NNNvvp@OXoO:NNNvvpOOXoO:NNNvvpO@XOO:NNNvvNNNNNNNNNNvvpOOXOO:NNNvvNNNNNNNNNN06",
"qNNNNNNNNNNvvNNN-dNNNNNvv4..,NNNNNNvvNNN-dNNNNNvvNNN-dNNNNNvvNNN=dNNNNNvvNNN=dNNNNNvv4..,NNNNNNvvNNN-dNNNNNvvNNNNNNNNNN76",
"qNNNNNNNNNNvvNNN=fNNNNNvvNNNNNNNNNNvvNNN=dNNNNNvvNNN=dNNNNNvvNNN=hNNNNNvvNNN=dNNNNNvvNNNNNNNNNNvvNNN=hNNNNNvvNNNNNNNNNN06",
"qNNNNNNNNNNvvNNN-dNNNNNvvNNNNNNNNNNvvNNN=hNNNNNvvNNN-gNNNNNvvNNN=dNNNNNvvNNN=dNNNNNvvNNNNNNNNNNvvNNN=dNNNNNvvNNNNNNNNNN76",
"qNNNNNNNNNNvvNNNNNNNNNNvvNNNNNNNNNNvvNNNNNNNNNNvvNNNNNNNNNNvvNNNNNNNNNNvvNNNNNNNNNNvvNNNNNNNNNNvvNNNNNNNNNNvvNNNNNNNNNN06",
"tvvvvvvvvvvzzvvvvvvvvvvzzvvvvvvvvvvzzvvvvvvvvvvzzvvvvvvvvvvzzvvvvvvvvvvzzvvvvvvvvvvzzvvvvvvvvvvzzvvvvvvvvvvzzvvvvvvvvvvw7",
"tvvvvvvvvvvzzvvvvvvvvvvzzvvvvvvvvvvzzvvvvvvvvvvzzvvvvvvvvvvzzvvvvvvvvvvzzvvvvvvvvvvzzvvvvvvvvvvzzvvvvvvvvvvzzvvvvvvvvvbq7",
"qNNNNNNNNNNvvNNNNNNNNNNvvNNNNNNNNNNvvNNNNNNNNNNvvNNNNNNNNNNvvNNNNNNNNNNvvNNNNNNNNNNvvNNNNNNNNNNvvNNNNNNNNNNvvNNNNNNNNNN76",
"qNNNNNNNNNNvvNNNNNNNNNNvvNNNNNNNNNNvvNNNNNNNNNNvvNNNNNNNNNNvvNNNNNNNNNNvvNNNNNNNNNNvvNNNNNNNNNNvvNNNNNNNNNNvvNNNNNNNNNN06",
"qNNNNNNNNNNvvNNNNNNNNNNvvNNNNNNNNNNvvNNNNNNNNNNvvNNNNNNNNNNvvNNNNNNNNNNvvNNNNNNNNNNvvNNNNNNNNNNvvNNNNNNNNNNvvNNNNNNNNNN96",
"qNNNNNNNNNNvvNNNNNNNNNNvvNNNNNNNNNNvvNNNNNNNNNNvvNNNNNNNNNNvvNNNNNNNNNNvvNNNNNNNNNNvvNNNNNNNNNNvvNNNNNNNNNNvvNNNNNNNNNN06",
"qNNNNNNNNNNvvNNNNNNNNNNvvNNNNNNNNNNvvNNNNNNNNNNvvNNNNNNNNNNvvNNNNNNNNNNvvNNNNNNNNNNvvNNNNNNNNNNvvNNNNNNNNNNvvNNNNNNNNNN76",
"qNNNNNNNNNNvvNNNNNNNNNNvvNNNNNNNNNNvvNNNNNNNNNNvvNNNNNNNNNNvvNNNNNNNNNNvvNNNNNNNNNNvvNNNNNNNNNNvvNNNNNNNNNNvvNNNNNNNNNN06",
"qNNNNNNNNNNvvNNNNNNNNNNvvNNNNNNNNNNvvNNNNNNNNNNvvNNNNNNNNNNvvNNNNNNNNNNvvNNNNNNNNNNvvNNNNNNNNNNvvNNNNNNNNNNvvNNNNNNNNNN76",
"qNNNNNNNNNNvvNNNNNNNNNNvvNNNNNNNNNNvvNNNNNNNNNNvvNNNNNNNNNNvvNNNNNNNNNNvvNNNNNNNNNNvvNNNNNNNNNNvvNNNNNNNNNNvvNNNNNNNNNN06",
"qNNNNNNNNNNvvNNNNNNNNNNvvNNNNNNNNNNvvNNNNNNNNNNvvNNNNNNNNNNvvNNNNNNNNNNvvNNNNNNNNNNvvNNNNNNNNNNvvNNNNNNNNNNvvNNNNNNNNNN76",
"qNNNNNNNNNNvvNNNNNNNNNNvbNNNNNNNNNNvvNNNNNNNNNNvvNNNNNNNNNNvvNNNNNNNNNNvbNNNNNNNNNNvvNNNNNNNNNNvvNNNNNNNNNNvvNNNNNNNNNN06",
"30970700997ww0997097070wq7070099709qq9709709709ww0970970970ww0997097070wq7070099709wq9709709709ww0970970970wq099709709716",
"766666666667766666666667766666666667766666666667766666666667056666666667766666666667766666666667766666666667766666666666b"
};
