/* XPM */
const char *Freehand_xpm[] = {
/* columns rows colors chars-per-pixel */
"121 121 57 1 ",
"  c #090909",
". c gray5",
"X c gray7",
"o c #151515",
"O c #1B1B1B",
"+ c #1D1D1D",
"@ c gray14",
"# c gray15",
"$ c #272727",
"% c #2D2D2D",
"& c gray27",
"* c #4E4E4E",
"= c #515151",
"- c gray32",
"; c #5A5D5D",
": c gray37",
"> c #626262",
", c gray39",
"< c #676767",
"1 c #6A6A6A",
"2 c #737576",
"3 c gray47",
"4 c #818181",
"5 c #868888",
"6 c #898B8C",
"7 c #8F9192",
"8 c #909292",
"9 c #919393",
"0 c #989898",
"q c #9B9B9B",
"w c #9D9D9E",
"e c #9C9E9E",
"r c #9D9E9E",
"t c #A5A5A5",
"y c #A5A5A6",
"u c #A5A6A6",
"i c gray65",
"p c gray68",
"a c gray71",
"s c #B7B7B7",
"d c gray74",
"f c gray",
"g c #CACACA",
"h c #CECECE",
"j c #E2E2E2",
"k c gray89",
"l c #E7E7E7",
"z c #E9E9E9",
"x c #EEEEEE",
"c c #EFEFEF",
"v c #EFF0F1",
"b c gray94",
"n c gray95",
"m c #F6F6F6",
"M c gray97",
"N c gray98",
"B c white",
/* pixels */
"5wwwwwwwwwwuuwwwwwwwwwwuuwwwwwwwwwwuuwwwwwwwwwwuuwwwwwwwwwwuuwwwwwwwwwwuuwwwwwwwwwwuuwwwwwwwwwwuuwwwwwwwwwwuuwwwwwwwwww28",
"wBBBBBBBBBBccBBBBBBBBBBccBBBBBBBBBBccBBBBBBBBBBccBBBBBBBBBBccBBBBBBBBBBccBBBBBBBBBBccBBBBBBBBBBccBBBBBBBBBBccBBBBBBBBBB96",
"wBBBBBBBBBBccBBBBBBBBBBccBBBBBBBBBBccBBBBBBBBBBccBBBBBBBBBBccBBBBBBBBBBccBBBBBBBBBBccBBBBBBBBBBccBBBBBBBBBBccBBBBBBBBBB96",
"wBBBBBBBBBBccBBBBBBBBBBccBBBBBBBBBBccBBBBBBBBBBccBBBBBBBBBBccBBBBBBBBBBccBBBBBBBBBBccBBBBBBBBBBccBBBBBBBBBBccBBBBBBBBBB86",
"wBBBBBBBBBBccBBBBBBBBBBccBBBBBBBBBBccBBBBBBBBBBccBBBBBBBBBBccBBBBBBBBBBccBBBBBBBBBBccBBBBBBBBBBccBBBBBBBBBBccBBBBBBBBBB96",
"wBBBBBBBBBBccBBBBBBBBBBccBBBBBBBBBBccBBBBBBBBBBccBBBBBBBBBBccBBBBBBBBBBccBBBBBBBBBBccBBBBBBBBBBccBBBBBBBBBBccBBBBBBBBBB96",
"wBBBBBBBBBBccBBBBBBBBBBccBBBBBBBBBBccBBBBBBBBBBccBBBBBBBBBBccBBBBBBBBBBccBBBBBBBBBBccBBBBBBBBBBccBBBBBBBBBBccBBBBBBBBBB86",
"wBBBBBBBBBBccBBBBBBBBBBccBBBBBBBBBBccBBBBBBBBBBccBBBBBBBBBBccBBBBBBBBBBccBBBBBBBBBBccBBBBBBBBBBccBBBBBBBBBBccBBBBBBBBBB96",
"wBBBBBBBBBBccBBBBBBBBBBccBBBBBBBBBBccBBBBBBBBBBccBBBBBBBBBBccBBBBBBBBBBccBBBBBBBBBBccBBBBBBBBBBccBBBBBBBBBBccBBBBBBBBBB86",
"wBBBBBBBBBBccBBBBBBBBBBccBBBBBBBBBBccBBBBBBBBBBccBBBBBBBBBBccBBBBBBBBBBccBBBBBBBBBBccBBBBBBBBBBccBBBBBBBBBBccBBBBBBBBBB86",
"wBBBBBBBBBBccBBBBBBBBBBccBBBBBBBBBBccBBBBBBBBBBccBBBBBBBBBBccBBBBBBBBBBccBBBBBBBBBBccBBBBBBBBBBccBBBBBBBBBBccBBBBBBBBBB86",
"ucccccccccckkcccccccccckkcccccccccckkcccccccccckkcccccccccckkcccccccccckkcccccccccckkcccccccccckkcccccccccckkcccccccccce7",
"ucccccccccckkcccccccccckkcccccccccckkcccccccccckkcccccccccckkcccccccccckkcccccccccckkcccccccccckkcccccccccckkcccccccccnw8",
"wBBBBBBBBBBccBBBBBBBBBBccBBBBBBBBBBccBBBBBBBBBBccBBBBBBBBBBccBBBBBBBBBBccBBBBBBBBBBccBBBBBBBBBBccBBBBBBBBBBccBBBBBBBBBB96",
"wBBBBBBBBBBccBBBBBBBBBBccBBBBBBBBBBccBBBBBBBBBBccBBBBBBBBBBccBBBBBBBBBBccBBBBBBBBBBcc0#mBBgolBBccBBBBBBBBBBccBBBBBBBBBB86",
"wBBBBBBBBBBccBBBBBBBBBBccBBBBBBBBBBccBBBBBBBBBBccBBBBBBBBBBccBBBBBBBBBBccBBBBBBBBBBccB&3BN%uBBBccBBBBBBBBBBccBBBBBBBBBB96",
"wBBBBBBBBBBccBBBBBBBBBBccBBBBBBBBBBccBBBBBBBBBBccBBBBBBBBBBccBBBBBBBBBBccBBBBBBBBBBccBkXh4-BBBBccBBBBBBBBBBccBBBBBBBBBB86",
"wBBBBBBBBBBccBBBBBBBBBBccBBBBBBBBBBccBBBBBBBBBBccBBBBBBBBBBccBBBBBBBBBBccBBBBBBBBBBccBBq#OzBBBBccBBBBBBBBBBccBBBBBBBBBB86",
"wBBBBBBBBBBccBBBBBBBBBBccBBBBBBBBBBccBBBBBBBBBBccBBBBBBBBBBccBBBBBBBBBBccBBBBBBBBBBccBBc -BBBBBccBBBBBBBBBBccBBBBBBBBBB86",
"wBBBBBBBBBBccBBBBBBBBBBccBBBBBBBBBBccBBBBBBBBBBccBBBBBBBBBBccBBBBBBBBBBccBBBBBBBBBBccBB:1OsBBBBccBBBBBBBBBBccBBBBBBBBBB86",
"wBBBBBBBBBBccBBBBBBBBBBccBBBBBBBBBBccBBBBBBBBBBccBBBBBBBBBBccBBBBBBBBBBccBBBBBBBBBBccBs@mp+nBBBccBBBBBBBBBBccBBBBBBBBBB86",
"wBBBBBBBBBBccBBBBBBBBBBccBBBBBBBBBBccBBBBBBBBBBccBBBBBBBBBBccBBBBBBBBBBccBBBBBBBBBBccnOdBB*<BBBccBBBBBBBBBBccBBBBBBBBBB96",
"wBBBBBBBBBBccBBBBBBBBBBccBBBBBBBBBBccBBBBBBBBBBccBBBBBBBBBBccBBBBBBBBBBccBBBBBBBBBBcc>>BBBk.dBBccBBBBBBBBBBccBBBBBBBBBB86",
"ucccccccccckkcccccccccckkcccccccccckkcccccccccckkcccccccccckkcccccccccckkcccccccccckkcccccccccckkcccccccccckkcccccccccvw8",
"ucccccccccckkcccccccccckkcccccccccckkcccccccccckkcccccccccckkcccccccccckkcccccccccckkcccccccccckkcccccccccckkccccccccccw8",
"wBBBBBBBBBBccBBBBBBBBBBccBBBBBBBBBBccBBBBBBBBBBccBBBBBBBBBBccBBBBBBBBBBccBBBBBBBBBBccBBBBBBBBBBccBBBBBBBBBBccBBBBBBBBBB86",
"wBBBBBBBBBBcc0#mBBgolBBcc0#mBBgolBBcc0#mBBgolBBccBBBBBBBBBBccBBBBBBBBBBcc0#mBBgolBBcc0#mBBgolBBccBBBBBBBBBBccBBBBBBBBBB96",
"wBBBBBBBBBBccB&3BN%tBBBccB&3BN%tBBBccB&3BN%tBBBccBBBBBBBBBBccBBBBBBBBBBccB&3BN%uBBBccB&3BN%uBBBccBBBBBBBBBBccBBBBBBBBBB96",
"wBBBBBBBBBBccBkXh4-BBBBccBkXh4=BBBBccBkXh4-BBBBccBBBBBBBBBBccBBBBBBBBBBccBkXh4=BBBBccBkXh4-BBBBccBBBBBBBBBBccBBBBBBBBBB86",
"wBBBBBBBBBBccBBq#OzBBBBccBBq#OzBBBBccBBq#OzBBBBccBBBBBBBBBBccBBBBBBBBBBccBBq#OlBBBBccBBq#OzBBBBccBBBBBBBBBBccBBBBBBBBBB96",
"wBBBBBBBBBBccBBc -BBBBBccBBc -BBBBBccBBc -BBBBBccBBBBBBBBBBccBBBBBBBBBBccBBc -BBBBBccBBc -BBBBBccBBBBBBBBBBccBBBBBBBBBB96",
"wBBBBBBBBBBccBB:1OsBBBBccBB:1OsBBBBccBB:1OsBBBBccBBBBBBBBBBccBBBBBBBBBBccBB:1OsBBBBccBB;1OsBBBBccBBBBBBBBBBccBBBBBBBBBB86",
"wBBBBBBBBBBccBs#mp+nBBBccBs#mp+nBBBccBs@mpOnBBBccBBBBBBBBBBccBBBBBBBBBBccBs@mp+nBBBccBs@mp+nBBBccBBBBBBBBBBccBBBBBBBBBB96",
"wBBBBBBBBBBcccOdBB*<BBBcccOdBB*<BBBcccOdBB*<BBBccBBBBBBBBBBccBBBBBBBBBBccnOdBB*<BBBccc+dBB*<BBBccBBBBBBBBBBccBBBBBBBBBB96",
"wBBBBBBBBBBcc>>BBBk.dBBcc>>BBBk dBBcc>>BBBk.dBBccBBBBBBBBBBccBBBBBBBBBBcc>>BBBk.dBBcc>>BBBk.dBBccBBBBBBBBBBccBBBBBBBBBB86",
"ucccccccccckkcccccccccckkcccccccccckkcccccccccckkcccccccccckkcccccccccckkcccccccccckkcccccccccckkcccccccccckkcccccccccvw7",
"ucccccccccckkcccccccccckkcccccccccckkcccccccccckkcccccccccckkcccccccccckkcccccccccckkcccccccccckkcccccccccckkccccccccccw8",
"wBBBBBBBBBBccBBBBBBBBBBccBBBBBBBBBBccBBBBBBBBBBccBBBBBBBBBBccBBBBBBBBBBccBBBBBBBBBBccBBBBBBBBBBccBBBBBBBBBBccBBBBBBBBBB86",
"wBBBBBBBBBBccBBBBBBBBBBccBBBBBBBBBBccq#mBBgolBBccBBBBBBBBBBccBBBBBBBBBBcc0#mBBgolBBccBBBBBBBBBBccBBBBBBBBBBccBBBBBBBBBB96",
"wBBBBBBBBBBccBBBBBBBBBBccBBBBBBBBBBccB&3BN%uBBBccBBBBBBBBBBccBBBBBBBBBBccB&3BN%uBBBccBBBBBBBBBBccBBBBBBBBBBccBBBBBBBBBB96",
"wBBBBBBBBBBccBBBBBBBBBBccBBBBBBBBBBccBkXg4-BBBBccBBBBBBBBBBccBBBBBBBBBBccBkXh4-BBBBccBBBBBBBBBBccBBBBBBBBBBccBBBBBBBBBB86",
"wBBBBBBBBBBccBBBBBBBBBBccBBBBBBBBBBccBBq#OzBBBBccBBBBBBBBBBccBBBBBBBBBBccBBq#OlBBBBccBBBBBBBBBBccBBBBBBBBBBccBBBBBBBBBB96",
"wBBBBBBBBBBccBBBBBBBBBBccBBBBBBBBBBccBBc -BBBBBccBBBBBBBBBBccBBBBBBBBBBccBBc -BBBBBccBBBBBBBBBBccBBBBBBBBBBccBBBBBBBBBB86",
"wBBBBBBBBBBccBBBBBBBBBBccBBBBBBBBBBccBB:1OsBBBBccBBBBBBBBBBccBBBBBBBBBBccBB:1OsBBBBccBBBBBBBBBBccBBBBBBBBBBccBBBBBBBBBB96",
"wBBBBBBBBBBccBBBBBBBBBBccBBBBBBBBBBccBs@mp+nBBBccBBBBBBBBBBccBBBBBBBBBBccBs@mpOnBBBccBBBBBBBBBBccBBBBBBBBBBccBBBBBBBBBB86",
"wBBBBBBBBBBccBBBBBBBBBBccBBBBBBBBBBccc+dBB*<BBBccBBBBBBBBBBccBBBBBBBBBBcccOdBB*<BBBccBBBBBBBBBBccBBBBBBBBBBccBBBBBBBBBB96",
"wBBBBBBBBBBccBBBBBBBBBBccBBBBBBBBBBcc>>BBBk.dBBccBBBBBBBBBBccBBBBBBBBBBcc>>BBBk.dBBccBBBBBBBBBBccBBBBBBBBBBccBBBBBBBBBB86",
"ucccccccccckkcccccccccckkcccccccccckkcccccccccckkcccccccccckkcccccccccckkcccccccccckkcccccccccckkcccccccccckkcccccccccvw7",
"ucccccccccckkcccccccccckkcccccccccckkcccccccccckkcccccccccckkcccccccccckkcccccccccckkcccccccccckkcccccccccckkccccccccccw8",
"wBBBBBBBBBBccBBBBBBBBBBccBBBBBBBBBBccBBBBBBBBBBccBBBBBBBBBBccBBBBBBBBBBccBBBBBBBBBBccBBBBBBBBBBccBBBBBBBBBBccBBBBBBBBBB96",
"wBBBBBBBBBBccBBBBBBBBBBccBBBBBBBBBBcc0#mBBgolBBccBBBBBBBBBBccBBBBBBBBBBccq#mBBgolBBccBBBBBBBBBBccBBBBBBBBBBccBBBBBBBBBB96",
"wBBBBBBBBBBccBBBBBBBBBBccBBBBBBBBBBccB&3BN%uBBBccBBBBBBBBBBccBBBBBBBBBBccB&3BN%uBBBccBBBBBBBBBBccBBBBBBBBBBccBBBBBBBBBB86",
"wBBBBBBBBBBccBBBBBBBBBBccBBBBBBBBBBccBkXh4-BBBBccBBBBBBBBBBccBBBBBBBBBBccBk.h4-BBBBccBBBBBBBBBBccBBBBBBBBBBccBBBBBBBBBB96",
"wBBBBBBBBBBccBBBBBBBBBBccBBBBBBBBBBccBBq#OzBBBBccBBBBBBBBBBccBBBBBBBBBBccBBq#OzBBBBccBBBBBBBBBBccBBBBBBBBBBccBBBBBBBBBB96",
"wBBBBBBBBBBccBBBBBBBBBBccBBBBBBBBBBccBBc -BBBBBccBBBBBBBBBBccBBBBBBBBBBccBBc -BBBBBccBBBBBBBBBBccBBBBBBBBBBccBBBBBBBBBB86",
"wBBBBBBBBBBccBBBBBBBBBBccBBBBBBBBBBccBB:1OsBBBBccBBBBBBBBBBccBBBBBBBBBBccBB:1+sBBBBccBBBBBBBBBBccBBBBBBBBBBccBBBBBBBBBB96",
"wBBBBBBBBBBccBBBBBBBBBBccBBBBBBBBBBccBs@mp+nBBBccBBBBBBBBBBccBBBBBBBBBBccBs@mp+nBBBccBBBBBBBBBBccBBBBBBBBBBccBBBBBBBBBB86",
"wBBBBBBBBBBccBBBBBBBBBBccBBBBBBBBBBcccOdBB*<BBBccBBBBBBBBBBccBBBBBBBBBBcccOdBB*<BBBccBBBBBBBBBBccBBBBBBBBBBccBBBBBBBBBB86",
"wBBBBBBBBBBccBBBBBBBBBBccBBBBBBBBBBcc>>BBBk.dBBccBBBBBBBBBBccBBBBBBBBBBcc>>BBBk.dBBccBBBBBBBBBBccBBBBBBBBBBccBBBBBBBBBB86",
"ucccccccccckkcccccccccckkcccccccccckkcccccccccckkcccccccccckkcccccccccckknccccccccckkcccccccccckkcccccccccckkcccccccccce7",
"ucccccccccckkcccccccccckkcccccccccckkcccccccccckkcccccccccckkcccccccccckkcccccccccckkcccccccccckkcccccccccckkcccccccccnw8",
"wBBBBBBBBBBccBBBBBBBBBBccBBBBBBBBBBccBBBBBBBBBBccBBBBBBBBBBccBBBBBBBBBBccBBBBBBBBBBccBBBBBBBBBBccBBBBBBBBBBccBBBBBBBBBB96",
"wBBBBBBBBBBccBBBBBBBBBBccBBBBBBBBBBccq#mBBgolBBccBBBBBBBBBBccBBBBBBBBBBcc0#mBBgXlBBccq#mBBgolBBccBBBBBBBBBBccBBBBBBBBBB86",
"wBBBBBBBBBBccBBBBBBBBBBccBBBBBBBBBBccB&3BN%uBBBccBBBBBBBBBBccBBBBBBBBBBccB&3BN%tBBBccB&3BN%uBBBccBBBBBBBBBBccBBBBBBBBBB96",
"wBBBBBBBBBBccBBBBBBBBBBccBBBBBBBBBBccBkXh4-BBBBccBBBBBBBBBBccBBBBBBBBBBccBkXh3-BBBBccBk.h4-BBBBccBBBBBBBBBBccBBBBBBBBBB86",
"wBBBBBBBBBBccBBBBBBBBBBccBBBBBBBBBBccBBq#OzBBBBccBBBBBBBBBBccBBBBBBBBBBccBBq$+zBBBBccBBq#OzBBBBccBBBBBBBBBBccBBBBBBBBBB96",
"wBBBBBBBBBBccBBBBBBBBBBccBBBBBBBBBBccBBc -BBBBBccBBBBBBBBBBccBBBBBBBBBBccBBc -BBBBBccBBc -BBBBBccBBBBBBBBBBccBBBBBBBBBB86",
"wBBBBBBBBBBccBBBBBBBBBBccBBBBBBBBBBccBB:1OsBBBBccBBBBBBBBBBccBBBBBBBBBBccBB:1+sBBBBccBB:1+sBBBBccBBBBBBBBBBccBBBBBBBBBB96",
"wBBBBBBBBBBccBBBBBBBBBBccBBBBBBBBBBccBs@mp+nBBBccBBBBBBBBBBccBBBBBBBBBBccBs@mp+nBBBccBs@mp+nBBBccBBBBBBBBBBccBBBBBBBBBB86",
"wBBBBBBBBBBccBBBBBBBBBBccBBBBBBBBBBcccOdBB*1BBBccBBBBBBBBBBccBBBBBBBBBBccc+dBB*<BBBccn+dBB*<BBBccBBBBBBBBBBccBBBBBBBBBB96",
"wBBBBBBBBBBccBBBBBBBBBBccBBBBBBBBBBcc>>BBBk dBBccBBBBBBBBBBccBBBBBBBBBBcc>>BBBk.dBBcc>>BBBk.dBBccBBBBBBBBBBccBBBBBBBBBB86",
"tcccccccccckkcccccccccckkcccccccccckkcccccccccckkcccccccccckkcccccccccckkcccccccccckkcccccccccckkcccccccccckkcccccccccvw8",
"ucccccccccckkcccccccccckkcccccccccckkcccccccccckkcccccccccckkcccccccccckkcccccccccckkcccccccccckkcccccccccckkccccccccccw8",
"wBBBBBBBBBBccBBBBBBBBBBccBBBBBBBBBBccBBBBBBBBBBccBBBBBBBBBBccBBBBBBBBBBccBBBBBBBBBBccBBBBBBBBBBccBBBBBBBBBBccBBBBBBBBBB86",
"wBBBBBBBBBBccBBBBBBBBBBcc0#mBBgolBBcc0#mBBgolBBccBBBBBBBBBBccBBBBBBBBBBccBBBBBBBBBBcc0#mBBgolBBccBBBBBBBBBBccBBBBBBBBBB96",
"wBBBBBBBBBBccBBBBBBBBBBccB&3BN%uBBBccB&3BN%uBBBccBBBBBBBBBBccBBBBBBBBBBccBBBBBBBBBBccB&3BN%uBBBccBBBBBBBBBBccBBBBBBBBBB96",
"wBBBBBBBBBBccBBBBBBBBBBccBkXh4-BBBBccBkXh4-BBBBccBBBBBBBBBBccBBBBBBBBBBccBBBBBBBBBBccBkXh4=BBBBccBBBBBBBBBBccBBBBBBBBBB86",
"wBBBBBBBBBBccBBBBBBBBBBccBBq#OzBBBBccBBq#OlBBBBccBBBBBBBBBBccBBBBBBBBBBccBBBBBBBBBBccBBq#OlBBBBccBBBBBBBBBBccBBBBBBBBBB96",
"wBBBBBBBBBBccBBBBBBBBBBccBBc -BBBBBccBBc -BBBBBccBBBBBBBBBBccBBBBBBBBBBccBBBBBBBBBBccBBc -BBBBBccBBBBBBBBBBccBBBBBBBBBB96",
"wBBBBBBBBBBccBBBBBBBBBBccBB:1OsBBBBccBB:1OsBBBBccBBBBBBBBBBccBBBBBBBBBBccBBBBBBBBBBccBB:1OsBBBBccBBBBBBBBBBccBBBBBBBBBB86",
"wBBBBBBBBBBccBBBBBBBBBBccBs@mpOnBBBccBs@mpOnBBBccBBBBBBBBBBccBBBBBBBBBBccBBBBBBBBBBccBs@mp+nBBBccBBBBBBBBBBccBBBBBBBBBB96",
"wBBBBBBBBBBccBBBBBBBBBBcccOdBB*<BBBccc+dBB*<BBBccBBBBBBBBBBccBBBBBBBBBBccBBBBBBBBBBccnOdBB*<BBBccBBBBBBBBBBccBBBBBBBBBB96",
"wBBBBBBBBBBccBBBBBBBBBBcc>>BBBk.dBBcc>>BBBk dBBccBBBBBBBBBBccBBBBBBBBBBccBBBBBBBBBBcc>>BBBk.dBBccBBBBBBBBBBccBBBBBBBBBB86",
"ucccccccccckkcccccccccckkcccccccccckkcnccccnccckkcccccccccckkcccccccccckkcccccccccckkcccccccccckkcccccccccckkcccccccccvw7",
"ucccccccccckkcccccccccckkcccccccccckkcccccccccckkcccccccccckkcccccccccckkcccccccccckkcccccccccckkcccccccccckkccccccccccw8",
"wBBBBBBBBBBccBBBBBBBBBBccBBBBBBBBBBccBBBBBBBBBBccBBBBBBBBBBccBBBBBBBBBBccBBBBBBBBBBccBBBBBBBBBBccBBBBBBBBBBccBBBBBBBBBB86",
"wBBBBBBBBBBccBBBBBBBBBBcc0#mBBgolBBcc0#mBBgolBBccBBBBBBBBBBccBBBBBBBBBBccq#mBBgolBBcc0#mBBgolBBccBBBBBBBBBBccBBBBBBBBBB96",
"wBBBBBBBBBBccBBBBBBBBBBccB&3BN%uBBBccB&3BN%uBBBccBBBBBBBBBBccBBBBBBBBBBccB&3BN%uBBBccB&3BN%uBBBccBBBBBBBBBBccBBBBBBBBBB96",
"wBBBBBBBBBBccBBBBBBBBBBccBkXh4=BBBBccBkXh4-BBBBccBBBBBBBBBBccBBBBBBBBBBccBkXh3-BBBBccBkXh4-BBBBccBBBBBBBBBBccBBBBBBBBBB86",
"wBBBBBBBBBBccBBBBBBBBBBccBBq#OzBBBBccBBq#OlBBBBccBBBBBBBBBBccBBBBBBBBBBccBBq$+zBBBBccBBq#OzBBBBccBBBBBBBBBBccBBBBBBBBBB96",
"wBBBBBBBBBBccBBBBBBBBBBccBBc -BBBBBccBBc -BBBBBccBBBBBBBBBBccBBBBBBBBBBccBBc -BBBBBccBBc -BBBBBccBBBBBBBBBBccBBBBBBBBBB86",
"wBBBBBBBBBBccBBBBBBBBBBccBB:1OsBBBBccBB:1OsBBBBccBBBBBBBBBBccBBBBBBBBBBccBB:1+sBBBBccBB:1OsBBBBccBBBBBBBBBBccBBBBBBBBBB96",
"wBBBBBBBBBBccBBBBBBBBBBccBs@mpOnBBBccBs@mp+nBBBccBBBBBBBBBBccBBBBBBBBBBccBs@mp+nBBBccBs@mp+nBBBccBBBBBBBBBBccBBBBBBBBBB86",
"wBBBBBBBBBBccBBBBBBBBBBcccOdBB*<BBBcccOdBB*<BBBccBBBBBBBBBBccBBBBBBBBBBccnOdBB*<BBBccc+dBB*<BBBccBBBBBBBBBBccBBBBBBBBBB96",
"wBBBBBBBBBBccBBBBBBBBBBcc>>BBBk.dBBcc>>BBBk.dBBccBBBBBBBBBBccBBBBBBBBBBcc>>BBBk dBBcc>>BBBk.dBBccBBBBBBBBBBccBBBBBBBBBB86",
"ucccccccccckkcccccccccckkcccccccccckknccccccccckkcccccccccckkcccccccccckkcccccccccckkcccccccccckkcccccccccckkcccccccccvw7",
"ucccccccccckkcccccccccckkcccccccccckkcccccccccckkcccccccccckkcccccccccckkcccccccccckkcccccccccckkcccccccccckkccccccccccw8",
"wBBBBBBBBBBccBBBBBBBBBBccBBBBBBBBBBccBBBBBBBBBBccBBBBBBBBBBccBBBBBBBBBBccBBBBBBBBBBccBBBBBBBBBBccBBBBBBBBBBccBBBBBBBBBB96",
"wBBBBBBBBBBccBBBBBBBBBBccBBBBBBBBBBcc0#mBBgXlBBcc0#mBBgolBBcc0#mBBgXlBBcc0#mBBgolBBccBBBBBBBBBBccBBBBBBBBBBccBBBBBBBBBB96",
"wBBBBBBBBBBccBBBBBBBBBBccBBBBBBBBBBccB&3BN%uBBBccB&3BN%uBBBccB&3BN%uBBBccB&3BN%uBBBccBBBBBBBBBBccBBBBBBBBBBccBBBBBBBBBB86",
"wBBBBBBBBBBccBBBBBBBBBBccBBBBBBBBBBccBkXh4-BBBBccBkXh4-BBBBccBkXh4-BBBBccBkXh4-BBBBccBBBBBBBBBBccBBBBBBBBBBccBBBBBBBBBB96",
"wBBBBBBBBBBccBBBBBBBBBBccBBBBBBBBBBccBBq#OzBBBBccBBq#OlBBBBccBBq#OzBBBBccBBq#OzBBBBccBBBBBBBBBBccBBBBBBBBBBccBBBBBBBBBB96",
"wBBBBBBBBBBccBBBBBBBBBBccBBBBBBBBBBccBBc -BBBBBccBBc -BBBBBccBBc -BBBBBccBBc -BBBBBccBBBBBBBBBBccBBBBBBBBBBccBBBBBBBBBB86",
"wBBBBBBBBBBccBBBBBBBBBBccBBBBBBBBBBccBB:1OsBBBBccBB:1OsBBBBccBB:1OsBBBBccBB:1OsBBBBccBBBBBBBBBBccBBBBBBBBBBccBBBBBBBBBB96",
"wBBBBBBBBBBccBBBBBBBBBBccBBBBBBBBBBccBs#mp+nBBBccBs@mp+nBBBccBs#mpOnBBBccBs@mpOnBBBccBBBBBBBBBBccBBBBBBBBBBccBBBBBBBBBB86",
"wBBBBBBBBBBccBBBBBBBBBBccBBBBBBBBBBcccOdBB*<BBBccnOdBB*<BBBcccOdBB*<BBBccc+dBB*<BBBccBBBBBBBBBBccBBBBBBBBBBccBBBBBBBBBB86",
"wBBBBBBBBBBccBBBBBBBBBBccBBBBBBBBBBcc>>BBBk.dBBcc>>BBBk.dBBcc>>BBBk.dBBcc>>BBBk.dBBccBBBBBBBBBBccBBBBBBBBBBccBBBBBBBBBB86",
"ucccccccccckkcccccccccckkcccccccccckkcccccccccckkcccccccccckkcccccccccckkcccccccccckkcccccccccckkcccccccccckkcccccccccce7",
"ucccccccccckkcccccccccckkcccccccccckkcccccccccckkcccccccccckkcccccccccckkcccccccccckkcccccccccckkcccccccccckkcccccccccnw7",
"wBBBBBBBBBBccBBBBBBBBBBccBBBBBBBBBBccBBBBBBBBBBccBBBBBBBBBBccBBBBBBBBBBccBBBBBBBBBBccBBBBBBBBBBccBBBBBBBBBBccBBBBBBBBBB96",
"wBBBBBBBBBBccBBBBBBBBBBccBBBBBBBBBBccBBBBBBBBBBccBBBBBBBBBBccBBBBBBBBBBccBBBBBBBBBBccBBBBBBBBBBccBBBBBBBBBBccBBBBBBBBBB86",
"wBBBBBBBBBBccBBBBBBBBBBccBBBBBBBBBBccBBBBBBBBBBccBBBBBBBBBBccBBBBBBBBBBccBBBBBBBBBBccBBBBBBBBBBccBBBBBBBBBBccBBBBBBBBBB86",
"wBBBBBBBBBBccBBBBBBBBBBccBBBBBBBBBBccBBBBBBBBBBccBBBBBBBBBBccBBBBBBBBBBccBBBBBBBBBBccBBBBBBBBBBccBBBBBBBBBBccBBBBBBBBBB86",
"wBBBBBBBBBBccBBBBBBBBBBccBBBBBBBBBBccBBBBBBBBBBccBBBBBBBBBBccBBBBBBBBBBccBBBBBBBBBBccBBBBBBBBBBccBBBBBBBBBBccBBBBBBBBBB96",
"wBBBBBBBBBBccBBBBBBBBBBccBBBBBBBBBBccBBBBBBBBBBccBBBBBBBBBBccBBBBBBBBBBccBBBBBBBBBBccBBBBBBBBBBccBBBBBBBBBBccBBBBBBBBBB86",
"wBBBBBBBBBBccBBBBBBBBBBccBBBBBBBBBBccBBBBBBBBBBccBBBBBBBBBBccBBBBBBBBBBccBBBBBBBBBBccBBBBBBBBBBccBBBBBBBBBBccBBBBBBBBBB96",
"wBBBBBBBBBBccBBBBBBBBBBccBBBBBBBBBBccBBBBBBBBBBccBBBBBBBBBBccBBBBBBBBBBccBBBBBBBBBBccBBBBBBBBBBccBBBBBBBBBBccBBBBBBBBBB86",
"wBBBBBBBBBBccBBBBBBBBBBccBBBBBBBBBBccBBBBBBBBBBccBBBBBBBBBBccBBBBBBBBBBccBBBBBBBBBBccBBBBBBBBBBccBBBBBBBBBBccBBBBBBBBBB96",
"wBBBBBBBBBBvcBBBBBBBBBBcnBBBBBBBBBBccBBBBBBBBBBccBBBBBBBBBBvcBBBBBBBBBBcnBBBBBBBBBBccBBBBBBBBBBccBBBBBBBBBBvcBBBBBBBBBB86",
"38998998998ww8999899899ww9899899989ww9989989989ww8998998998ww8999899898ww9899899989ww9889989989ww8998998998ww8999899899;6",
"756666666667966666666668866666666667866666666667866666666668866666666668866666666667866666666667866666666668866666666666n"
};
