/* XPM */
const char *Import_xpm[] = {
/* columns rows colors chars-per-pixel */
"121 121 61 1 ",
"  c black",
". c #040404",
"X c gray2",
"o c #060606",
"O c #070707",
"+ c #131313",
"@ c gray9",
"# c #191919",
"$ c gray10",
"% c #1D1D1D",
"& c gray12",
"* c #252525",
"= c #272727",
"- c gray20",
"; c #353535",
": c #393939",
"> c #3F3F3F",
", c gray29",
"< c gray31",
"1 c #535353",
"2 c #555555",
"3 c #5A5D5D",
"4 c #737576",
"5 c #767676",
"6 c #777777",
"7 c gray50",
"8 c #818181",
"9 c gray53",
"0 c #868888",
"q c #898B8C",
"w c #8F9192",
"e c gray57",
"r c #909292",
"t c #919393",
"y c gray58",
"u c gray59",
"i c #9D9D9E",
"p c #9C9E9E",
"a c #9D9E9E",
"s c #A5A5A6",
"d c #A5A6A6",
"f c gray65",
"g c gray70",
"h c #B4B4B4",
"j c gray71",
"k c #CBCBCB",
"l c gray81",
"z c #D7D7D7",
"x c #D8D8D8",
"c c gray85",
"v c #DADADA",
"b c gainsboro",
"n c #DDDDDD",
"m c gray89",
"M c gray92",
"N c gray93",
"B c #EFEFEF",
"V c #EFF0F1",
"C c #F6F6F6",
"Z c gray99",
"A c white",
/* pixels */
"0iiiiiiiiiiddiiiiiiiiiiddiiiiiiiiiiddiiiiiiiiiiddiiiiiiiiiiddiiiiiiiiiiddiiiiiiiiiiddiiiiiiiiiiddiiiiiiiiiiddiiiiiiiiii4w",
"iAAAAAAAAAABBAAAAAAAAAABBAAAAAAAAAABBAAAAAAAAAABBAAAAAAAAAABBAAAAAAAAAABBAAAAAAAAAABBAAAAAAAAAABBAAAAAAAAAABBAAAAAAAAAAtq",
"iAAAAAAAAAABBAAAAAAAAAABBAAAAAAAAAABBAAAAAAAAAABBAAAAAAAAAABBAAAAAAAAAABBAAAAAAAAAABBAAAAAAAAAABBAAAAAAAAAABBAAAAAAAAAAtq",
"iAAAAAAAAAABBAAAAAAAAAABBAAAAAAAAAABBAAAAAAAAAABBAAAAAAAAAABBAAAAAAAAAABBAAAAAAAAAABBAAAAAAAAAABBAAAAAAAAAABBAAAAAAAAAAeq",
"iAAAAAAAAAABBAAAAAAAAAABBAAAAAAAAAABBAAAAAAAAAABBAAAAAAAAAABBAAAAAAAAAABBAAAAAAAAAABBAAAAAAAAAABBAAAAAAAAAABBAAAAAAAAAAtq",
"iAAAAAAAAAABBAAAAAAAAAABBAAAAAAAAAABBAAAAAAAAAABBAAAAAAAAAABBAAAAAAAAAABBAAAAAAAAAABBAAAAAAAAAABBAAAAAAAAAABBAAAAAAAAAAtq",
"iAAAAAAAAAABBAAAAAAAAAABBAAAAAAAAAABBAAAAAAAAAABBAAAAAAAAAABBAAAAAAAAAABBAAAAAAAAAABBAAAAAAAAAABBAAAAAAAAAABBAAAAAAAAAAeq",
"iAAAAAAAAAABBAAAAAAAAAABBAAAAAAAAAABBAAAAAAAAAABBAAAAAAAAAABBAAAAAAAAAABBAAAAAAAAAABBAAAAAAAAAABBAAAAAAAAAABBAAAAAAAAAAtq",
"iAAAAAAAAAABBAAAAAAAAAABBAAAAAAAAAABBAAAAAAAAAABBAAAAAAAAAABBAAAAAAAAAABBAAAAAAAAAABBAAAAAAAAAABBAAAAAAAAAABBAAAAAAAAAAeq",
"iAAAAAAAAAABBAAAAAAAAAABBAAAAAAAAAABBAAAAAAAAAABBAAAAAAAAAABBAAAAAAAAAABBAAAAAAAAAABBAAAAAAAAAABBAAAAAAAAAABBAAAAAAAAAAtq",
"iAAAAAAAAAABBAAAAAAAAAABBAAAAAAAAAABBAAAAAAAAAABBAAAAAAAAAABBAAAAAAAAAABBAAAAAAAAAABBAAAAAAAAAABBAAAAAAAAAABBAAAAAAAAAAeq",
"dBBBBBBBBBBmmBBBBBBBBBBmmBBBBBBBBBBmmBBBBBBBBBBmmBBBBBBBBBBmmBBBBBBBBBBmmBBBBBBBBBBmmBBBBBBBBBBmmBBBBBBBBBBmmBBBBBBBBBBpw",
"dBBBBBBBBBBmmBBBBBBBBBBmmBBBBBBBBBBmmBBBBBBBBBBmmBBBBBBBBBBmmBBBBBBBBBBmmBBBBBBBBBBmmBBBBBBBBBBmmBBBBBBBBBBmmBBBBBBBBBVit",
"iAAAAAAAAAABBAAAAAAAAAABBAAAAAAAAAABBAAAAAAAAAABBAAAAAAAAAABBAAAAAAAAAABBAAAAAAAAAABBAAAAAAAAAABBAAAAAAAAAABBAAAAAAAAAAtq",
"iAAAAAAAAAABBAAAAAAAAAABBAAAAAAAAAABBAAAAAAAAAABBAAAAAAAAAABBAAAAAAAAAABBAAAAAAAAAABBAAAAAAAAAABBAAAAAAAAAABBAAAAAAAAAAeq",
"iAAAAAAAAAABBAAAAAAAAAABBAAAAAAAAAABBAAAxCAAAAABBAAAxCAAAAABBAAAxCAAAAABBAAAzCAAAAABBAAAAAAAAAABBAAAAAAAAAABBAAAAAAAAAAtq",
"iAAAAAAAAAABBAAAAAAAAAABBAAAAAAAAAABBAAA>lAAAAABBAAA>lAAAAABBAAA>lAAAAABBAAA>lAAAAABBAAAAAAAAAABBAAAAAAAAAABBAAAAAAAAAAeq",
"iAAAAAAAAAABBAAAAAAAAAABBAAAAAAAAAABBAAA>lAAAAABBAAA>lAAAAABBAAA>lAAAAABBAAA>lAAAAABBAAAAAAAAAABBAAAAAAAAAABBAAAAAAAAAAtq",
"iAAAAAAAAAABBAAAAAAAAAABBAAAAAAAAAABBg@@X+@,AAABBg@@X+@,AAABBg@@X+@,AAABBg@@X+@,AAABBAAAAAAAAAABBAAAAAAAAAABBAAAAAAAAAAeq",
"iAAAAAAAAAABBAAAAAAAAAABBAAAAAAAAAABBAAA>lAAAAABBAAA>lAAAAABBAAA>lAAAAABBAAA>lAAAAABBAAAAAAAAAABBAAAAAAAAAABBAAAAAAAAAAtq",
"iAAAAAAAAAABBAAAAAAAAAABBAAAAAAAAAABBAAA>lAAAAABBAAA>lAAAAABBAAA>lAAAAABBAAA>lAAAAABBAAAAAAAAAABBAAAAAAAAAABBAAAAAAAAAAeq",
"iAAAAAAAAAABBAAAAAAAAAABBAAAAAAAAAABBAAA>lAAAAABBAAA>lAAAAABBAAA>lAAAAABBAAA>lAAAAABBAAAAAAAAAABBAAAAAAAAAABBAAAAAAAAAAtq",
"iAAAAAAAAAABBAAAAAAAAAABBAAAAAAAAAABBAAAAAAAAAABBAAAAAAAAAABBAAAAAAAAAABBAAAAAAAAAABBAAAAAAAAAABBAAAAAAAAAABBAAAAAAAAAAeq",
"dBBBBBBBBBBmmBBBBBBBBBBmmBBBBBBBBBBmmBBBBBBBBBBmmBBBBBBBBBBmmBBBBBBBBBBmmBBBBBBBBBBmmBBBBBBBBBBmmBBBBBBBBBBmmBBBBBBBBBViw",
"dBBBBBBBBBBmmBBBBBBBBBBmmBBBBBBBBBBmmBBBBBBBBBBmmBBBBBBBBBBmmBBBBBBBBBBmmBBBBBBBBBBmmBBBBBBBBBBmmBBBBBBBBBBmmBBBBBBBBBBiw",
"iAAAAAAAAAABBAAAAAAAAAABBAAAAAAAAAABBAAA&MAAAAABBAAA&MAAAAABBAAA&MAAAAABBAAA&MAAAAABBAAAAAAAAAABBAAAAAAAAAABBAAAAAAAAAAeq",
"iAAAAAAAAAABBAAAAAAAAAABBAAAAAAAAAABBAAA&MAAAAABBAAA&MAAAAABBAAA&MAAAAABBAAA&MAAAAABBAAAAAAAAAABBAAAAAAAAAABBAAAAAAAAAAtq",
"iAAAAAAAAAABBAAAAAAAAAABBAAAAAAAAAABBAAA&MAAAAABBAAA&MAAAAABBAAA&MAAAAABBAAA&MAAAAABBAAAAAAAAAABBAAAAAAAAAABBAAAAAAAAAAtq",
"iAAAAAAAAAABBAAAAAAAAAABBAAAAAAAAAABBAAA&MAAAAABBAAA&MAAAAABBAAA&MAAAAABBAAA&MAAAAABBAAAAAAAAAABBAAAAAAAAAABBAAAAAAAAAAeq",
"iAAAAAAAAAABBAAAAAAAAAABBAAAAAAAAAABBAAA&MAAAAABBAAA&MAAAAABBAAA&MAAAAABBAAA&MAAAAABBAAAAAAAAAABBAAAAAAAAAABBAAAAAAAAAAtq",
"iAAAAAAAAAABBAAAAAAAAAABBAAAAAAAAAABBAAA&MAAAAABBAAA&MAAAAABBAAA&MAAAAABBAAA&MAAAAABBAAAAAAAAAABBAAAAAAAAAABBAAAAAAAAAAtq",
"iAAAAAAAAAABBAAAAAAAAAABBAAAAAAAAAABBAAA&MAAAAABBAAA&MAAAAABBAAA&MAAAAABBAAA&MAAAAABBAAAAAAAAAABBAAAAAAAAAABBAAAAAAAAAAeq",
"iAAAAAAAAAABBAAAAAAAAAABBAAAAAAAAAABBAAA&MAAAAABBAAA&MAAAAABBAAA&MAAAAABBAAA&MAAAAABBAAAAAAAAAABBAAAAAAAAAABBAAAAAAAAAAtq",
"iAAAAAAAAAABBAAAAAAAAAABBAAAAAAAAAABBAAA&MAAAAABBAAA&MAAAAABBAAA&MAAAAABBAAA&MAAAAABBAAAAAAAAAABBAAAAAAAAAABBAAAAAAAAAAtq",
"iAAAAAAAAAABBAAAAAAAAAABBAAAAAAAAAABBAAA&MAAAAABBAAA&MAAAAABBAAA&MAAAAABBAAA&MAAAAABBAAAAAAAAAABBAAAAAAAAAABBAAAAAAAAAAeq",
"sBBBBBBBBBBmmBBBBBBBBBBmmBBBBBBBBBBmmBBB&bBBBBBmmBBB&bBBBBBmmBBB&bBBBBBmmBBB&vBBBBBmmBBBBBBBBBBmmBBBBBBBBBBmmBBBBBBBBBVpw",
"dBBBBBBBBBBmmBBBBBBBBBBmmBBBBBBBBBBmmBBB%vBBBBBmmBBB%vBBBBBmmBBB%vBBBBBmmBBB%vBBBBBmmBBBBBBBBBBmmBBBBBBBBBBmmBBBBBBBBBBit",
"iAAAAAAAAAABBAAAAAAAAAABBAAAAAAAAAABBAAA.vAAAAABBAAA.vAAAAABBAAA.vAAAAABBAAA.vAAAAABBAAAAAAAAAABBAAAAAAAAAABBAAAAAAAAAAeq",
"iAAAAAAAAAABBAAAAAAAAAABBAAAAAAAAAABBAAA&MAAAAABBAAA&MAAAAABBAAA&MAAAAABBAAA&MAAAAABBAAAAAAAAAABBAAAAAAAAAABBAAAAAAAAAAtq",
"iAAAAAAAAAABBAAAAAAAAAABBAAAAAAAAAABBAAA&MAAAAABBAAA&MAAAAABBAAA&MAAAAABBAAA&MAAAAABBAAAAAAAAAABBAAAAAAAAAABBAAAAAAAAAAtq",
"iAAAAAAAAAABBAAAAAAAAAABBAAAAAAAAAABBAAA&MAAAAABBAAA&MAAAAABBAAA&MAAAAABBAAA&MAAAAABBAAAAAAAAAABBAAAAAAAAAABBAAAAAAAAAAeq",
"iAAAAAAAAAABBAAAAAAAAAABBAAAAAAAAAABBAAA&MAAAAABBAAA&MAAAAABBAAA&MAAAAABBAAA&MAAAAABBAAAAAAAAAABBAAAAAAAAAABBAAAAAAAAAAtq",
"iAAAAAAAAAABBAAAAAAAAAABBAAAAAAAAAABBAAA&MAAAAABBAAA&MAAAAABBAAA&MAAAAABBAAA&MAAAAABBAAAAAAAAAABBAAAAAAAAAABBAAAAAAAAAAeq",
"iAAAAAAAAAABBAAAAAAAAAABBAAAAAAAAAABBAAA&MAAAAABBAAA&MAAAAABBAAA&MAAAAABBAAA&MAAAAABBAAAAAAAAAABBAAAAAAAAAABBAAAAAAAAAAtq",
"iAAAAAAAAAABBAAAAAAAAAABBAAAAAAAAAABBAAA&MAAAAABBAAA&MAAAAABBAAA&MAAAAABBAAA&MAAAAABBAAAAAAAAAABBAAAAAAAAAABBAAAAAAAAAAeq",
"iAAAAAAAAAABBAAAAAAAAAABBAAAAAAAAAABBAAA&MAAAAABBAAA&MAAAAABBAAA&MAAAAABBAAA&MAAAAABBAAAAAAAAAABBAAAAAAAAAABBAAAAAAAAAAtq",
"iAAAAAAAAAABBAAAAAAAAAABBAAAAAAAAAABBAAA&MAAAAABBAAA&MAAAAABBAAA&MAAAAABBAAA&MAAAAABBAAAAAAAAAABBAAAAAAAAAABBAAAAAAAAAAeq",
"sBBBBBBBBBBmmBBBBBBBBBBmmBBBBBBBBBBmmBBB&vBBBBBmmBBB&vBBBBBmmBBB&vBBBBBmmBBB&vBBBBBmmBBBBBBBBBBmmBBBBBBBBBBmmBBBBBBBBBVpw",
"dBBBBBBBBBBmmBBBBBBBBBBmmBBBBBBBBBBmmBBB&vBBBBBmmBBB&vBBBBBmmBBB%vBBBBBmmBBB&vBBBBBmmBBBBBBBBBBmmBBBBBBBBBBmmBBBBBBBBBBiw",
"iAAAAAAAAAABBAAAAAAAAAABBAAAAAAAAAABBAAA.vAAAAABBAAA.zAAAAABBAAA.vAAAAABBAAA.vAAAAABBAAAAAAAAAABBAAAAAAAAAABBAAAAAAAAAAtq",
"iAAAAAAAAAABBAAAAAAAAAABBAAAAAAAAAABBAAA&MAAAAABBAAA&MAAAAABBAAA&MAAAAABBAAA&MAAAAABBAAAAAAAAAABBAAAAAAAAAABBAAAAAAAAAAtq",
"iAAAAAAAAAABBAAAAAAAAAABBAAAAAAAAAABBAAA&MAAAAABBAAA&MAAAAABBAAA&MAAAAABBAAA&MAAAAABBAAAAAAAAAABBAAAAAAAAAABBAAAAAAAAAAeq",
"iAAAAAAAAAABBAAAAAAAAAABBAAAAAAAAAABBAAA&MAAAAABBAAA&MAAAAABBAAA&MAAAAABBAAA&MAAAAABBAAAAAAAAAABBAAAAAAAAAABBAAAAAAAAAAtq",
"iAAAAAAAAAABBAAAAAAAAAABBAAAAAAAAAABBAAA&MAAAAABBAAA&MAAAAABBAAA&MAAAAABBAAA&MAAAAABBAAAAAAAAAABBAAAAAAAAAABBAAAAAAAAAAtq",
"iAAAAAAAAAABBAAAAAAAAAABBAAAAAAAAAABBAAA&MAAAAABBAAA&MAAAAABBAAA&MAAAAABBAAA&MAAAAABBAAAAAAAAAABBAAAAAAAAAABBAAAAAAAAAAeq",
"iAAAAAAAAAABBAAAAAAAAAABBAAAAAAAAAABBAAA&MAAAAABBAAA&MAAAAABBAAA&MAAAAABBAAA&MAAAAABBAAAAAAAAAABBAAAAAAAAAABBAAAAAAAAAAtq",
"iAAAAAAAAAABBAAAAAAAAAABBAAAAAAAAAABBAAA&MAAAAABBAAA&MAAAAABBAAA&MAAAAABBAAA&MAAAAABBAAAAAAAAAABBAAAAAAAAAABBAAAAAAAAAAeq",
"iAAAAAAAAAABBAAAAAAAAAABBAAAAAAAAAABBAAA&MAAAAABBAAA&MAAAAABBAAA&MAAAAABBAAA&MAAAAABBAAAAAAAAAABBAAAAAAAAAABBAAAAAAAAAAtq",
"iAAAAAAAAAABBAAAAAAAAAABBAAAAAAAAAABBAAA&MAAAAABBAAA&MAAAAABBAAA&MAAAAABBAAA&MAAAAABBAAAAAAAAAABBAAAAAAAAAABBAAAAAAAAAAeq",
"sBBBBBBBBBBmmBBBBBBBBBBmmBBBBBBBBBBmmBBB&vBBBBBmmBBB&bBBBBBmmBBB&vBBBBBmmBBB&bBBBBBmmBBBBBBBBBBmmBBBBBBBBBBmmBBBBBBBBBBpw",
"dBBBBBBBBBBmmBBBBBBBBBBmmBBBBBBBBBBmmBBB&vBBBBBmmBBB%vBBBBBmmBBB&vBBBBBmmBBB%vVBBBBmmBBBBBBBBBBmmBBBBBBBBBBmmBBBBBBBBBVit",
"iAAAAAAAAAABBAAAAAAAAAABBAAAAAAAAAABBAAA.xAAAAABBAAA.vAAAAABBAAA.xAAAAABBAAA.vAAAAABBAAAAAAAAAABBAAAAAAAAAABBAAAAAAAAAAtq",
"iAAAAAAAAAABBAAAAAAAAAABBAAAAAAAAAABBAAA&MAAAAABBAAA&MAAAAABBAAA&MAAAAABBAAA&MAAAAABBAAAAAAAAAABBAAAAAAAAAABBAAAAAAAAAAeq",
"iAAAAAAAAAABBAAAAAAAAAABBAAAAAAAAAABBAAA&MAAAAABBAAA&MAAAAABBAAA&MAAAAABBAAA&MAAAAABBAAAAAAAAAABBAAAAAAAAAABBAAAAAAAAAAtq",
"iAAAAAAAAAABBAAAAAAAAAABBAAAAAAAAAABBAAA&MAAAAABBAAA&MAAAAABBAAA&MAAAAABBAAA&MAAAAABBAAAAAAAAAABBAAAAAAAAAABBAAAAAAAAAAeq",
"iAAAAAAAAAABBAAAAAAAAAABBAAAAAAAAAABBAAA&MAAAAABBAAA&MAAAAABBAAA&MAAAAABBAAA&MAAAAABBAAAAAAAAAABBAAAAAAAAAABBAAAAAAAAAAtq",
"iAAAAAAAAAABBAAAAAAAAAABBAAAAAAAAAABBAAA&MAAAAABBAAA&MAAAAABBAAA&MAAAAABBAAA&MAAAAABBAAAAAAAAAABBAAAAAAAAAABBAAAAAAAAAAeq",
"iAAAAAAAAAABBAAAAAAAAAABBAAAAAAAAAABBAAA&MAAAAABBAAA&MAAAAABBAAA&MAAAAABBAAA&MAAAAABBAAAAAAAAAABBAAAAAAAAAABBAAAAAAAAAAtq",
"iAAAAAAAAAABBAAAAAAAAAABBAAAAAAAAAABBAAA&MAAAAABBAAA&MAAAAABBAAA&MAAAAABBAAA&MAAAAABBAAAAAAAAAABBAAAAAAAAAABBAAAAAAAAAAeq",
"iAAAAAAAAAABBAAAAAAAAAABBAAAAAAAAAABBAAA&MAAAAABBAAA&MAAAAABBAAA&MAAAAABBAAA&MAAAAABBAAAAAAAAAABBAAAAAAAAAABBAAAAAAAAAAtq",
"iAAAAAAAAAABBAAAAAAAAAABBAAAAAAAAAABBAAA&MAAAAABBAAA&MAAAAABBAAA&MAAAAABBAAA&MAAAAABBAAAAAAAAAABBAAAAAAAAAABBAAAAAAAAAAeq",
"sBBBBBBBBBBmmBBBBBBBBBBmmBBBBBBBBBBmmBBB#nBBBBBmmBBB&vBBBBBmmBBB&vBBBBBmmBBB&vBBBBBmmBBBBBBBBBBmmBBBBBBBBBBmmBBBBBBBBBVpw",
"dBBBBBBBBBBmmBBBBBBBBBBmmBBBBBBBBBBmmBBB&vBBBBBmmBBB&vBBBBBmmBBB&vBBBBBmmBBB&vBBBBBmmBBBBBBBBBBmmBBBBBBBBBBmmBBBBBBBBBBiw",
"iAAAAAAAAAABBAAAAAAAAAABBAAAAAAAAAABBAAA&MAAAAABBAAA.vAAAAABBAAA.zAAAAABBAAA&MAAAAABBAAAAAAAAAABBAAAAAAAAAABBAAAAAAAAAAeq",
"iAAAAAAAAAABBAAAAAAAAAABBAAAAAAAAAABBAAAAAAAAAABBAAA&MAAAAABBAAA&MAAAAABBAAAAAAAAAABBAAAAAAAAAABBAAAAAAAAAABBAAAAAAAAAAtq",
"iAAAAAAAAAABBAAAAAAAAAABBAAAAAAAAAABBAAAAAAAAAABBAAA&MAAAAABBAAA&MAAAAABBAAAAAAAAAABBAAAAAAAAAABBAAAAAAAAAABBAAAAAAAAAAtq",
"iAAAAAAAAAABBAAAAAAAAAABBAAAAAAAAAABB-uAAA-eAAABBAAA&MAAAAABBAAA&MAAAAABB-uAAA;eAAABBAAAAAAAAAABBAAAAAAAAAABBAAAAAAAAAAeq",
"iAAAAAAAAAABBAAAAAAAAAABBAAAAAAAAAABBu:AAvXMAAABBAAA&MAAAAABBAAA&MAAAAABBu:AAvXMAAABBAAAAAAAAAABBAAAAAAAAAABBAAAAAAAAAAtq",
"iAAAAAAAAAABBAAAAAAAAAABBAAAAAAAAAABBBXnA71AAAABBAAA&MAAAAABBAAA&MAAAAABBBXnA71AAAABBAAAAAAAAAABBAAAAAAAAAABBAAAAAAAAAAtq",
"iAAAAAAAAAABBAAAAAAAAAABBAAAAAAAAAABBA28A=gAAAABBAAA&MAAAAABBAAA&MAAAAABBA28A=gAAAABBAAAAAAAAAABBAAAAAAAAAABBAAAAAAAAAAeq",
"iAAAAAAAAAABBAAAAAAAAAABBAAAAAAAAAABBAh=k#AAAAABBAAA&MAAAAABBAAA&MAAAAABBAh=k#ZAAAABBAAAAAAAAAABBAAAAAAAAAABBAAAAAAAAAAtq",
"iAAAAAAAAAABBAAAAAAAAAABBAAAAAAAAAABBAA#,6AAAAABBAAA&MAAAAABBAAA&MAAAAABBAA#,5AAAAABBAAAAAAAAAABBAAAAAAAAAABBAAAAAAAAAAtq",
"iAAAAAAAAAABBAAAAAAAAAABBAAAAAAAAAABBAA5.zAAAAABBAAA&MAAAAABBAAA&MAAAAABBAA5.zAAAAABBAAAAAAAAAABBAAAAAAAAAABBAAAAAAAAAAeq",
"sBBBBBBBBBBmmBBBBBBBBBBmmBBBBBBBBBBmmBBBBBBBBBBmmBBB&nBBBBBmmBBB&vBBBBBmmBBBBBBBBBBmmBBBBBBBBBBmmBBBBBBBBBBmmBBBBBBBBBVpw",
"dBBBBBBBBBBmmBBBBBBBBBBmmBBBBBBBBBBmmBBBBBBBBBBmmBBB&vBBBBBmmBBB&vBBBBBmmBBBBBBBBBBmmBBBBBBBBBBmmBBBBBBBBBBmmBBBBBBBBBBit",
"iAAAAAAAAAABBAAAAAAAAAABBAAAAAAAAAABBAAAAAAAAAABBAAA&MAAAAABBAAA&MAAAAABBAAAAAAAAAABBAAAAAAAAAABBAAAAAAAAAABBAAAAAAAAAAeq",
"iAAAAAAAAAABBAAAAAAAAAABBAAAAAAAAAABBAAAAAAAAAABBAAAAAAAAAABBAAAAAAAAAABBAAAAAAAAAABBAAAAAAAAAABBAAAAAAAAAABBAAAAAAAAAAtq",
"iAAAAAAAAAABBAAAAAAAAAABBAAAAAAAAAABBAAAAAAAAAABBAAAAAAAAAABBAAAAAAAAAABBAAAAAAAAAABBAAAAAAAAAABBAAAAAAAAAABBAAAAAAAAAAtq",
"iAAAAAAAAAABBAAAAAAAAAABBAAAAAAAAAABBAAAAAAAAAABB-uAAA;eAAABB-uAAA;eAAABBAAAAAAAAAABBAAAAAAAAAABBAAAAAAAAAABBAAAAAAAAAAeq",
"iAAAAAAAAAABBAAAAAAAAAABBAAAAAAAAAABBAAAAAAAAAABBe:AAvXMAAABBe:AAvXMAAABBAAAAAAAAAABBAAAAAAAAAABBAAAAAAAAAABBAAAAAAAAAAtq",
"iAAAAAAAAAABBAAAAAAAAAABBAAAAAAAAAABBAAAAAAAAAABBBXnA71AAAABBBXnA71AAAABBAAAAAAAAAABBAAAAAAAAAABBAAAAAAAAAABBAAAAAAAAAAeq",
"iAAAAAAAAAABBAAAAAAAAAABBAAAAAAAAAABBAAAAAAAAAABBA28A=hAAAABBA28A=gAAAABBAAAAAAAAAABBAAAAAAAAAABBAAAAAAAAAABBAAAAAAAAAAtq",
"iAAAAAAAAAABBAAAAAAAAAABBAAAAAAAAAABBAAAAAAAAAABBAh=k#AAAAABBAh=k#ZAAAABBAAAAAAAAAABBAAAAAAAAAABBAAAAAAAAAABBAAAAAAAAAAeq",
"iAAAAAAAAAABBAAAAAAAAAABBAAAAAAAAAABBAAAAAAAAAABBAZ#,6AAAAABBAA#,5AAAAABBAAAAAAAAAABBAAAAAAAAAABBAAAAAAAAAABBAAAAAAAAAAtq",
"iAAAAAAAAAABBAAAAAAAAAABBAAAAAAAAAABBAAAAAAAAAABBAA5.zAAAAABBAA5.zAAAAABBAAAAAAAAAABBAAAAAAAAAABBAAAAAAAAAABBAAAAAAAAAAeq",
"sBBBBBBBBBBmmBBBBBBBBBBmmBBBBBBBBBBmmBBBBBBBBBBmmBBBBBBBBBBmmBBBBBBBBBBmmBBBBBBBBBBmmBBBBBBBBBBmmBBBBBBBBBBmmBBBBBBBBBVpw",
"dBBBBBBBBBBmmBBBBBBBBBBmmBBBBBBBBBBmmBBBBBBBBBBmmBBBBBBBBBBmmBBBBBBBBBBmmBBBBBBBBBBmmBBBBBBBBBBmmBBBBBBBBBBmmBBBBBBBBBBiw",
"iAAAAAAAAAABBAAAAAAAAAABBAAAAAAAAAABBAAAAAAAAAABBAAAAAAAAAABBAAAAAAAAAABBAAAAAAAAAABBAAAAAAAAAABBAAAAAAAAAABBAAAAAAAAAAtq",
"iAAAAAAAAAABBAAAAAAAAAABBAAAAAAAAAABBAAAAAAAAAABBAAAAAAAAAABBAAAAAAAAAABBAAAAAAAAAABBAAAAAAAAAABBAAAAAAAAAABBAAAAAAAAAAtq",
"iAAAAAAAAAABBAAAvCAAAAABBAAAAAAAAAABBAAAAAAAAAABBAAAAAAAAAABBAAAAAAAAAABBAAAAAAAAAABBAAAAAAAAAABBAAAvCAAAAABBAAAAAAAAAAeq",
"iAAAAAAAAAABBAAA>lAAAAABBAAAAAAAAAABBAAAAAAAAAABBAAAAAAAAAABBAAAAAAAAAABBAAAAAAAAAABBAAAAAAAAAABBAAA>lAAAAABBAAAAAAAAAAtq",
"iAAAAAAAAAABBAAA>lAAAAABBAAAAAAAAAABBAAAAAAAAAABBAAAAAAAAAABBAAAAAAAAAABBAAAAAAAAAABBAAAAAAAAAABBAAA>lAAAAABBAAAAAAAAAAtq",
"iAAAAAAAAAABBg@@X+@,AAABBAAAAAAAAAABBAAAAAAAAAABBAAAAAAAAAABBAAZAAAAAAABBAAAAAAAAAABBAAAAAAAAAABBg@@X+@,AAABBAAAAAAAAAAeq",
"iAAAAAAAAAABBAAA>lAAAAABB9..,AAAAAABB9..,AAAAAABB9..,AAAAAABB9..,AAAAAABB9..,AAAAAABB9..,AAAAAABBAAA>lAAAAABBAAAAAAAAAAtq",
"iAAAAAAAAAABBAAA>lAAAAABBAAAAAAAAAABBAAAAAAAAAABBAAAAAAAAAABBAAAAAAAAAABBAAAAAAAAAABBAAAAAAAAAABBAAA>lAAAAABBAAAAAAAAAAeq",
"iAAAAAAAAAABBAAA>lAAAAABBAAAAAAAAAABBAAAAAAAAAABBAAAAAAAAAABBAAAAAAAAAABBAAAAAAAAAABBAAAAAAAAAABBAAA>lAAAAABBAAAAAAAAAAtq",
"iAAAAAAAAAABBAAAAAAAAAABBAAAAAAAAAABBAAAAAAAAAABBAAAAAAAAAABBAAAAAAAAAABBAAAAAAAAAABBAAAAAAAAAABBAAAAAAAAAABBAAAAAAAAAAeq",
"sBBBBBBBBBBmmBBBBBBBBBBmmBBBBBBBBBBmmBBBBBBBBBBmmBBBBBBBBBBmmBBBBBBBBBBmmBBBBBBBBBBmmBBBBBBBBBBmmBBBBBBBBBBmmBBBBBBBBBBpw",
"dBBBBBBBBBBmmBBBBBBBBBBmmBBBBBBBBBBmmBBBBBBBBBBmmBBBBBBBBBBmmBBBBBBBBBBmmBBBBBBBBBBmmBBBBBBBBBBmmBBBBBBBBBBmmBBBBBBBBBVie",
"iAAAAAAAAAABBAAAAAAAAAABBAAAAAAAAAABBAAAAAAAAAABBAAAAAAAAAABBAAAAAAAAAABBAAAAAAAAAABBAAAAAAAAAABBAAAAAAAAAABBAAAAAAAAAAtq",
"iAAAAAAAAAABBAAAAAAAAAABBAAAAAAAAAABBAAAAAAAAAABBAAAAAAAAAABBAAAAAAAAAABBAAAAAAAAAABBAAAAAAAAAABBAAAAAAAAAABBAAAAAAAAAAeq",
"iAAAAAAAAAABBAAAAAAAAAABBAAAAAAAAAABBAAAAAAAAAABBAAAAAAAAAABBAAAAAAAAAABBAAAAAAAAAABBAAAAAAAAAABBAAAAAAAAAABBAAAAAAAAAAtq",
"iAAAAAAAAAABBAAAAAAAAAABBAAAAAAAAAABBAAAAAAAAAABBAAAAAAAAAABBAAAAAAAAAABBAAAAAAAAAABBAAAAAAAAAABBAAAAAAAAAABBAAAAAAAAAAeq",
"iAAAAAAAAAABBAAAAAAAAAABBAAAAAAAAAABBAAAAAAAAAABBAAAAAAAAAABBAAAAAAAAAABBAAAAAAAAAABBAAAAAAAAAABBAAAAAAAAAABBAAAAAAAAAAtq",
"iAAAAAAAAAABBAAAAAAAAAABBAAAAAAAAAABBAAAAAAAAAABBAAAAAAAAAABBAAAAAAAAAABBAAAAAAAAAABBAAAAAAAAAABBAAAAAAAAAABBAAAAAAAAAAeq",
"iAAAAAAAAAABBAAAAAAAAAABBAAAAAAAAAABBAAAAAAAAAABBAAAAAAAAAABBAAAAAAAAAABBAAAAAAAAAABBAAAAAAAAAABBAAAAAAAAAABBAAAAAAAAAAtq",
"iAAAAAAAAAABBAAAAAAAAAABBAAAAAAAAAABBAAAAAAAAAABBAAAAAAAAAABBAAAAAAAAAABBAAAAAAAAAABBAAAAAAAAAABBAAAAAAAAAABBAAAAAAAAAAeq",
"iAAAAAAAAAABBAAAAAAAAAABBAAAAAAAAAABBAAAAAAAAAABBAAAAAAAAAABBAAAAAAAAAABBAAAAAAAAAABBAAAAAAAAAABBAAAAAAAAAABBAAAAAAAAAAtq",
"iAAAAAAAAAAVBAAAAAAAAAABVAAAAAAAAAABVAAAAAAAAAABBAAAAAAAAAAVBAAAAAAAAAABVAAAAAAAAAABBAAAAAAAAAABBAAAAAAAAAAVBAAAAAAAAAAeq",
"4etteteettepietttettettiitettetttetpiteettettetpiettettettepietttetteewpitettetttetiittettettetpiettetewttepietttettett3q",
"eqqqqqqqqqqwwqqqqqqqqqqwwqqqqqqqqqqwwqqqqqqqqqqwtqqqqqqqqqqwwqqqqqqqqqqwwqqqqqqqqqqwwqqqqqqqqqqwtqqqqqqqqqqwwqqqqqqqqqqqV"
};
