/* XPM */
const char *Line_xpm[] = {
/* columns rows colors chars-per-pixel */
"123 122 31 1 ",
"  c #040404",
". c #131313",
"X c gray9",
"o c #1D1D1D",
"O c gray12",
"+ c #3F3F3F",
"@ c gray29",
"# c gray31",
"$ c #5A5D5D",
"% c #737576",
"& c gray53",
"* c #868888",
"= c #898B8C",
"- c #8F9192",
"; c #909292",
": c #919393",
"> c #9D9D9E",
", c #9C9E9E",
"< c #9D9E9E",
"1 c #A5A5A6",
"2 c #A5A6A6",
"3 c gray70",
"4 c gray81",
"5 c #D8D8D8",
"6 c gainsboro",
"7 c gray89",
"8 c gray92",
"9 c #EFEFEF",
"0 c #EFF0F1",
"q c #F6F6F6",
"w c white",
/* pixels */
"0000000000000q99000000000q99999000999000000000000000000000000q99999999999900000000000000000000000000000000000q9900000000000",
"0*>>>>>>>>>>22,>>>>>>>>>22,,,,>>>>>>21>>>>>>>>>>22>>>>>>>>>>22,,,,,,>>>>11>>>>>>>>>>11,,>>>>>>>>22>>>>>>>>>>22,,>>>>>>>>%-0",
"0>wwwwwwwwww99wwwwwwwwww99wwwwwwwwww99wwwwwwwwww99wwwwwwwwww99wwwwwwwwww99wwwwwwwwww99wwwwwwwwww99wwwwwwwwww99wwwwwwwwww;=0",
"0>wwwwwwwwww99wwwwwwwwww99wwwwwwwwww99wwwwwwwwww99wwwwwwwwww99wwwwwwwwww99wwwwwwwwww99wwwwwwwwww99wwwwwwwwww99wwwwwwwwww:=0",
"0>wwwwwwwwww99wwwwwwwwww99wwwwwwwwww99wwwwwwwwww99wwwwwwwwww99wwwwwwwwww99wwwwwwwwww99wwwwwwwwww99wwwwwwwwww99wwwwwwwwww:=0",
"0>wwwwwwwwww99wwwwwwwwww99wwwwwwwwww99wwwwwwwwww99wwwwwwwwww99wwwwwwwwww99wwwwwwwwww99wwwwwwwwww99wwwwwwwwww99wwwwwwwwww:=0",
"0>wwwwwwwwww99wwwwwwwwww99wwwwwwwwww99wwwwwwwwww99wwwwwwwwww99wwwwwwwwww99wwwwwwwwww99wwwwwwwwww99wwwwwwwwww99wwwwwwwwww:=q",
"0>wwwwwwwwww99wwwwwwwwww99wwwwwwwwww99wwwwwwwwww99wwwwwwwwww99wwwwwwwwww99wwwwwwwwww99wwwwwwwwww99wwwwwwwwww99wwwwwwwwww:=9",
"9,wwwwwwwwww99wwwwwwwwww99wwwwwwwwww99wwwwwwwwww99wwwwwwwwww99wwwwwwwwww99wwwwwwwwww99wwwwwwwwww99wwwwwwwwww99wwwwwwwwww:=0",
"9,wwwwwwwwww99wwwwwwwwww99wwwwwwwwww99wwwwwwwwww99wwwwwwwwww99wwwwwwwwww99wwwwwwwwww99wwwwwwwwww99wwwwwwwwww99wwwwwwwwww:=0",
"9>wwwwwwwwww99wwwwwwwwww99wwwwwwwwww99wwwwwwwwww99wwwwwwwwww99wwwwwwwwww99wwwwwwwwww99wwwwwwwwww99wwwwwwwwww99wwwwwwwwww:=0",
"0>wwwwwwwwww99wwwwwwwwww99wwwwwwwwww99wwwwwwwwww99wwwwwwwwww99wwwwwwwwww99wwwwwwwwww99wwwwwwwwww99wwwwwwwwww99wwwwwwwwww:=0",
"029999999999779999999999779999999999779999999999779999999999779999999999779999999999779999999999779999999999779999999999,-0",
"029999999999779999999999779999999999779999999999779999999999779999999999779999999999779999999999779999999999779999999999,-0",
"9>wwwwwwwwww99wwwwwwwwww99wwwwwwwwww99wwwwwwwwww99wwwwwwwwww99wwwwwwwwww99wwwwwwwwww99wwwwwwwwww99wwwwwwwwww99wwwwwwwwww:=0",
"9>wwwwwwwwww99wwwwwwwwww99wwwwwwwwww99wwwwwwwwww99wwwwwwwwww99wwwwwwwwww99wwwwwwwwww99wwwwwwwwww99wwwwwwwwww99wwwwwwwwww:=0",
"9>wwwwwwwwww99wwwwwwwwww99wwwwwwwwww99www5qwwwww99wwwwwwwwww99www5qwwwww99wwwwwwwwww99www5qwwwww99wwwwwwwwww99wwwwwwwwww:=0",
"0>wwwwwwwwww99wwwwwwwwww99wwwwwwwwww99www+4wwwww99wwwwwwwwww99www+4wwwww99wwwwwwwwww99www+4wwwww99wwwwwwwwww99wwwwwwwwww:=0",
"0>wwwwwwwwww99wwwwwwwwww99wwwwwwwwww99www+4wwwww99wwwwwwwwww99www+4wwwww99wwwwwwwwww99www+4wwwww99wwwwwwwwww99wwwwwwwwww:=0",
"0>wwwwwwwwww99wwwwwwwwww99wwwwwwwwww993XX .X@www99wwwwwwwwww993XX .X@www99wwwwwwwwww993XX .X@www99wwwwwwwwww99wwwwwwwwww:=0",
"9>wwwwwwwwww99wwwwwwwwww99wwwwwwwwww99www+4wwwww99wwwwwwwwww99www+4wwwww99&  #wwwwww99www+4wwwww99wwwwwwwwww99wwwwwwwwww:=0",
"0>wwwwwwwwww99wwwwwwwwww99wwwwwwwwww99www+4wwwww99wwwwwwwwww99www+4wwwww99wwwwwwwwww99www+4wwwww99wwwwwwwwww99wwwwwwwwww:=0",
"0>wwwwwwwwww99wwwwwwwwww99wwwwwwwwww99www+4wwwww99wwwwwwwwww99www+4wwwww99wwwwwwwwww99www+4wwwww99wwwwwwwwww99wwwwwwwwww:=0",
"0>wwwwwwwwww99wwwwwwwwww99wwwwwwwwww99wwwwwwwwww99wwwwwwwwww99wwwwwwwwww99wwwwwwwwww99wwwwwwwwww99wwwwwwwwww99wwwwwwwwww-*0",
"029999999999779999999999779999999999779999999999779999999999779999999999779999999999779999999999779999999999779999999999,-9",
"02999999999977999999999977999999999977999q99999977999999999977999999999977999999999977999q999999779999999999779999999999,-9",
"9>wwwwwwwwww99wwwwwwwwww99wwwwwwwwww99wwwo8wwwww99wwwwwwwwww99wwwwwwwwww99wwwwwwwwww99wwwo8wwwww99wwwwwwwwww99wwwwwwwwww;=9",
"0>wwwwwwwwww99wwwwwwwwww99wwwwwwwwww99wwwo8wwwww99wwwwwwwwww99wwwwwwwwww99wwwwwwwwww99wwwo8wwwww99wwwwwwwwww99wwwwwwwwww;=0",
"0>wwwwwwwwww99wwwwwwwwww99wwwwwwwwww99wwwo8wwwww99wwwwwwwwww99wwwwwwwwww99wwwwwwwwww99wwwo9wwwww99wwwwwwwwww99wwwwwwwwww;=0",
"0>wwwwwwwwww99wwwwwwwwww99wwwwwwwwww99wwwO8wwwww99wwwwwwwwww99wwwwwwwwww99wwwwwwwwww99wwwO8wwwww99wwwwwwwwww99wwwwwwwwww:=0",
"0>wwwwwwwwww99wwwwwwwwww99wwwwwwwwww99wwwo8wwwww99wwwwwwwwww99wwwwwwwwww99wwwwwwwwww99wwwo8wwwww99wwwwwwwwww99wwwwwwwwww:=q",
"0>wwwwwwwwww99wwwwwwwwww99wwwwwwwwww99wwwo8wwwww99wwwwwwwwww99wwwwwwwwww99wwwwwwwwww99wwwo8wwwww99wwwwwwwwww99wwwwwwwwww:=9",
"0>wwwwwwwwww99wwwwwwwwww99wwwwwwwwww99wwwo9wwwww99wwwwwwwwww99wwwwwwwwww99wwwwwwwwww99wwwo9wwwww99wwwwwwwwww99wwwwwwwwww:=0",
"0>wwwwwwwwww99wwwwwwwwww99wwwwwwwwww99wwwO8wwwww99wwwwwwwwww99wwwwwwwwww99wwwwwwwwww99wwwO8wwwww99wwwwwwwwww99wwwwwwwwww:=0",
"0>wwwwwwwwww99wwwwwwwwww99wwwwwwwwww99wwwo8wwwww99wwwwwwwwww99wwwwwwwwww99wwwwwwwwww99wwwO8wwwww99wwwwwwwwww99wwwwwwwwww:=0",
"0>wwwwwwwwww99wwwwwwwwww99wwwwwwwwww99wwwo8wwwww99wwwwwwwwww99wwwwwwwwww99wwwwwwwwww99wwwO8wwwww99wwwwwwwwww99wwwwwwwwww:=0",
"02999999999977999999999977999999999977999o69999977999999999977999999999977999999999977999o599999779999999999779999999999>-0",
"02999999999977999999999977999999999977999o69999977999999999977999999999977999999999977999o699999779999999999779999999999>-0",
"9>wwwwwwwwww99wwwwwwwwww99wwwwwwwwww99www 5wwwww99wwwwwwwwww99wwwwwwwwww99wwwwwwwwww99www 5wwwww99wwwwwwwwww99wwwwwwwwww:=0",
"0>wwwwwwwwww99wwwwwwwwww99wwwwwwwwww99wwwo8wwwww99wwwwwwwwww99wwwwwwwwww99wwwwwwwwww99wwwo8wwwww99wwwwwwwwww99wwwwwwwwww:=0",
"0>wwwwwwwwww99wwwwwwwwww99wwwwwwwwww99wwwo8wwwww99wwwwwwwwww99wwwwwwwwww99wwwwwwwwww99wwwO9wwwww99wwwwwwwwww99wwwwwwwwww:=0",
"0>wwwwwwwwww99wwwwwwwwww99wwwwwwwwww99wwwo8wwwww99wwwwwwwwww99wwwwwwwwww99wwwwwwwwww99wwwo8wwwww99wwwwwwwwww99wwwwwwwwww:=0",
"0>wwwwwwwwww99wwwwwwwwww99wwwwwwwwww99wwwO8wwwww99wwwwwwwwww99wwwwwwwwww99wwwwwwwwww99wwwo8wwwww99wwwwwwwwww99wwwwwwwwww:=0",
"0>wwwwwwwwww99wwwwwwwwww99wwwwwwwwww99wwwo8wwwww99wwwwwwwwww99wwwwwwwwww99wwwwwwwwww99wwwo8wwwww99wwwwwwwwww99wwwwwwwwww:=0",
"0>wwwwwwwwww99wwwwwwwwww99wwwwwwwwww99wwwo8wwwww99wwwwwwwwww99wwwwwwwwww99wwwwwwwwww99wwwo8wwwww99wwwwwwwwww99wwwwwwwwww:=0",
"0>wwwwwwwwww99wwwwwwwwww99wwwwwwwwww99wwwO8wwwww99wwwwwwwwww99wwwwwwwwww99wwwwwwwwww99wwwO8wwwww99wwwwwwwwww99wwwwwwwwww:=0",
"0>wwwwwwwwww99wwwwwwwwww99wwwwwwwwww99wwwO9wwwww99wwwwwwwwww99wwwwwwwwww99wwwwwwwwww99wwwO9wwwww99wwwwwwwwww99wwwwwwwwww:=0",
"0>wwwwwwwwww99wwwwwwwwww99wwwwwwwwww99wwwo8wwwww99wwwwwwwwww99wwwwwwwwww99wwwwwwwwww99wwwo8wwwww99wwwwwwwwww99wwwwwwwwww:=0",
"02999999999977999999999977999999999977999o69999977999999999977999999999977999999999977999O599999779999999999779999999999>-0",
"02999999999977999999999977999999999977999o69999977999999999977999999999977999999999977999O699999779999999999779999999999>-0",
"9>wwwwwwwwww99wwwwwwwwww99wwwwwwwwww99www 5wwwww99wwwwwwwwww99wwwwwwwwww99wwwwwwwwww99www 5wwwww99wwwwwwwwww99wwwwwwwwww;=0",
"0>wwwwwwwwww99wwwwwwwwww99wwwwwwwwww99wwwo8wwwww99wwwwwwwwww99wwwwwwwwww99wwwwwwwwww99wwwo8wwwww99wwwwwwwwww99wwwwwwwwww:=0",
"0>wwwwwwwwww99wwwwwwwwww99wwwwwwwwww99wwwO9wwwww99wwwwwwwwww99wwwwwwwwww99wwwwwwwwww99wwwO9wwwww99wwwwwwwwww99wwwwwwwwww:=0",
"0>wwwwwwwwww99wwwwwwwwww99wwwwwwwwww99wwwo8wwwww99wwwwwwwwww99wwwwwwwwww99wwwwwwwwww99wwwo8wwwww99wwwwwwwwww99wwwwwwwwww:=0",
"0>wwwwwwwwww99wwwwwwwwww99wwwwwwwwww99wwwo8wwwww99wwwwwwwwww99wwwwwwwwww99wwwwwwwwww99wwwo8wwwww99wwwwwwwwww99wwwwwwwwww:=0",
"0>wwwwwwwwww99wwwwwwwwww99wwwwwwwwww99wwwo8wwwww99wwwwwwwwww99wwwwwwwwww99wwwwwwwwww99wwwo8wwwww99wwwwwwwwww99wwwwwwwwww:=0",
"0>wwwwwwwwww99wwwwwwwwww99wwwwwwwwww99wwwo9wwwww99wwwwwwwwww99wwwwwwwwww99wwwwwwwwww99wwwo9wwwww99wwwwwwwwww99wwwwwwwwww:=0",
"0>wwwwwwwwww99wwwwwwwwww99wwwwwwwwww99wwwO8wwwww99wwwwwwwwww99wwwwwwwwww99wwwwwwwwww99wwwo8wwwww99wwwwwwwwww99wwwwwwwwww:=0",
"0>wwwwwwwwww99wwwwwwwwww99wwwwwwwwww99wwwo8wwwww99wwwwwwwwww99wwwwwwwwww99wwwwwwwwww99wwwO8wwwww99wwwwwwwwww99wwwwwwwwww:=0",
"0>wwwwwwwwww99wwwwwwwwww99wwwwwwwwww99wwwo8wwwww99wwwwwwwwww99wwwwwwwwww99wwwwwwwwww99wwwO8wwwww99wwwwwwwwww99wwwwwwwwww:=0",
"02999999999977999999999977999999999977999o69999977999999999977999999999977999999999977999o599999779999999999779999999999,-0",
"02999999999977999999999977999999999977999o69999977999999999977999999999977999999999977999O5q9999779999999999779999999999,:0",
"9>wwwwwwwwww99wwwwwwwwww99wwwwwwwwww99www 5wwwww99wwwwwwwwww99wwwwwwwwww99wwwwwwwwww99www 5wwwww99wwwwwwwwww99wwwwwwwwww:=0",
"0>wwwwwwwwww99wwwwwwwwww99wwwwwwwwww99wwwo8wwwww99wwwwwwwwww99wwwwwwwwww99wwwwwwwwww99wwwO9wwwww99wwwwwwwwww99wwwwwwwwww:=0",
"0>wwwwwwwwww99wwwwwwwwww99wwwwwwwwww99wwwO9wwwww99wwwwwwwwww99wwwwwwwwww99wwwwwwwwww99wwwo8wwwww99wwwwwwwwww99wwwwwwwwww:=0",
"0>wwwwwwwwww99wwwwwwwwww99wwwwwwwwww99wwwo8wwwww99wwwwwwwwww99wwwwwwwwww99wwwwwwwwww99wwwo8wwwww99wwwwwwwwww99wwwwwwwwww:=0",
"0>wwwwwwwwww99wwwwwwwwww99wwwwwwwwww99wwwo8wwwww99wwwwwwwwww99wwwwwwwwww99wwwwwwwwww99wwwO9wwwww99wwwwwwwwww99wwwwwwwwww:=0",
"0>wwwwwwwwww99wwwwwwwwww99wwwwwwwwww99wwwo8wwwww99wwwwwwwwww99wwwwwwwwww99wwwwwwwwww99wwwo8wwwww99wwwwwwwwww99wwwwwwwwww:=0",
"0>wwwwwwwwww99wwwwwwwwww99wwwwwwwwww99wwwo8wwwww99wwwwwwwwww99wwwwwwwwww99wwwwwwwwww99wwwo8wwwww99wwwwwwwwww99wwwwwwwwww:=0",
"0>wwwwwwwwww99wwwwwwwwww99wwwwwwwwww99wwwO8wwwww99wwwwwwwwww99wwwwwwwwww99wwwwwwwwww99wwwo8wwwww99wwwwwwwwww99wwwwwwwwww:=0",
"0>wwwwwwwwww99wwwwwwwwww99wwwwwwwwww99wwwO9wwwww99wwwwwwwwww99wwwwwwwwww99wwwwwwwwww99wwwo8wwwww99wwwwwwwwww99wwwwwwwwww:=0",
"0>wwwwwwwwww99wwwwwwwwww99wwwwwwwwww99wwwo8wwwww99wwwwwwwwww99wwwwwwwwww99wwwwwwwwww99wwwO8wwwww99wwwwwwwwww99wwwwwwwwww-*0",
"02999999999977999999999977999999999977999O5999997799999999997799999999997799999999997799qo5q0999779999999999779999999999>-0",
"02999999999977999999999977999999999977999O59999977999999999977999999999977999999999977999o599999779999999999779999999999>-0",
"9>wwwwwwwwww99wwwwwwwwww99wwwwwwwwww99www 5wwwww99wwwwwwwwww99wwwwwwwwww99wwwwwwwwww99www 5wwwww99wwwwwwwwww99wwwwwwwwww;=0",
"0>wwwwwwwwww99wwwwwwwwww99wwwwwwwwww99wwwO8wwwww99wwwwwwwwww99wwwwwwwwww99wwwwwwwwww99wwwo8wwwww99wwwwwwwwww99wwwwwwwwww:=0",
"0>wwwwwwwwww99wwwwwwwwww99wwwwwwwwww99wwwO9wwwww99wwwwwwwwww99wwwwwwwwww99wwwwwwwwww99wwwo8wwwww99wwwwwwwwww99wwwwwwwwww:=0",
"0>wwwwwwwwww99wwwwwwwwww99wwwwwwwwww99wwwo8wwwww99wwwwwwwwww99wwwwwwwwww99wwwwwwwwww99wwwO8wwwww99wwwwwwwwww99wwwwwwwwww:=0",
"0>wwwwwwwwww99wwwwwwwwww99wwwwwwwwww99wwwo8wwwww99wwwwwwwwww99wwwwwwwwww99wwwwwwwwww99wwwo8wwwww99wwwwwwwwww99wwwwwwwwww:=q",
"0>wwwwwwwwww99wwwwwwwwww99wwwwwwwwww99wwwo8wwwww99wwwwwwwwww99wwwwwwwwww99wwwwwwwwww99wwwo8wwwww99wwwwwwwwww99wwwwwwwwww:=9",
"0>wwwwwwwwww99wwwwwwwwww99wwwwwwwwww99wwwO9wwwww99wwwwwwwwww99wwwwwwwwww99wwwwwwwwww99wwwo8wwwww99wwwwwwwwww99wwwwwwwwww:=0",
"0>wwwwwwwwww99wwwwwwwwww99wwwwwwwwww99wwwo8wwwww99wwwwwwwwww99wwwwwwwwww99wwwwwwwwww99wwwO8wwwww99wwwwwwwwww99wwwwwwwwww:=0",
"0>wwwwwwwwww99wwwwwwwwww99wwwwwwwwww99wwwo8wwwww99wwwwwwwwww99wwwwwwwwww99wwwwwwwwww99wwwO9wwwww99wwwwwwwwww99wwwwwwwwww:=0",
"0>wwwwwwwwww99wwwwwwwwww99wwwwwwwwww99wwwo8wwwww99wwwwwwwwww99wwwwwwwwww99wwwwwwwwww99wwwo8wwwww99wwwwwwwwww99wwwwwwwwww:=0",
"02999999999977999999999977999999999977999o6q999977999999999977999999999977999999999977999O599999779999999999779999999999>-0",
"02999999999977999999999977999999999977999o59999977999999999977999999999977999999999977999O699999779999999999779999999999>-0",
"9>wwwwwwwwww99wwwwwwwwww99wwwwwwwwww99www 5wwwww99wwwwwwwwww99wwwwwwwwww99wwwwwwwwww99www 5wwwww99wwwwwwwwww99wwwwwwwwww:=0",
"0>wwwwwwwwww99wwwwwwwwww99wwwwwwwwww99wwwo9wwwww99wwwwwwwwww99wwwwwwwwww99wwwwwwwwww99wwwo8wwwww99wwwwwwwwww99wwwwwwwwww:=0",
"0>wwwwwwwwww99wwwwwwwwww99wwwwwwwwww99wwwO8wwwww99wwwwwwwwww99wwwwwwwwww99wwwwwwwwww99wwwo8wwwww99wwwwwwwwww99wwwwwwwwww:=0",
"0>wwwwwwwwww99wwwwwwwwww99wwwwwwwwww99wwwO8wwwww99wwwwwwwwww99wwwwwwwwww99wwwwwwwwww99wwwO8wwwww99wwwwwwwwww99wwwwwwwwww:=0",
"0>wwwwwwwwww99wwwwwwwwww99wwwwwwwwww99wwwo8wwwww99wwwwwwwwww99wwwwwwwwww99wwwwwwwwww99wwwO9wwwww99wwwwwwwwww99wwwwwwwwww:=0",
"0>wwwwwwwwww99wwwwwwwwww99wwwwwwwwww99wwwO8wwwww99wwwwwwwwww99wwwwwwwwww99wwwwwwwwww99wwwo8wwwww99wwwwwwwwww99wwwwwwwwww:=0",
"0>wwwwwwwwww99wwwwwwwwww99wwwwwwwwww99wwwO9wwwww99wwwwwwwwww99wwwwwwwwww99wwwwwwwwww99wwwo8wwwww99wwwwwwwwww99wwwwwwwwww:=0",
"0>wwwwwwwwww99wwwwwwwwww99wwwwwwwwww99wwwo8wwwww99wwwwwwwwww99wwwwwwwwww99wwwwwwwwww99wwwo8wwwww99wwwwwwwwww99wwwwwwwwww:=0",
"0>wwwwwwwwww99wwwwwwwwww99wwwwwwwwww99wwwo8wwwww99wwwwwwwwww99wwwwwwwwww99wwwwwwwwww99wwwo8wwwww99wwwwwwwwww99wwwwwwwwww:=0",
"0>wwwwwwwwww99wwwwwwwwww99wwwwwwwwww99wwwo8wwwww99wwwwwwwwww99wwwwwwwwww99wwwwwwwwww99wwwO8wwwww99wwwwwwwwww99wwwwwwwwww:=0",
"02999999999977999999999977999999999977999O5q999977999999999977999999999977999999999977999O599999779999999999779999999999>-0",
"02999999999977999999999977999999999977999O59999977999999999977999999999977999999999977999O699999779999999999779999999999>-0",
"9>wwwwwwwwww99wwwwwwwwww99wwwwwwwwww99wwwo8wwwww99wwwwwwwwww99wwwwwwwwww99wwwwwwwwww99wwwO8wwwww99wwwwwwwwww99wwwwwwwwww;=0",
"0>wwwwwwwwww99wwwwwwwwww99wwwwwwwwww99wwwwwwwwww99wwwwwwwwww99wwwwwwwwww99wwwwwwwwww99wwwwwwwwww99wwwwwwwwww99wwwwwwwwww:=0",
"0>wwwwwwwwww99www5qwwwww99wwwwwwwwww99www5qwwwww99wwwwwwwwww99wwwwwwwwww99wwwwwwwwww99www5qwwwww99wwwwwwwwww99wwwwwwwwww:=0",
"0>wwwwwwwwww99www+4wwwww99wwwwwwwwww99www+4wwwww99wwwwwwwwww99wwwwwwwwww99wwwwwwwwww99www+4wwwww99wwwwwwwwww99wwwwwwwwww:=0",
"0>wwwwwwwwww99www+4wwwww99wwwwwwwwww99www+4wwwww99wwwwwwwwww99wwwwwwwwww99wwwwwwwwww99www@4wwwww99wwwwwwwwww99wwwwwwwwww:=0",
"0>wwwwwwwwww993XX .X@www99wwwwwwwwww993XX .X@www99wwwwwwwwww99wwwwwwwwww99wwwwwwwwww993XX ..@www99wwwwwwwwww99wwwwwwwwww:=0",
"0>wwwwwwwwww99www+4wwwww99&  #wwwwww99www+4wwwww99wwwwwwwwww99wwwwwwwwww99wwwwwwwwww99www+4wwwww99wwwwwwwwww99wwwwwwwwww:=0",
"0>wwwwwwwwww99www+4wwwww99wwwwwwwwww99www+4wwwww99wwwwwwwwww99wwwwwwwwww99wwwwwwwwww99www+4wwwww99wwwwwwwwww99wwwwwwwwww:=0",
"0>wwwwwwwwww99www+4wwwww99wwwwwwwwww99www+4wwwww99wwwwwwwwww99wwwwwwwwww99wwwwwwwwww99www+4wwwww99wwwwwwwwww99wwwwwwwwww:=0",
"0>wwwwwwwwww99wwwwwwwwww99wwwwwwwwww99wwwwwwwwww99wwwwwwwwww99wwwwwwwwww99wwwwwwwwww99wwwwwwwwww99wwwwwwwwww99wwwwwwwwww:=0",
"029999999999779999999999779999999999779999999999779999999999779999999999779999999999779999999999779999999999779999999999>-0",
"029999999999779999999999779999999999779999999999779999999999779999999999779999999999779999999999779999999999779999999999>-0",
"9>wwwwwwwwww99wwwwwwwwww99wwwwwwwwww99wwwwwwwwww99wwwwwwwwww99wwwwwwwwww99wwwwwwwwww99wwwwwwwwww99wwwwwwwwww99wwwwwwwwww:=0",
"0>wwwwwwwwww99wwwwwwwwww99wwwwwwwwww99wwwwwwwwww99wwwwwwwwww99wwwwwwwwww99wwwwwwwwww99wwwwwwwwww99wwwwwwwwww99wwwwwwwwww:=0",
"0>wwwwwwwwww99wwwwwwwwww99wwwwwwwwww99wwwwwwwwww99wwwwwwwwww99wwwwwwwwww99wwwwwwwwww99wwwwwwwwww99wwwwwwwwww99wwwwwwwwww:=0",
"0>wwwwwwwwww99wwwwwwwwww99wwwwwwwwww99wwwwwwwwww99wwwwwwwwww99wwwwwwwwww99wwwwwwwwww99wwwwwwwwww99wwwwwwwwww99wwwwwwwwww:=0",
"0>wwwwwwwwww99wwwwwwwwww99wwwwwwwwww99wwwwwwwwww99wwwwwwwwww99wwwwwwwwww99wwwwwwwwww99wwwwwwwwww99wwwwwwwwww99wwwwwwwwww:=0",
"0>wwwwwwwwww99wwwwwwwwww99wwwwwwwwww99wwwwwwwwww99wwwwwwwwww99wwwwwwwwww99wwwwwwwwww99wwwwwwwwww99wwwwwwwwww99wwwwwwwwww:=0",
"0>wwwwwwwwww99wwwwwwwwww99wwwwwwwwww99wwwwwwwwww99wwwwwwwwww99wwwwwwwwww99wwwwwwwwww99wwwwwwwwww99wwwwwwwwww99wwwwwwwwww:=0",
"0>wwwwwwwwww99wwwwwwwwww99wwwwwwwwww99wwwwwwwwww99wwwwwwwwww99wwwwwwwwww99wwwwwwwwww99wwwwwwwwww99wwwwwwwwww99wwwwwwwwww:=0",
"0>wwwwwwwwww99wwwwwwwwww99wwwwwwwwww99wwwwwwwwww99wwwwwwwwww99wwwwwwwwww99wwwwwwwwww99wwwwwwwwww99wwwwwwwwww99wwwwwwwwww:=0",
"0>wwwwwwwwww99wwwwwwwwww99wwwwwwwwww99wwwwwwwwww99wwwwwwwwww99wwwwwwwwww99wwwwwwwwww99wwwwwwwwww99wwwwwwwwww99wwwwwwwwww-=0",
"0%;;::::::::>>::;;::::::>>::::::-;;:>>::::::::::>>;:::::::::>>::-;;:::::>>;:::::;;::>>::::::::::,>;;::::::::>>;:;;::::::$*0",
"0-==========;;==========;-======*===;;==========--==========;:==========;;==========;;===========-==========;;===========q0"
};
