/* XPM */
const char *Move_xpm[] = {
/* columns rows colors chars-per-pixel */
"121 121 42 1 ",
"  c black",
". c gray2",
"X c #111111",
"o c #131313",
"O c gray9",
"+ c #1D1D1D",
"@ c gray12",
"# c #2F2F2F",
"$ c gray23",
"% c #3F3F3F",
"& c gray29",
"* c gray31",
"= c #5A5D5D",
"- c #737576",
"; c gray53",
": c #868888",
"> c #898B8C",
", c #8F9192",
"< c #909292",
"1 c #919393",
"2 c gray61",
"3 c #9D9D9E",
"4 c #9C9E9E",
"5 c #9D9E9E",
"6 c gray64",
"7 c #A5A5A6",
"8 c #A5A6A6",
"9 c gray65",
"0 c #B1B1B1",
"q c gray70",
"w c #C0C0C0",
"e c gray81",
"r c LightGray",
"t c #D8D8D8",
"y c #DADADA",
"u c gainsboro",
"i c gray89",
"p c gray92",
"a c #EFEFEF",
"s c #EFF0F1",
"d c #F6F6F6",
"f c white",
/* pixels */
":3333333333883333333333883333333333883333333333883333333333883333333333883333333333883333333333883333333333883333333333-<",
"3ffffffffffaaffffffffffaaffffffffffaaffffffffffaaffffffffffaaffffffffffaaffffffffffaaffffffffffaaffffffffffaaffffffffff1>",
"3ffffffffffaaffffffffffaaffffffffffaaffffffffffaaffffffffffaaffffffffffaaffffffffffaaffffffffffaaffffffffffaaffffffffff1>",
"3ffffffffffaaffffffffffaaffffffffffaaffffffffffaaffffffffffaaffffffffffaaffffffffffaaffffffffffaaffffffffffaaffffffffff<>",
"3ffffffffffaaffffffffffaaffffffffffaaffffffffffaaffffffffffaaffffffffffaaffffffffffaaffffffffffaaffffffffffaaffffffffff1>",
"3ffffffffffaaffffffffffaaffffffffffaaffffffffffaaffffffffffaaffffffffffaaffffffffffaaffffffffffaaffffffffffaaffffffffff1>",
"3ffffffffffaaffffffffffaaffffffffffaaffffffffffaaffffffffffaaffffffffffaaffffffffffaaffffffffffaaffffffffffaaffffffffff<>",
"3ffffffffffaaffffffffffaaffffffffffaaffffffffffaaffffffffffaaffffffffffaaffffffffffaaffffffffffaaffffffffffaaffffffffff1>",
"3ffffffffffaaffffffffffaaffffffffffaaffffffffffaaffffffffffaaffffffffffaaffffffffffaaffffffffffaaffffffffffaaffffffffff<>",
"3ffffffffffaaffffffffffaaffffffffffaaffffffffffaaffffffffffaaffffffffffaaffffffffffaaffffffffffaaffffffffffaaffffffffff,>",
"3ffffffffffaaffffffffffaaffffffffffaaffffffffffaaffffffffffaaffffffffffaaffffffffffaaffffffffffaaffffffffffaaffffffffff,>",
"8aaaaaaaaaaiiaaaaaaaaaaiiaaaaaaaaaaiiaaaaaaaaaaiiaaaaaaaaaaiiaaaaaaaaaaiiaaaaaaaaaaiiaaaaaaaaaaiiaaaaaaaaaaiiaaaaaaaaaa2,",
"8aaaaaaaaaaiiaaaaaaaaaaiiaaaaaaaaaaiiaaaaaaaaaaiiaaaaaaaaaaiiaaaaaaaaaaiiaaaaaaaaaaiiaaaaaaaaaaiiaaaaaaaaaaiiaaaaaaaaad3<",
"3ffffffffffaaffffffffffaaffffffffffaaffffffffffaaffffffffffaaffffffffffaaffffffffffaaffffffffffaaffffffffffaaffffffffff1>",
"3ffffffffffaaffffffffffaaffffffffffaaffffffffffaaffffffffffaaffffffffffaaffffffffffaaffffffffffaaffffffffffaaffffffffff<>",
"3ffffffffffaaffftdfffffaaffffffffffaaffftdfffffaaffffffffffaaffffffffffaaffffffffffaaffffffffffaaffffffffffaaffffffffff1>",
"3ffffffffffaafff%efffffaaffffffffffaafff%efffffaaffffffffffaaffffffffffaaffffffffffaaffffffffffaaffffffffffaaffffffffff<>",
"3ffffffffffaafff%efffffaaffffffffffaafff%efffffaaffffffffffaaffffffffffaaffffffffffaaffffffffffaaffffffffffaaffffffffff1>",
"3ffffffffffaaqOO.oO&fffaaffffffffffaaqOO.oO&fffaaffffffffffaaffffffffffaaffffffffffaaffffffffffaaffffffffffaaffffffffff<>",
"3ffffffffffaafff%efffffaa;  *ffffffaafff%efffffaaffffffffffaaffffffffffaaffffffffffaaffffffffffaaffffffffffaaffffffffff1>",
"3ffffffffffaafff%efffffaaffffffffffaafff%efffffaaffffffffffaaffffffffffaaffffffffffaaffffffffffaaffffffffffaaffffffffff<>",
"3ffffffffffaafff%efffffaaffffffffffaafff%efffffaaffffffffffaaffffffffffaaffffffffffaaffffffffffaaffffffffffaaffffffffff1>",
"3ffffffffffaaffffffffffaaffffffffffaaffffffffffaaffffffffffaaffffffffffaaffffffffffaaffffffffffaaffffffffffaaffffffffff<>",
"8aaaaaaaaaaiiaaaaaaaaaaiiaaaaaaaaaaiiaaaaaaaaaaiiaaaaaaaaaaiiaaaaaaaaaaiiaaaaaaaaaaiiaaaaaaaaaaiiaaaaaaaaaaiiaaaaaaaaas3<",
"8aaaaaaaaaaiiaaaaaaaaaaiiaaaaaaaaaaiiaaaaaaaaaaiiaaaaaaaaaaiiaaaaaaaaaaiiaaaaaaaaaaiiaaaaaaaaaaiiaaaaaaaaaaiiaaaaaaaaaa3<",
"3ffffffffffaafff@pfffffaaffffffffffaafff@pfffffaaffffffffffaaffffffffffaaffffffffffaaffffffffffaaffffffffffaaffffffffff<>",
"3ffffffffffaafff@pfffffaaffffffffffaafff@pfffffaaffffffffffaaffffffffffaaffffffffffaaffffffffffaaffffffffffaaffffffffff1>",
"3ffffffffffaafff@pfffffaaffffffffffaafff@pfffffaaffffffffffaaffffffffffaaffffffffffaaffffffffffaaffffffffffaaffffffffff1>",
"3ffffffffffaafff@pfffffaaffffffffffaafff@pfffffaaffffffffffaaffffffffffaaffffffffffaaffffffffffaaffffffffffaaffffffffff<>",
"3ffffffffffaafff@pfffffaaffffffffffaafff@pfffffaaffffffffffaaffffffffffaaffffffffffaaffffffffffaaffffffffffaaffffffffff1>",
"3ffffffffffaafff@pfffffaaffffffffffaafff@pfffffaaffffffffffaaffffffffffaaffffffffffaaffffffffffaaffffffffffaaffffffffff1>",
"3ffffffffffaafff@pfffffaaffffffffffaafff@pfffffaaffffffffffaaffffffffffaaffffffffffaaffffffffffaaffffffffffaaffffffffff<>",
"3ffffffffffaafff@pfffffaaffffffffffaafff@pfffffaaffffffffffaaffffffffffaaffffffffffaaffffffffffaaffffffffffaaffffffffff1>",
"3ffffffffffaafff@pfffffaaffffffffffaafff@pfffffaaffffffffffaaffffffffffaaffffffffffaaffffffffffaaffffffffffaaffffffffff1>",
"3ffffffffffaafff@pfffffaaffffffffffaafff@pfffffaaffffffffffaaffffffffffaaffffffffffaaffffffffffaaffffffffffaaffffffffff<>",
"8aaaaaaaaaaiiaaa@uaaaaaiiaaaaaaaaaaiiaaa@taaaaaiiaaaaaaaaaaiiaaaaaaaaaaiiaaaaaaaaaaiiaaaaaaaaaaiiaaaaaaaaaaiiaaaaaaaaas3,",
"8aaaaaaaaaaiiaaa@taaaaaiiaaaaaaaaaaiiaaa@tdaaaaiiaaaaaaaaaaiiaaaaaaaaaaiiaaaaaaaaaaiiaaaaaaaaaaiiaaaaaaaaaaiiaaaaaaaaaa3<",
"3ffffffffffaafff@pfffffaaffffffffffaafff@pfffffaaffffffffffaaffffffffffaaffffffffffaaffffffffffaaffffffffffaaffffffffff<>",
"3ffffffffffaaffffffffffaaffffffffffaaffffffffffaaffffffffffaaffffffffffaaffffffffffaaffffffffffaaffffffffffaaffffffffff1>",
"3ffffffffffaaffftdfffffaaffffffffffaaffftdfffffaaffffffffffaaffffffffffaaffffffffffaaffffffffffaaffffffffffaaffffffffff1>",
"3ffffffffffaafff%efffffaaffffffffffaafff%efffffaaffffffffffaaffffffffffaaffffffffffaaffffffffffaaffffffffffaaffffffffff<>",
"3ffffffffffaafff%efffffaaffffffffffaafff%efffffaaffffffffffaaffffffffffaaffffffffffaaffffffffffaaffffffffffaaffffffffff1>",
"3ffffffffffaaqOO.oO&fffaaffffffffffaaqOO.oO&fffaaffffffffffaaffffffffffaaffffffffffaaffffffffffaaffffffffffaaffffffffff<>",
"3ffffffffffaafff%efffffaa;  *ffffffaafff%efffffaaffffffffffaaffffffffffaaffffffffffaaffffffffffaaffffffffffaaffffffffff1>",
"3ffffffffffaafff%efffffaaffffffffffaafff%efffffaaffffffffffaaffffffffffaaffffffffffaaffffffffffaaffffffffffaaffffffffff<>",
"3ffffffffffaafff%efffffaaffffffffffaafff%efffffaaffffffffffaaffffffffffaaffffffffffaaffffffffffaaffffffffffaaffffffffff1>",
"3ffffffffffaaffffffffffaaffffffffffaaffffffffffaaffffffffffaaffffffffffaaffffffffffaaffffffffffaaffffffffffaaffffffffff<>",
"8aaaaaaaaaaiiaaaaaaaaaaiiaaaaaaaaaaiiaaaaaaaaaaiiaaaaaaaaaaiiaaaaaaaaaaiiaaaaaaaaaaiiaaaaaaaaaaiiaaaaaaaaaaiiaaaaaaaaas3,",
"8aaaaaaaaaaiiaaaaaaaaaaiiaaaaaaaaaaiiaaaaaaaaaaiiaaaaaaaaaaiiaaaaaaaaaaiiaaaaaaaaaaiiaaaaaaaaaaiiaaaaaaaaaaiiaaaaaaaaaa3<",
"3ffffffffffaaffffffffffaaffffffffffaaffffffffffaaffffffffffaaffffffffffaaffffffffffaaffffffffffaaffffffffffaaffffffffff1>",
"3ffffffffffaaffffffffffaaffffffffffaaffffffffffaaffffffffffaaffffffffffaaffffffffffaaffffffffffaaffffffffffaaffffffffff1>",
"3ffffffffffaaffffffffffaaffffffffffaaffffffffffaaffffffffffaaffffffffffaaffffffffffaaffffffffffaaffffffffffaaffffffffff<>",
"3ffffffffffaaffffffffffaaffffffffffaaffffffffffaaffffffffffaaffffffffffaaffffffffffaaffffffffffaaffffffffffaaffffffffff1>",
"3ffffffffffaaffffffffffaaffffffffffaaffffffffffaaffffffffffaaffffffffffaaffffffffffaaffffffffffaaffffffffffaaffffffffff1>",
"3ffffffffffaaffffffffffaaffffffffffaaffffffffffaaffffffffffaaffffffffffaaffffffffffaaffffffffffaaffffffffffaaffffffffff<>",
"3ffffffffffaaffffffffffaaffffffffffaaffffffffffaaffffffffffaaffffffffffaaffffffffffaaffffffffffaaffffffffffaaffffffffff1>",
"3ffffffffffaaffffffffffaaffffffffffaaffffffffffaaffffffffffaaffffffffffaaffffffffffaaffffffffffaaffffffffffaaffffffffff<>",
"3ffffffffffaaffffffffffaaffffffffffaaffffffffffaaffffffffffaaffffffffffaaffffffffffaaffffffffffaaffffffffffaaffffffffff,>",
"3ffffffffffaaffffffffffaaffffffffffaaffffffffffaaffffffffffaaffffffffffaaffffffffffaaffffffffffaaffffffffffaaffffffffff,>",
"8aaaaaaaaaaiiaaaaaaaaaaiiaaaaaaaaaaiiaaaaaaaaaaiiaaaaaaaaaaiiaaaaaaaaaaiiaaaaaaaaaaiiaaaaaaaaaaiiaaaaaaaaaaiiaaaaaaaaaa2,",
"8aaaaaaaaaaiiaaaaaaaaaaiiaaaaaaaaaaiiaaaaaaaaaaiiaaaaaaaaaaiiaaaaaaaaaaiiaaaaaaaaaaiiaaaaaaaaaaiiaaaaaaaaaaiiaaaaaaaaad3<",
"3ffffffffffaaffffffffffaaffffffffffaaffffffffffaaffffffffffaaffffffffffaaffffffffffaaffffffffffaaffffffffffaaffffffffff1>",
"3ffffffffffaaffffffffffaaffffffffffaaffffffffffaaffffffffffaaffffffffffaaffffffffffaaffffffffffaaffffffffffaaffffffffff<>",
"3ffffffffffaaffffffffffaaffffffffffaaffffffffffaaffffffffffaaffffffffffaaffffffffffaaffffffffffaaffffffffffaaffffffffff1>",
"3ffffffffffaaffffffffffaaffffffffffaaffffffffffaaffffffffffaaffffffffffaaffffffffffaaffffffffffaaffffffffffaaffffffffff,>",
"3ffffffffffaaffffffffffaaffffffffffaaffffffffffaaffffffffffaaffffffffffaaffffffffffaaffffffffffaaffffffffffaaffffffffff<>",
"3ffffffffffaaffffffffffaaffffffffffaaffffffffffaaffffffffffaaffffffffffaaffffffffffaaffffffffffaaffffffffffaaffffffffff<>",
"3ffffffffffaaffffffffffaaffffffffffaaffffffffffaaffffffffffaaffffffffffaaffffffffffaaffffffffffaaffffffffffaaffffffffff1>",
"3ffffffffffaaffffffffffaaffffffffffaaffffffffffaaffffffffffaaffffffffffaaffffffffffaaffffffffffaaffffffffffaaffffffffff<>",
"3ffffffffffaaffffffffffaaffffffffffaaffffffffffaaffffffffffaaffffffffffaaffffffffffaaffffffffffaaffffffffffaaffffffffff1>",
"3ffffffffffaaffffffffffaaffffffffffaaffffffffffaaffffffffffaaffffffffffadffffffffffaaffffffffffadffffffffffaaffffffffff<>",
"7aaaaaaaaaaiiaaaaaaaaaaiiaaaaaaaaaaiiaaaaaaaaaaiiaaaaaaaaaaiiaaaaaaaaaaitiiiiiiiiiittiiiiiiiiiittiiiiiiiiiitiaaaaaaaaas3<",
"8aaaaaaaaaaiiaaaaaaaaaaiiaaaaaaaaaaiiaaaaaaaaaaiiaaaaaaaaaaiiaaaaaaaaaatwiiiiiiwwpittiiwwiiiiiiwwiiiiiiwwiittaaaaaaaaaa3<",
"3ffffffffffaaffffffffffaaffffffffffaaffffffffffaaffffffffffaaffffffffffiiwffffwffqfadfwffwffffwaawffffwffwfiiffffffffff<>",
"3ffffffffffaaffffffffffaaffffffffffaaffffffffffaaffffffffffaaffffffffffiifwffwffffwdaqffffwffwfaafwffwffffwiiffffffffff1>",
"3ffffffffffaaffffffffffaaffffffffffaaffffffffffaaffffffffffaaffffffffffiiffw6dfffffwwffffffwwffaaffw6dfffffqiffffffffff1>",
"3ffffffffffaaffffffffffaaffffffffffaaffffffffffaaffffffffffaaffffffffffiiffw#efffffwwffffffwwffaaffw#efffffwiffffffffff<>",
"3ffffffffffaaffffffffffaaffffffffffaaffffffffffaaffffffffffaaffffffffffiifwf%3ffffwaawffffwffwfadfqf%2ffffwiiffffffffff1>",
"3ffffffffffaaffffffffffaaffffffffffaaffffffffffaaffffffffffaaffffffffffii;OO.oo*fwfaafwffwffffwad:OO.oo&fwfiiffffffffff1>",
"3ffffffffffaaffffffffffaaffffffffffaaffffffffffaaffffffffffaaffffffffffiwfff%efqwffaa;  $ffffffwqfff%efwwffiiffffffffff<>",
"3ffffffffffaaffffffffffaaffffffffffaaffffffffffaaffffffffffaaffffffffffiwfff%efqwffaaffwwffffffwwfff%efwwffiiffffffffff1>",
"3ffffffffffaaffffffffffaaffffffffffaaffffffffffaaffffffffffaaffffffffffiiwff%rwffwfaafwffwffffwaawff%ewffwfiiffffffffff1>",
"3ffffffffffaaffffffffffaaffffffffffaaffffffffffaaffffffffffaaffffffffffiifwffwffffwaawffffwffwfaafwffwffffwiiffffffffff<>",
"7aaaaaaaaaaiiaaaaaaaaaaiiaaaaaaaaaaiiaaaaaaaaaaiiaaaaaaaaaaiiaaaaaaaaadttaawwaaaaaawwaaaaaawwaaiiaawwaaaaaawtaaaaaaaaas3,",
"8aaaaaaaaaaiiaaaaaaaaaaiiaaaaaaaaaaiiaaaaaaaaaaiiaaaaaaaaaaiiaaaaaaaaaattdaqqddaaaawwaaaaaawwaaiiaawqaaaaaawtdaaaaaaaaa3<",
"3ffffffffffaaffffffffffaaffffffffffaaffffffffffaaffffffffffaaffffffffffiifwf@qffffwaawffffwffwfaafwf#qffffwiiffffffffff<>",
"3ffffffffffaaffffffffffaaffffffffffaaffffffffffaaffffffffffaaffffffffffiiwff@pwffwfaafwffwffffwadwff@pwffwfiiffffffffff1>",
"3ffffffffffaaffffffffffaaffffffffffaaffffffffffaaffffffffffaaffffffffffiwfff@afwwffaaffwwffffffwqfff@pfwwffiiffffffffff1>",
"3ffffffffffaaffffffffffaaffffffffffaaffffffffffaaffffffffffaaffffffffffiwfff@pfwwffaaffwwffffffwwfff@pfwwffiiffffffffff<>",
"3ffffffffffaaffffffffffaaffffffffffaaffffffffffaaffffffffffaaffffffffffiiwff@pqffwfaafwffwffffwaawff@pqffwfiiffffffffff1>",
"3ffffffffffaaffffffffffaaffffffffffaaffffffffffaaffffffffffaaffffffffffiifwf@qffffwaawffffwffwfaafwf@qffffwiiffffffffff<>",
"3ffffffffffaaffffffffffaaffffffffffaaffffffffffaaffffffffffaaffffffffffiiffwOpfffffwwffffffwwffaaffwOpfffffwiffffffffff1>",
"3ffffffffffaaffffffffffaaffffffffffaaffffffffffaaffffffffffaaffffffffffiiffwOpfffffwwffffffwwffaaffwOpfffffwiffffffffff<>",
"3ffffffffffaaffffffffffaaffffffffffaaffffffffffaaffffffffffaaffffffffffiifwf@qffffwaawffffwffwfaafwf@qffffwiiffffffffff1>",
"3ffffffffffaaffffffffffaaffffffffffaaffffffffffaaffffffffffaaffffffffffiiwff@pwffwfaafwffwffffwaawff@pqffqfiiffffffffff<>",
"7aaaaaaaaaaiiaaaaaaaaaaiiaaaaaaaaaaiiaaaaaaaaaaiiaaaaaaaaaaiiaaaaaaaaaatwaaa@tawwaaiiaawwaaaaaawwaaa@tdwwadttaaaaaaaaas3,",
"8aaaaaaaaaaiiaaaaaaaaaaiiaaaaaaaaaaiiaaaaaaaaaaiiaaaaaaaaaaiiaaaaaaaaaatwdaa@tdqwaaiiaawwaaaaaawwaaa@tdwwdattdaaaaaaaaa3<",
"3ffffffffffaaffffffffffaaffffffffffaaffffffffffaaffffffffffaaffffffffffiiqff@pwffwfaafwffwffffwaawff@pqffqfiiffffffffff1>",
"3ffffffffffaaffffffffffaaffffffffffaaffffffffffaaffffffffffaaffffffffffiifwffwffffwaawffffwffwfaafwffwffffwiiffffffffff1>",
"3ffffffffffaaffffffffffaaffffffffffaaffffffffffaaffffffffffaaffffffffffiiffw6dfffffwwffffffwwffaaffw6dfffffwiffffffffff<>",
"3ffffffffffaaffffffffffaaffffffffffaaffffffffffaaffffffffffaaffffffffffiiffw#efffffwwffffffwwffaaffw#efffffqiffffffffff1>",
"3ffffffffffaaffffffffffaaffffffffffaaffffffffffaaffffffffffaaffffffffffiifwf%3ffffwaawffffwffwfaafwf%3ffffwiiffffffffff1>",
"3ffffffffffaaffffffffffaaffffffffffaaffffffffffaaffffffffffaaffffffffffii;OO.oo&fwfaafwffwffffwaa;OO.oo*fwfiiffffffffff<>",
"3ffffffffffaaffffffffffaaffffffffffaaffffffffffaaffffffffffaaffffffffffiwfff%rfqwffaa;  $ffffffwwfff%efqwffiiffffffffff1>",
"3ffffffffffaaffffffffffaaffffffffffaaffffffffffaaffffffffffaaffffffffffiwfff%efwwffaaffwwffffffqwfff%efqwffiiffffffffff<>",
"3ffffffffffaaffffffffffaaffffffffffaaffffffffffaaffffffffffaaffffffffffiiwff%ewffwfaafwffwffffwaawff%rwffwfiiffffffffff1>",
"3ffffffffffaaffffffffffaaffffffffffaaffffffffffaaffffffffffaaffffffffffiifwffwffffwdawffffwffwfdafwffwffffwiiffffffffff1>",
"7aaaaaaaaaaiiaaaaaaaaaaiiaaaaaaaaaaiiaaaaaaaaaaiiaaaaaaaaaaiiaaaaaaaaaatriiwwiiiiiiqwiiiiiiwwiittiiwwiiiiiiwtaaaaaaaaaa3,",
"8aaaaaaaaaaiiaaaaaaaaaaiiaaaaaaaaaaiiaaaaaaaaaaiiaaaaaaaaaaiiaaaaaaaaaaitiiiiiiiiiittiiiiiiiiiittiiiiiiiiiitiaaaaaaaaas3,",
"3ffffffffffaaffffffffffaaffffffffffaaffffffffffaaffffffffffaaffffffffffadffffffffffadffffffffffadffffffffffadffffffffff1>",
"3ffffffffffaaffffffffffaaffffffffffaaffffffffffaaffffffffffaaffffffffffaaffffffffffaaffffffffffaaffffffffffaaffffffffff<>",
"3ffffffffffaaffffffffffaaffffffffffaaffffffffffaaffffffffffaaffffffffffaaffffffffffaaffffffffffaaffffffffffaaffffffffff<>",
"3ffffffffffaaffffffffffaaffffffffffaaffffffffffaaffffffffffaaffffffffffaaffffffffffaaffffffffffaaffffffffffaaffffffffff<>",
"3ffffffffffaaffffffffffaaffffffffffaaffffffffffaaffffffffffaaffffffffffaaffffffffffaaffffffffffaaffffffffffaaffffffffff1>",
"3ffffffffffaaffffffffffaaffffffffffaaffffffffffaaffffffffffaaffffffffffaaffffffffffaaffffffffffaaffffffffffaaffffffffff<>",
"3ffffffffffaaffffffffffaaffffffffffaaffffffffffaaffffffffffaaffffffffffaaffffffffffaaffffffffffaaffffffffffaaffffffffff1>",
"3ffffffffffaaffffffffffaaffffffffffaaffffffffffaaffffffffffaaffffffffffaaffffffffffaaffffffffffaaffffffffffaaffffffffff<>",
"3ffffffffffaaffffffffffaaffffffffffaaffffffffffaaffffffffffaaffffffffffaaffffffffffaaffffffffffaaffffffffffaaffffffffff1>",
"3ffffffffffsaffffffffffadffffffffffaaffffffffffaaffffffffffsaffffffffffadffffffffffaaffffffffffaaffffffffffsaffffffffff<>",
"-<11<1<<11<33<111<11<11331<11<111<133<,,11<11<133<11<11<11<33<111<11<1,231<11<111<133<,,11<11<133<11<<<,11<33<111<11<11=:",
"<>>>>>>>>>><<>>>>>>>>>><<>>>>>>>>>>,<>>>>>>>>>>,<>>>>>>>>>><<>>>>>>>>>><<>>>>>>>>>>,<>>>>>>>>>>,<>>>>>>>>>><<>>>>>>>>>>>d"
};
