/* XPM */
const char *Resize_xpm[] = {
/* columns rows colors chars-per-pixel */
"111 110 25 1 ",
"  c black",
". c #040404",
"X c gray2",
"o c #131313",
"O c gray9",
"+ c #1D1D1D",
"@ c gray12",
"# c #3F3F3F",
"$ c gray29",
"% c gray31",
"& c gray53",
"* c gray70",
"= c #97CCE5",
"- c #9ACDE5",
"; c gray81",
": c #CDD8DD",
"> c #D8D8D8",
", c gray85",
"< c gainsboro",
"1 c gray89",
"2 c gray92",
"3 c #E8ECED",
"4 c #EFEFEF",
"5 c #F6F6F6",
"6 c white",
/* pixels */
"3-=============================================================================================================",
"-:4444444444114444444444114444444444114444444444114444444444114444444444114444444444114444444444114444444444114",
"=46666666666446666666666446666666666446666666666446666666666446666666666446666666666446666666666446666666666446",
"=46666666666446666666666446666666666446666666666446666666666446666666666446666666666446666666666446666666666446",
"=46666666666446666666666446666666666446666666666446666666666446666666666446666666666446666666666446666666666446",
"=46666666666446666666666446666666666446666666666446666666666446666666666446666666666446666666666446666666666446",
"=46666666666446666666666446666666666446666666666446666666666446666666666446666666666446666666666446666666666446",
"=46666666666446666666666446666666666446666666666446666666666446666666666446666666666446666666666446666666666446",
"=46666666666446666666666446666666666446666666666446666666666446666666666446666666666446666666666446666666666446",
"=46666666666446666666666446666666666446666666666446666666666446666666666446666666666446666666666446666666666446",
"=46666666666446666666666446666666666446666666666446666666666446666666666446666666666446666666666446666666666446",
"=46666666666446666666666446666666666446666666666446666666666446666666666446666666666446666666666446666666666446",
"=14444444444114444444444114444444444114444444444114444444444114444444444114444444444114444444444114444444444114",
"=14444444444114444444444114444444444114444444444114444444444114444444444114444444444114444444444114444444444114",
"=46666666666446666666666446666666666446666666666446666666666446666666666446666666666446666666666446666666666446",
"=46666666666446666666666446666666666446666666666446666666666446666666666446666666666446666666666446666666666446",
"=4666666666644666>56666644666666666644666666666644666666666644666666666644666666666644666>566666446666666666446",
"=4666666666644666#;6666644666666666644666666666644666666666644666666666644666666666644666#;66666446666666666446",
"=4666666666644666#;6666644666666666644666666666644666666666644666666666644666666666644666#;66666446666666666446",
"=4666666666644*OOXoO$66644666666666644666666666644666666666644666666666644666666666644*OO oO$666446666666666446",
"=4666666666644666#;6666644&  %66666644&  %66666644&  %66666644&  %66666644&  %66666644666#;66666446666666666446",
"=4666666666644666#;6666644666666666644666666666644666666666644666666666644666666666644666#;66666446666666666446",
"=4666666666644666#;6666644666666666644666666666644666666666644666666666644666666666644666#;66666446666666666446",
"=46666666666446666666666446666666666446666666666446666666666446666666666446666666666446666666666446666666666446",
"=14444444444114444444444114444444444114444444444114444444444114444444444114444444444114444444444114444444444114",
"=14444444444114444444444114444444444114444444444114444444444114444444444114444444444114444444444114444444444114",
"=4666666666644666@26666644666666666644666666666644666666666644666666666644666666666644666@266666446666666666446",
"=4666666666644666@26666644666666666644666666666644666666666644666666666644666666666644666@266666446666666666446",
"=4666666666644666@26666644666>56666644666666666644666666666644666666666644666>56666644666@266666446666666666446",
"=4666666666644666@26666644666#;6666644666666666644666666666644666666666644666#;6666644666@266666446666666666446",
"=4666666666644666@26666644666#;6666644666666666644666666666644666666666644666#;6666644666@266666446666666666446",
"=4666666666644666@26666644*OOXoO$66644666666666644666666666644666666666644*OOXoO$66644666@266666446666666666446",
"=4666666666644666@26666644666#;6666644&  %66666644&  %66666644&  %66666644666#;6666644666@266666446666666666446",
"=4666666666644666@26666644666#;6666644666666666644666666666644666666666644666#;6666644666@266666446666666666446",
"=4666666666644666@26666644666#;6666644666666666644666666666644666666666644666#;6666644666@266666446666666666446",
"=4666666666644666@26666644666666666644666666666644666666666644666666666644666666666644666@266666446666666666446",
"=1444444444411444+>4444411444444444411444444444411444444444411444444444411444444444411444@>44444114444444444114",
"=1444444444411444+>4444411444444444411444444444411444444444411444444444411444444444411444@<54444114444444444114",
"=4666666666644666X>6666644666@26666644666666666644666@26666644666666666644666@26666644666 >66666446666666666446",
"=4666666666644666@26666644666@26666644666666666644666@26666644666666666644666@26666644666@266666446666666666446",
"=4666666666644666@26666644666@26666644666666666644666@26666644666666666644666@26666644666@266666446666666666446",
"=4666666666644666@26666644666@26666644666666666644666@26666644666666666644666@26666644666@266666446666666666446",
"=4666666666644666@26666644666@26666644666666666644666@26666644666666666644666@26666644666@266666446666666666446",
"=4666666666644666@26666644666@26666644666666666644666@26666644666666666644666@26666644666@266666446666666666446",
"=4666666666644666@26666644666@26666644666666666644666@26666644666666666644666@26666644666@266666446666666666446",
"=4666666666644666@26666644666@26666644666666666644666@26666644666666666644666@26666644666@266666446666666666446",
"=4666666666644666@26666644666@26666644666666666644666@26666644666666666644666@26666644666@266666446666666666446",
"=4666666666644666@26666644666@26666644666666666644666@26666644666666666644666@26666644666@266666446666666666446",
"=1444444444411444+>4444411444+>4444411444444444411444@>4444411444444444411444+>4444411444@<44444114444444444114",
"=1444444444411444@<5444411444@<5444411444444444411444@<4444411444444444411444@<5444411444@<44444114444444444114",
"=4666666666644666 >6666644666 >6666644666666666644666@26666644666666666644666 >6666644666 >66666446666666666446",
"=4666666666644666@26666644666@26666644666666666644666666666644666666666644666@26666644666@266666446666666666446",
"=4666666666644666@26666644666@26666644666666666644666>56666644666666666644666@26666644666@266666446666666666446",
"=4666666666644666@26666644666@26666644666666666644666#;6666644666666666644666@26666644666@266666446666666666446",
"=4666666666644666@26666644666@26666644666666666644666#;6666644666666666644666@26666644666@266666446666666666446",
"=4666666666644666@26666644666@26666644666666666644*OOXoO$66644666666666644666@26666644666@266666446666666666446",
"=4666666666644666@26666644666@26666644&  %66666644666#;6666644666666666644666@26666644666@266666446666666666446",
"=4666666666644666@26666644666@26666644666666666644666#;6666644666666666644666@26666644666@266666446666666666446",
"=4666666666644666@26666644666@26666644666666666644666#;6666644666666666644666@26666644666@266666446666666666446",
"=4666666666644666@26666644666@26666644666666666644666666666644666666666644666@26666644666@266666446666666666446",
"=1444444444411444+>4444411444@>4444411444444444411444444444411444444444411444@>4444411444@>44444114444444444114",
"=1444444444411444@<5444411444@<5444411444444444411444444444411444444444411444@<5444411444@<44444114444444444114",
"=4666666666644666 >6666644666 >6666644666666666644666666666644666666666644666 >6666644666X>66666446666666666446",
"=4666666666644666@26666644666@46666644666666666644666666666644666666666644666@46666644666@266666446666666666446",
"=4666666666644666@26666644666@26666644666666666644666666666644666666666644666@26666644666@266666446666666666446",
"=4666666666644666@26666644666@26666644666666666644666666666644666666666644666@26666644666@266666446666666666446",
"=4666666666644666@26666644666@26666644666666666644666666666644666666666644666@26666644666@266666446666666666446",
"=4666666666644666@26666644666@26666644666666666644666666666644666666666644666@26666644666@266666446666666666446",
"=4666666666644666@26666644666@26666644666666666644666666666644666666666644666@26666644666@266666446666666666446",
"=4666666666644666@26666644666@26666644666666666644666666666644666666666644666@26666644666@266666446666666666446",
"=4666666666644666@26666644666@26666644666666666644666666666644666666666644666@26666644666@266666446666666666446",
"=4666666666644666@26666644666@26666644666666666644666666666644666666666644666@26666644666@266666446666666666446",
"=1444444444411444@<4444411444@>4444411444444444411444444444411444444444411444@>4444411444@<54444114444444444114",
"=1444444444411444@<4444411444@<4444411444444444411444444444411444444444411444@<4444411444@>44444114444444444114",
"=4666666666644666 >6666644666@26666644666666666644666666666644666666666644666@26666644666 >66666446666666666446",
"=4666666666644666@26666644666666666644666666666644666666666644666666666644666666666644666@466666446666666666446",
"=4666666666644666@26666644666>56666644666666666644666666666644666666666644666>56666644666@266666446666666666446",
"=4666666666644666@26666644666#;6666644666666666644666666666644666666666644666#;6666644666@266666446666666666446",
"=4666666666644666@26666644666#;6666644666666666644666666666644666666666644666#;6666644666@266666446666666666446",
"=4666666666644666@26666644*OOXoO$66644666666666644666666666644666666666644*OOXoO$66644666@266666446666666666446",
"=4666666666644666@26666644666#;6666644&  %66666644&  %66666644&  %66666644666#;6666644666@266666446666666666446",
"=4666666666644666@26666644666#;6666644666666666644666666666644666666666644666#;6666644666@266666446666666666446",
"=4666666666644666@26666644666#;6666644666666666644666666666644666666666644666#;6666644666@266666446666666666446",
"=4666666666644666@26666644666666666644666666666644666666666644666666666644666666666644666@266666446666666666446",
"=1444444444411444@<4444411444444444411444444444411444444444411444444444411444444444411444@>44444114444444444114",
"=1444444444411444@>4444411444444444411444444444411444444444411444444444411444444444411444@>44444114444444444114",
"=4666666666644666@26666644666666666644666666666644666666666644666666666644666666666644666@266666446666666666446",
"=46666666666446666666666446666666666446666666666446666666666446666666666446666666666446666666666446666666666446",
"=4666666666644666>56666644666666666644666666666644666666666644666666666644666666666644666>566666446666666666446",
"=4666666666644666#;6666644666666666644666666666644666666666644666666666644666666666644666#;66666446666666666446",
"=4666666666644666#;6666644666666666644666666666644666666666644666666666644666666666644666#;66666446666666666446",
"=4666666666644*OOXoO$66644666666666644666666666644666666666644666666666644666666666644*OOXoO$666446666666666446",
"=4666666666644666#;6666644&  %66666644&  %66666644&  %66666644&  %66666644&  %66666644666#;66666446666666666446",
"=4666666666644666#;6666644666666666644666666666644666666666644666666666644666666666644666#;66666446666666666446",
"=4666666666644666#;6666644666666666644666666666644666666666644666666666644666666666644666#;66666446666666666446",
"=46666666666446666666666446666666666446666666666446666666666446666666666446666666666446666666666446666666666446",
"=14444444444114444444444114444444444114444444444114444444444114444444444114444444444114444444444114444444444114",
"=14444444444114444444444114444444444114444444444114444444444114444444444114444444444114444444444114444444444114",
"=46666666666446666666666446666666666446666666666446666666666446666666666446666666666446666666666446666666666446",
"=46666666666446666666666446666666666446666666666446666666666446666666666446666666666446666666666446666666666446",
"=46666666666446666666666446666666666446666666666446666666666446666666666446666666666446666666666446666666666446",
"=46666666666446666666666446666666666446666666666446666666666446666666666446666666666446666666666446666666666446",
"=46666666666446666666666446666666666446666666666446666666666446666666666446666666666446666666666446666666666446",
"=46666666666446666666666446666666666446666666666446666666666446666666666446666666666446666666666446666666666446",
"=46666666666446666666666446666666666446666666666446666666666446666666666446666666666446666666666446666666666446",
"=46666666666446666666666446666666666446666666666446666666666446666666666446666666666446666666666446666666666446",
"=46666666666446666666666446666666666446666666666446666666666446666666666446666666666446666666666446666666666446",
"=46666666666446666666666446666666666446666666666446666666666446666666666446666666666446666666666446666666666446",
"=14444444444114444444444114444444444114444444444114444444444114444444444114444444444114444444444114444444444114",
"=14444444444114444444444114444444444114444444444114444444444114444444444114444444444114444444444114444444444114"
};
